G04 #@! TF.GenerationSoftware,KiCad,Pcbnew,6.0.0-rc1-unknown-ff6a348~66~ubuntu18.04.1*
G04 #@! TF.CreationDate,2018-12-07T10:28:44+02:00
G04 #@! TF.ProjectId,eduArdu_Rev_B,65647541-7264-4755-9f52-65765f422e6b,rev?*
G04 #@! TF.SameCoordinates,Original*
G04 #@! TF.FileFunction,Paste,Bot*
G04 #@! TF.FilePolarity,Positive*
%FSLAX46Y46*%
G04 Gerber Fmt 4.6, Leading zero omitted, Abs format (unit mm)*
G04 Created by KiCad (PCBNEW 6.0.0-rc1-unknown-ff6a348~66~ubuntu18.04.1) date  7.12.2018 (пт) 10:28:44 EET*
%MOMM*%
%LPD*%
G01*
G04 APERTURE LIST*
%ADD10R,1.270000X1.524000*%
%ADD11R,1.524000X1.270000*%
%ADD12R,1.016000X1.016000*%
%ADD13R,0.550000X0.500000*%
%ADD14R,0.600000X2.200000*%
%ADD15R,0.500000X0.550000*%
%ADD16R,1.200000X0.550000*%
%ADD17R,1.524000X1.778000*%
%ADD18R,1.400000X1.000000*%
%ADD19R,2.000000X1.700000*%
%ADD20R,0.508000X1.016000*%
%ADD21R,0.762000X1.016000*%
%ADD22R,0.700000X2.200000*%
%ADD23R,2.200000X0.700000*%
%ADD24R,0.400000X2.000000*%
%ADD25R,2.000000X0.400000*%
%ADD26R,2.397760X1.798320*%
G04 APERTURE END LIST*
D10*
G04 #@! TO.C,C26*
X57084000Y-34800000D03*
X59116000Y-34800000D03*
G04 #@! TD*
G04 #@! TO.C,C17*
X80584000Y-63000000D03*
X82616000Y-63000000D03*
G04 #@! TD*
G04 #@! TO.C,C24*
X80584000Y-64800000D03*
X82616000Y-64800000D03*
G04 #@! TD*
D11*
G04 #@! TO.C,C25*
X149300000Y-69484000D03*
X149300000Y-71516000D03*
G04 #@! TD*
D12*
G04 #@! TO.C,C22*
X138600000Y-62111000D03*
X138600000Y-63889000D03*
G04 #@! TD*
G04 #@! TO.C,C16*
X76500000Y-61311000D03*
X76500000Y-63089000D03*
G04 #@! TD*
D13*
G04 #@! TO.C,R31*
X166500000Y-29908000D03*
X166500000Y-28892000D03*
G04 #@! TD*
G04 #@! TO.C,R30*
X165100000Y-29908000D03*
X165100000Y-28892000D03*
G04 #@! TD*
G04 #@! TO.C,R29*
X164000000Y-29908000D03*
X164000000Y-28892000D03*
G04 #@! TD*
G04 #@! TO.C,R28*
X158700000Y-48792000D03*
X158700000Y-49808000D03*
G04 #@! TD*
G04 #@! TO.C,R27*
X159800000Y-48792000D03*
X159800000Y-49808000D03*
G04 #@! TD*
G04 #@! TO.C,R26*
X160900000Y-48792000D03*
X160900000Y-49808000D03*
G04 #@! TD*
D12*
G04 #@! TO.C,C23*
X70811000Y-62600000D03*
X72589000Y-62600000D03*
G04 #@! TD*
D14*
G04 #@! TO.C,U10*
X76405000Y-67500000D03*
X75135000Y-67500000D03*
X73865000Y-67500000D03*
X72595000Y-67500000D03*
X72595000Y-72700000D03*
X73865000Y-72700000D03*
X75135000Y-72700000D03*
X76405000Y-72700000D03*
G04 #@! TD*
D13*
G04 #@! TO.C,R18*
X81600000Y-47608000D03*
X81600000Y-46592000D03*
G04 #@! TD*
D15*
G04 #@! TO.C,R17*
X75992000Y-65500000D03*
X77008000Y-65500000D03*
G04 #@! TD*
G04 #@! TO.C,R16*
X73884000Y-64300000D03*
X74900000Y-64300000D03*
G04 #@! TD*
G04 #@! TO.C,R15*
X74908000Y-63100000D03*
X73892000Y-63100000D03*
G04 #@! TD*
D16*
G04 #@! TO.C,VR1*
X130100000Y-27950000D03*
X130100000Y-28900000D03*
X130100000Y-29850000D03*
X127500000Y-27950000D03*
X127500000Y-29850000D03*
G04 #@! TD*
G04 #@! TO.C,U1*
X108000000Y-29550000D03*
X108000000Y-28600000D03*
X108000000Y-27650000D03*
X110600000Y-29550000D03*
X110600000Y-27650000D03*
G04 #@! TD*
D15*
G04 #@! TO.C,R25*
X71592000Y-64300000D03*
X72608000Y-64300000D03*
G04 #@! TD*
G04 #@! TO.C,R24*
X78092000Y-60000000D03*
X79108000Y-60000000D03*
G04 #@! TD*
G04 #@! TO.C,R23*
X78092000Y-61300000D03*
X79108000Y-61300000D03*
G04 #@! TD*
G04 #@! TO.C,R22*
X108692000Y-25300000D03*
X109708000Y-25300000D03*
G04 #@! TD*
G04 #@! TO.C,R21*
X55392000Y-61800000D03*
X56408000Y-61800000D03*
G04 #@! TD*
G04 #@! TO.C,R20*
X55400000Y-63100000D03*
X56416000Y-63100000D03*
G04 #@! TD*
G04 #@! TO.C,R19*
X79992000Y-24500000D03*
X81008000Y-24500000D03*
G04 #@! TD*
D13*
G04 #@! TO.C,R14*
X178700000Y-56708000D03*
X178700000Y-55692000D03*
G04 #@! TD*
D17*
G04 #@! TO.C,R13*
X67603000Y-33200000D03*
X70397000Y-33200000D03*
G04 #@! TD*
D15*
G04 #@! TO.C,R12*
X81408000Y-61300000D03*
X80392000Y-61300000D03*
G04 #@! TD*
G04 #@! TO.C,R11*
X188392000Y-49100000D03*
X189408000Y-49100000D03*
G04 #@! TD*
G04 #@! TO.C,R10*
X111992000Y-31200000D03*
X113008000Y-31200000D03*
G04 #@! TD*
G04 #@! TO.C,R9*
X105192000Y-30400000D03*
X106208000Y-30400000D03*
G04 #@! TD*
G04 #@! TO.C,R8*
X154392000Y-42400000D03*
X155408000Y-42400000D03*
G04 #@! TD*
D13*
G04 #@! TO.C,R6*
X164700000Y-49708000D03*
X164700000Y-48692000D03*
G04 #@! TD*
G04 #@! TO.C,R5*
X165800000Y-49708000D03*
X165800000Y-48692000D03*
G04 #@! TD*
D15*
G04 #@! TO.C,R4*
X98492000Y-49000000D03*
X99508000Y-49000000D03*
G04 #@! TD*
G04 #@! TO.C,R3*
X100208000Y-32800000D03*
X99192000Y-32800000D03*
G04 #@! TD*
D13*
G04 #@! TO.C,R2*
X156500000Y-28692000D03*
X156500000Y-29708000D03*
G04 #@! TD*
G04 #@! TO.C,R1*
X170000000Y-28692000D03*
X170000000Y-29708000D03*
G04 #@! TD*
D18*
G04 #@! TO.C,FET1*
X129397640Y-25097460D03*
X131607440Y-26052500D03*
X131607440Y-24150040D03*
G04 #@! TD*
D19*
G04 #@! TO.C,D1*
X137900000Y-28000000D03*
X142900000Y-28000000D03*
G04 #@! TD*
D15*
G04 #@! TO.C,C21*
X74908000Y-65500000D03*
X73892000Y-65500000D03*
G04 #@! TD*
D13*
G04 #@! TO.C,C20*
X48000000Y-63008000D03*
X48000000Y-61992000D03*
G04 #@! TD*
D15*
G04 #@! TO.C,C19*
X75692000Y-24500000D03*
X76708000Y-24500000D03*
G04 #@! TD*
D11*
G04 #@! TO.C,C18*
X109700000Y-71516000D03*
X109700000Y-69484000D03*
G04 #@! TD*
D15*
G04 #@! TO.C,C15*
X180192000Y-69600000D03*
X181208000Y-69600000D03*
G04 #@! TD*
D13*
G04 #@! TO.C,C14*
X174100000Y-63108000D03*
X174100000Y-62092000D03*
G04 #@! TD*
D12*
G04 #@! TO.C,C13*
X131611000Y-36400000D03*
X133389000Y-36400000D03*
G04 #@! TD*
D11*
G04 #@! TO.C,C12*
X123800000Y-30016000D03*
X123800000Y-27984000D03*
G04 #@! TD*
G04 #@! TO.C,C11*
X134400000Y-30016000D03*
X134400000Y-27984000D03*
G04 #@! TD*
D15*
G04 #@! TO.C,C10*
X159092000Y-30600000D03*
X160108000Y-30600000D03*
G04 #@! TD*
D13*
G04 #@! TO.C,C9*
X153800000Y-44508000D03*
X153800000Y-43492000D03*
G04 #@! TD*
G04 #@! TO.C,C8*
X166900000Y-49708000D03*
X166900000Y-48692000D03*
G04 #@! TD*
D12*
G04 #@! TO.C,C7*
X100611000Y-25000000D03*
X102389000Y-25000000D03*
G04 #@! TD*
G04 #@! TO.C,C6*
X163300000Y-50789000D03*
X163300000Y-49011000D03*
G04 #@! TD*
D15*
G04 #@! TO.C,C5*
X172108000Y-41600000D03*
X171092000Y-41600000D03*
G04 #@! TD*
D13*
G04 #@! TO.C,C4*
X151600000Y-43492000D03*
X151600000Y-44508000D03*
G04 #@! TD*
G04 #@! TO.C,C3*
X151600000Y-35708000D03*
X151600000Y-34692000D03*
G04 #@! TD*
D12*
G04 #@! TO.C,C2*
X113000000Y-29389000D03*
X113000000Y-27611000D03*
G04 #@! TD*
G04 #@! TO.C,C1*
X177300000Y-25789000D03*
X177300000Y-24011000D03*
G04 #@! TD*
D20*
G04 #@! TO.C,RM2*
X146119000Y-56262000D03*
X146881000Y-56262000D03*
X146119000Y-54738000D03*
X146881000Y-54738000D03*
D21*
X145230000Y-56262000D03*
X145230000Y-54738000D03*
X147770000Y-56262000D03*
X147770000Y-54738000D03*
G04 #@! TD*
D20*
G04 #@! TO.C,RM1*
X141119000Y-56262000D03*
X141881000Y-56262000D03*
X141119000Y-54738000D03*
X141881000Y-54738000D03*
D21*
X140230000Y-56262000D03*
X140230000Y-54738000D03*
X142770000Y-56262000D03*
X142770000Y-54738000D03*
G04 #@! TD*
D22*
G04 #@! TO.C,U7*
X134145000Y-49325000D03*
X132875000Y-49325000D03*
X131605000Y-49325000D03*
X130335000Y-49325000D03*
X129065000Y-49325000D03*
X127795000Y-49325000D03*
X126525000Y-49325000D03*
X125255000Y-49325000D03*
X125255000Y-55675000D03*
X126525000Y-55675000D03*
X127795000Y-55675000D03*
X129065000Y-55675000D03*
X130335000Y-55675000D03*
X131605000Y-55675000D03*
X132875000Y-55675000D03*
X134145000Y-55675000D03*
G04 #@! TD*
G04 #@! TO.C,U5*
X127755000Y-66175000D03*
X129025000Y-66175000D03*
X130295000Y-66175000D03*
X131565000Y-66175000D03*
X132835000Y-66175000D03*
X134105000Y-66175000D03*
X135375000Y-66175000D03*
X136645000Y-66175000D03*
X136645000Y-59825000D03*
X135375000Y-59825000D03*
X134105000Y-59825000D03*
X132835000Y-59825000D03*
X131565000Y-59825000D03*
X130295000Y-59825000D03*
X129025000Y-59825000D03*
X127755000Y-59825000D03*
G04 #@! TD*
G04 #@! TO.C,U6*
X140555000Y-66175000D03*
X141825000Y-66175000D03*
X143095000Y-66175000D03*
X144365000Y-66175000D03*
X145635000Y-66175000D03*
X146905000Y-66175000D03*
X148175000Y-66175000D03*
X149445000Y-66175000D03*
X149445000Y-59825000D03*
X148175000Y-59825000D03*
X146905000Y-59825000D03*
X145635000Y-59825000D03*
X144365000Y-59825000D03*
X143095000Y-59825000D03*
X141825000Y-59825000D03*
X140555000Y-59825000D03*
G04 #@! TD*
D23*
G04 #@! TO.C,U8*
X106925000Y-36455000D03*
X106925000Y-37725000D03*
X106925000Y-38995000D03*
X106925000Y-40265000D03*
X106925000Y-41535000D03*
X106925000Y-42805000D03*
X106925000Y-44075000D03*
X106925000Y-45345000D03*
X113275000Y-45345000D03*
X113275000Y-44075000D03*
X113275000Y-42805000D03*
X113275000Y-41535000D03*
X113275000Y-40265000D03*
X113275000Y-38995000D03*
X113275000Y-37725000D03*
X113275000Y-36455000D03*
G04 #@! TD*
D24*
G04 #@! TO.C,U2*
X167300000Y-44800000D03*
X166500000Y-44800000D03*
X165700000Y-44800000D03*
X164900000Y-44800000D03*
X164100000Y-44800000D03*
X163300000Y-44800000D03*
X162500000Y-44800000D03*
X161700000Y-44800000D03*
X160900000Y-44800000D03*
X160100000Y-44800000D03*
X159300000Y-44800000D03*
D25*
X157700000Y-43200000D03*
X157700000Y-42400000D03*
X157700000Y-41600000D03*
X157700000Y-40800000D03*
X157700000Y-40000000D03*
X157700000Y-39200000D03*
X157700000Y-38400000D03*
X157700000Y-37600000D03*
X157700000Y-36800000D03*
X157700000Y-36000000D03*
X157700000Y-35200000D03*
D24*
X159300000Y-33600000D03*
X160100000Y-33600000D03*
X160900000Y-33600000D03*
X161700000Y-33600000D03*
X162500000Y-33600000D03*
X163300000Y-33600000D03*
X164100000Y-33600000D03*
X164900000Y-33600000D03*
X165700000Y-33600000D03*
X166500000Y-33600000D03*
X167300000Y-33600000D03*
D25*
X168900000Y-35200000D03*
X168900000Y-36000000D03*
X168900000Y-36800000D03*
X168900000Y-37600000D03*
X168900000Y-38400000D03*
X168900000Y-39200000D03*
X168900000Y-40000000D03*
X168900000Y-40800000D03*
X168900000Y-41600000D03*
X168900000Y-42400000D03*
X168900000Y-43200000D03*
G04 #@! TD*
D26*
G04 #@! TO.C,Q1*
X151600000Y-41598980D03*
X151600000Y-37601020D03*
G04 #@! TD*
M02*
