G04 #@! TF.GenerationSoftware,KiCad,Pcbnew,6.0.0-rc1-unknown-ee465fb~66~ubuntu18.04.1*
G04 #@! TF.CreationDate,2018-09-27T12:58:04+03:00*
G04 #@! TF.ProjectId,eduBoard_Rev_A,656475426F6172645F5265765F412E6B,rev?*
G04 #@! TF.SameCoordinates,Original*
G04 #@! TF.FileFunction,Soldermask,Top*
G04 #@! TF.FilePolarity,Negative*
%FSLAX46Y46*%
G04 Gerber Fmt 4.6, Leading zero omitted, Abs format (unit mm)*
G04 Created by KiCad (PCBNEW 6.0.0-rc1-unknown-ee465fb~66~ubuntu18.04.1) date Thu Sep 27 12:58:04 2018*
%MOMM*%
%LPD*%
G01*
G04 APERTURE LIST*
%ADD10C,0.100000*%
G04 APERTURE END LIST*
D10*
G36*
X185117399Y-79446598D02*
X185141785Y-79449000D01*
X185398990Y-79449000D01*
X186181632Y-79604677D01*
X186597391Y-79776890D01*
X186918868Y-79910050D01*
X187409679Y-80238000D01*
X187582365Y-80353385D01*
X188146615Y-80917635D01*
X188146617Y-80917638D01*
X188589950Y-81581132D01*
X188688216Y-81818367D01*
X188895323Y-82318368D01*
X189051000Y-83101010D01*
X189051000Y-83358215D01*
X189053402Y-83382601D01*
X189064000Y-83435881D01*
X189064000Y-83564119D01*
X189053402Y-83617399D01*
X189051000Y-83641785D01*
X189051000Y-83898990D01*
X188895323Y-84681632D01*
X188769659Y-84985012D01*
X188589950Y-85418868D01*
X188208392Y-85989909D01*
X188146615Y-86082365D01*
X187582365Y-86646615D01*
X187582362Y-86646617D01*
X186918868Y-87089950D01*
X186613495Y-87216439D01*
X186181632Y-87395323D01*
X185398990Y-87551000D01*
X185141785Y-87551000D01*
X185117399Y-87553402D01*
X185064119Y-87564000D01*
X184935881Y-87564000D01*
X184882601Y-87553402D01*
X184858215Y-87551000D01*
X184601010Y-87551000D01*
X183818368Y-87395323D01*
X183386505Y-87216439D01*
X183081132Y-87089950D01*
X182417638Y-86646617D01*
X182417635Y-86646615D01*
X181853385Y-86082365D01*
X181791608Y-85989909D01*
X181410050Y-85418868D01*
X181230341Y-84985012D01*
X181104677Y-84681632D01*
X180949000Y-83898990D01*
X180949000Y-83641785D01*
X180946598Y-83617399D01*
X180936000Y-83564119D01*
X180936000Y-83435881D01*
X180946598Y-83382601D01*
X180949000Y-83358215D01*
X180949000Y-83101010D01*
X181104677Y-82318368D01*
X181311784Y-81818367D01*
X181410050Y-81581132D01*
X181853383Y-80917638D01*
X181853385Y-80917635D01*
X182417635Y-80353385D01*
X182590321Y-80238000D01*
X183081132Y-79910050D01*
X183402609Y-79776890D01*
X183818368Y-79604677D01*
X184601010Y-79449000D01*
X184858215Y-79449000D01*
X184882601Y-79446598D01*
X184935881Y-79436000D01*
X185064119Y-79436000D01*
X185117399Y-79446598D01*
X185117399Y-79446598D01*
G37*
G36*
X74117399Y-78946598D02*
X74141785Y-78949000D01*
X74398990Y-78949000D01*
X75181632Y-79104677D01*
X75601606Y-79278636D01*
X75918868Y-79410050D01*
X76429135Y-79751000D01*
X76582365Y-79853385D01*
X77146615Y-80417635D01*
X77146617Y-80417638D01*
X77589950Y-81081132D01*
X77692201Y-81327988D01*
X77895323Y-81818368D01*
X78051000Y-82601010D01*
X78051000Y-82858215D01*
X78053402Y-82882601D01*
X78064000Y-82935881D01*
X78064000Y-83064119D01*
X78053402Y-83117399D01*
X78051000Y-83141785D01*
X78051000Y-83398990D01*
X77895323Y-84181632D01*
X77783012Y-84452774D01*
X77589950Y-84918868D01*
X77255996Y-85418665D01*
X77146615Y-85582365D01*
X76582365Y-86146615D01*
X76582362Y-86146617D01*
X75918868Y-86589950D01*
X75782066Y-86646615D01*
X75181632Y-86895323D01*
X74398990Y-87051000D01*
X74141785Y-87051000D01*
X74117399Y-87053402D01*
X74064119Y-87064000D01*
X73935881Y-87064000D01*
X73882601Y-87053402D01*
X73858215Y-87051000D01*
X73601010Y-87051000D01*
X72818368Y-86895323D01*
X72217934Y-86646615D01*
X72081132Y-86589950D01*
X71417638Y-86146617D01*
X71417635Y-86146615D01*
X70853385Y-85582365D01*
X70744004Y-85418665D01*
X70410050Y-84918868D01*
X70216988Y-84452774D01*
X70104677Y-84181632D01*
X69949000Y-83398990D01*
X69949000Y-83141785D01*
X69946598Y-83117399D01*
X69936000Y-83064119D01*
X69936000Y-82935881D01*
X69946598Y-82882601D01*
X69949000Y-82858215D01*
X69949000Y-82601010D01*
X70104677Y-81818368D01*
X70307799Y-81327988D01*
X70410050Y-81081132D01*
X70853383Y-80417638D01*
X70853385Y-80417635D01*
X71417635Y-79853385D01*
X71570865Y-79751000D01*
X72081132Y-79410050D01*
X72398394Y-79278636D01*
X72818368Y-79104677D01*
X73601010Y-78949000D01*
X73858215Y-78949000D01*
X73882601Y-78946598D01*
X73935881Y-78936000D01*
X74064119Y-78936000D01*
X74117399Y-78946598D01*
X74117399Y-78946598D01*
G37*
G36*
X172617399Y-77946598D02*
X172641785Y-77949000D01*
X172898990Y-77949000D01*
X173681632Y-78104677D01*
X174097391Y-78276890D01*
X174418868Y-78410050D01*
X174909679Y-78738000D01*
X175082365Y-78853385D01*
X175646615Y-79417635D01*
X175646617Y-79417638D01*
X176089950Y-80081132D01*
X176160311Y-80251000D01*
X176395323Y-80818368D01*
X176551000Y-81601010D01*
X176551000Y-81858215D01*
X176553402Y-81882601D01*
X176564000Y-81935881D01*
X176564000Y-82064119D01*
X176553402Y-82117399D01*
X176551000Y-82141785D01*
X176551000Y-82398990D01*
X176395323Y-83181632D01*
X176231594Y-83576909D01*
X176089950Y-83918868D01*
X175702978Y-84498012D01*
X175646615Y-84582365D01*
X175082365Y-85146615D01*
X175082362Y-85146617D01*
X174418868Y-85589950D01*
X174132991Y-85708364D01*
X173681632Y-85895323D01*
X172898990Y-86051000D01*
X172641785Y-86051000D01*
X172617399Y-86053402D01*
X172564119Y-86064000D01*
X172435881Y-86064000D01*
X172382601Y-86053402D01*
X172358215Y-86051000D01*
X172101010Y-86051000D01*
X171318368Y-85895323D01*
X170867009Y-85708364D01*
X170581132Y-85589950D01*
X169917638Y-85146617D01*
X169917635Y-85146615D01*
X169353385Y-84582365D01*
X169297022Y-84498012D01*
X168910050Y-83918868D01*
X168768406Y-83576909D01*
X168604677Y-83181632D01*
X168449000Y-82398990D01*
X168449000Y-82141785D01*
X168446598Y-82117399D01*
X168436000Y-82064119D01*
X168436000Y-81935881D01*
X168446598Y-81882601D01*
X168449000Y-81858215D01*
X168449000Y-81601010D01*
X168604677Y-80818368D01*
X168839689Y-80251000D01*
X168910050Y-80081132D01*
X169353383Y-79417638D01*
X169353385Y-79417635D01*
X169917635Y-78853385D01*
X170090321Y-78738000D01*
X170581132Y-78410050D01*
X170902609Y-78276890D01*
X171318368Y-78104677D01*
X172101010Y-77949000D01*
X172358215Y-77949000D01*
X172382601Y-77946598D01*
X172435881Y-77936000D01*
X172564119Y-77936000D01*
X172617399Y-77946598D01*
X172617399Y-77946598D01*
G37*
G36*
X86617399Y-77446598D02*
X86641785Y-77449000D01*
X86898990Y-77449000D01*
X87681632Y-77604677D01*
X88101606Y-77778636D01*
X88418868Y-77910050D01*
X88779651Y-78151118D01*
X89082365Y-78353385D01*
X89646615Y-78917635D01*
X89646617Y-78917638D01*
X90089950Y-79581132D01*
X90176420Y-79789890D01*
X90395323Y-80318368D01*
X90551000Y-81101010D01*
X90551000Y-81358215D01*
X90553402Y-81382601D01*
X90564000Y-81435881D01*
X90564000Y-81564119D01*
X90553402Y-81617399D01*
X90551000Y-81641785D01*
X90551000Y-81898990D01*
X90395323Y-82681632D01*
X90228237Y-83085012D01*
X90089950Y-83418868D01*
X89811310Y-83835882D01*
X89646615Y-84082365D01*
X89082365Y-84646615D01*
X89082362Y-84646617D01*
X88418868Y-85089950D01*
X88282066Y-85146615D01*
X87681632Y-85395323D01*
X86898990Y-85551000D01*
X86641785Y-85551000D01*
X86617399Y-85553402D01*
X86564119Y-85564000D01*
X86435881Y-85564000D01*
X86382601Y-85553402D01*
X86358215Y-85551000D01*
X86101010Y-85551000D01*
X85318368Y-85395323D01*
X84717934Y-85146615D01*
X84581132Y-85089950D01*
X83917638Y-84646617D01*
X83917635Y-84646615D01*
X83353385Y-84082365D01*
X83188690Y-83835882D01*
X82910050Y-83418868D01*
X82771763Y-83085012D01*
X82604677Y-82681632D01*
X82449000Y-81898990D01*
X82449000Y-81641785D01*
X82446598Y-81617399D01*
X82436000Y-81564119D01*
X82436000Y-81435881D01*
X82446598Y-81382601D01*
X82449000Y-81358215D01*
X82449000Y-81101010D01*
X82604677Y-80318368D01*
X82823580Y-79789890D01*
X82910050Y-79581132D01*
X83353383Y-78917638D01*
X83353385Y-78917635D01*
X83917635Y-78353385D01*
X84220349Y-78151118D01*
X84581132Y-77910050D01*
X84898394Y-77778636D01*
X85318368Y-77604677D01*
X86101010Y-77449000D01*
X86358215Y-77449000D01*
X86382601Y-77446598D01*
X86435881Y-77436000D01*
X86564119Y-77436000D01*
X86617399Y-77446598D01*
X86617399Y-77446598D01*
G37*
G36*
X194431271Y-79485012D02*
X194744041Y-79547226D01*
X194882742Y-79604678D01*
X195208256Y-79739510D01*
X195626043Y-80018666D01*
X195981334Y-80373957D01*
X196260490Y-80791744D01*
X196337274Y-80977118D01*
X196440358Y-81225983D01*
X196452774Y-81255960D01*
X196550800Y-81748767D01*
X196550800Y-82251233D01*
X196452774Y-82744040D01*
X196260490Y-83208256D01*
X195981334Y-83626043D01*
X195626043Y-83981334D01*
X195208256Y-84260490D01*
X194936325Y-84373127D01*
X194744041Y-84452774D01*
X194622706Y-84476909D01*
X194251233Y-84550800D01*
X193748767Y-84550800D01*
X193377294Y-84476909D01*
X193255959Y-84452774D01*
X193063675Y-84373127D01*
X192791744Y-84260490D01*
X192373957Y-83981334D01*
X192018666Y-83626043D01*
X191739510Y-83208256D01*
X191547226Y-82744040D01*
X191449200Y-82251233D01*
X191449200Y-81748767D01*
X191547226Y-81255960D01*
X191559643Y-81225983D01*
X191662726Y-80977118D01*
X191739510Y-80791744D01*
X192018666Y-80373957D01*
X192373957Y-80018666D01*
X192791744Y-79739510D01*
X193117258Y-79604678D01*
X193255959Y-79547226D01*
X193568729Y-79485012D01*
X193748767Y-79449200D01*
X194251233Y-79449200D01*
X194431271Y-79485012D01*
X194431271Y-79485012D01*
G37*
G36*
X65431271Y-79485012D02*
X65744041Y-79547226D01*
X65882742Y-79604678D01*
X66208256Y-79739510D01*
X66626043Y-80018666D01*
X66981334Y-80373957D01*
X67260490Y-80791744D01*
X67337274Y-80977118D01*
X67440358Y-81225983D01*
X67452774Y-81255960D01*
X67550800Y-81748767D01*
X67550800Y-82251233D01*
X67452774Y-82744040D01*
X67260490Y-83208256D01*
X66981334Y-83626043D01*
X66626043Y-83981334D01*
X66208256Y-84260490D01*
X65936325Y-84373127D01*
X65744041Y-84452774D01*
X65622706Y-84476909D01*
X65251233Y-84550800D01*
X64748767Y-84550800D01*
X64377294Y-84476909D01*
X64255959Y-84452774D01*
X64063675Y-84373127D01*
X63791744Y-84260490D01*
X63373957Y-83981334D01*
X63018666Y-83626043D01*
X62739510Y-83208256D01*
X62547226Y-82744040D01*
X62449200Y-82251233D01*
X62449200Y-81748767D01*
X62547226Y-81255960D01*
X62559643Y-81225983D01*
X62662726Y-80977118D01*
X62739510Y-80791744D01*
X63018666Y-80373957D01*
X63373957Y-80018666D01*
X63791744Y-79739510D01*
X64117258Y-79604678D01*
X64255959Y-79547226D01*
X64568729Y-79485012D01*
X64748767Y-79449200D01*
X65251233Y-79449200D01*
X65431271Y-79485012D01*
X65431271Y-79485012D01*
G37*
G36*
X99117399Y-73446598D02*
X99141785Y-73449000D01*
X99398990Y-73449000D01*
X100181632Y-73604677D01*
X100419014Y-73703004D01*
X100918868Y-73910050D01*
X101279651Y-74151118D01*
X101582365Y-74353385D01*
X102146615Y-74917635D01*
X102146617Y-74917638D01*
X102589950Y-75581132D01*
X102629622Y-75676909D01*
X102895323Y-76318368D01*
X103051000Y-77101010D01*
X103051000Y-77358215D01*
X103053402Y-77382601D01*
X103064000Y-77435881D01*
X103064000Y-77564119D01*
X103053402Y-77617399D01*
X103051000Y-77641785D01*
X103051000Y-77898990D01*
X102895323Y-78681632D01*
X102806792Y-78895364D01*
X102589950Y-79418868D01*
X102262879Y-79908364D01*
X102146615Y-80082365D01*
X101582365Y-80646615D01*
X101582362Y-80646617D01*
X100918868Y-81089950D01*
X100613495Y-81216439D01*
X100181632Y-81395323D01*
X99398990Y-81551000D01*
X99141785Y-81551000D01*
X99117399Y-81553402D01*
X99064119Y-81564000D01*
X98935881Y-81564000D01*
X98882601Y-81553402D01*
X98858215Y-81551000D01*
X98601010Y-81551000D01*
X97818368Y-81395323D01*
X97386505Y-81216439D01*
X97081132Y-81089950D01*
X96417638Y-80646617D01*
X96417635Y-80646615D01*
X95853385Y-80082365D01*
X95737121Y-79908364D01*
X95410050Y-79418868D01*
X95193208Y-78895364D01*
X95104677Y-78681632D01*
X94949000Y-77898990D01*
X94949000Y-77641785D01*
X94946598Y-77617399D01*
X94936000Y-77564119D01*
X94936000Y-77435881D01*
X94946598Y-77382601D01*
X94949000Y-77358215D01*
X94949000Y-77101010D01*
X95104677Y-76318368D01*
X95370378Y-75676909D01*
X95410050Y-75581132D01*
X95853383Y-74917638D01*
X95853385Y-74917635D01*
X96417635Y-74353385D01*
X96720349Y-74151118D01*
X97081132Y-73910050D01*
X97580986Y-73703004D01*
X97818368Y-73604677D01*
X98601010Y-73449000D01*
X98858215Y-73449000D01*
X98882601Y-73446598D01*
X98935881Y-73436000D01*
X99064119Y-73436000D01*
X99117399Y-73446598D01*
X99117399Y-73446598D01*
G37*
G36*
X160117399Y-73446598D02*
X160141785Y-73449000D01*
X160398990Y-73449000D01*
X161181632Y-73604677D01*
X161419014Y-73703004D01*
X161918868Y-73910050D01*
X162279651Y-74151118D01*
X162582365Y-74353385D01*
X163146615Y-74917635D01*
X163146617Y-74917638D01*
X163589950Y-75581132D01*
X163629622Y-75676909D01*
X163895323Y-76318368D01*
X164051000Y-77101010D01*
X164051000Y-77358215D01*
X164053402Y-77382601D01*
X164064000Y-77435881D01*
X164064000Y-77564119D01*
X164053402Y-77617399D01*
X164051000Y-77641785D01*
X164051000Y-77898990D01*
X163895323Y-78681632D01*
X163806792Y-78895364D01*
X163589950Y-79418868D01*
X163262879Y-79908364D01*
X163146615Y-80082365D01*
X162582365Y-80646615D01*
X162582362Y-80646617D01*
X161918868Y-81089950D01*
X161613495Y-81216439D01*
X161181632Y-81395323D01*
X160398990Y-81551000D01*
X160141785Y-81551000D01*
X160117399Y-81553402D01*
X160064119Y-81564000D01*
X159935881Y-81564000D01*
X159882601Y-81553402D01*
X159858215Y-81551000D01*
X159601010Y-81551000D01*
X158818368Y-81395323D01*
X158386505Y-81216439D01*
X158081132Y-81089950D01*
X157417638Y-80646617D01*
X157417635Y-80646615D01*
X156853385Y-80082365D01*
X156737121Y-79908364D01*
X156410050Y-79418868D01*
X156193208Y-78895364D01*
X156104677Y-78681632D01*
X155949000Y-77898990D01*
X155949000Y-77641785D01*
X155946598Y-77617399D01*
X155936000Y-77564119D01*
X155936000Y-77435881D01*
X155946598Y-77382601D01*
X155949000Y-77358215D01*
X155949000Y-77101010D01*
X156104677Y-76318368D01*
X156370378Y-75676909D01*
X156410050Y-75581132D01*
X156853383Y-74917638D01*
X156853385Y-74917635D01*
X157417635Y-74353385D01*
X157720349Y-74151118D01*
X158081132Y-73910050D01*
X158580986Y-73703004D01*
X158818368Y-73604677D01*
X159601010Y-73449000D01*
X159858215Y-73449000D01*
X159882601Y-73446598D01*
X159935881Y-73436000D01*
X160064119Y-73436000D01*
X160117399Y-73446598D01*
X160117399Y-73446598D01*
G37*
G36*
X203408597Y-76653031D02*
X203577782Y-76723110D01*
X203663528Y-76758627D01*
X203892958Y-76911927D01*
X204088073Y-77107042D01*
X204235704Y-77327988D01*
X204241373Y-77336472D01*
X204346969Y-77591403D01*
X204400800Y-77862032D01*
X204400800Y-78137968D01*
X204346969Y-78408597D01*
X204299544Y-78523091D01*
X204241373Y-78663528D01*
X204088073Y-78892958D01*
X203892958Y-79088073D01*
X203668576Y-79238000D01*
X203663528Y-79241373D01*
X203408597Y-79346969D01*
X203137968Y-79400800D01*
X202862032Y-79400800D01*
X202591403Y-79346969D01*
X202336472Y-79241373D01*
X202331424Y-79238000D01*
X202107042Y-79088073D01*
X201911927Y-78892958D01*
X201758627Y-78663528D01*
X201700456Y-78523091D01*
X201653031Y-78408597D01*
X201599200Y-78137968D01*
X201599200Y-77862032D01*
X201653031Y-77591403D01*
X201758627Y-77336472D01*
X201764296Y-77327988D01*
X201911927Y-77107042D01*
X202107042Y-76911927D01*
X202336472Y-76758627D01*
X202422218Y-76723110D01*
X202591403Y-76653031D01*
X202862032Y-76599200D01*
X203137968Y-76599200D01*
X203408597Y-76653031D01*
X203408597Y-76653031D01*
G37*
G36*
X56408597Y-76653031D02*
X56577782Y-76723110D01*
X56663528Y-76758627D01*
X56892958Y-76911927D01*
X57088073Y-77107042D01*
X57235704Y-77327988D01*
X57241373Y-77336472D01*
X57346969Y-77591403D01*
X57400800Y-77862032D01*
X57400800Y-78137968D01*
X57346969Y-78408597D01*
X57299544Y-78523091D01*
X57241373Y-78663528D01*
X57088073Y-78892958D01*
X56892958Y-79088073D01*
X56668576Y-79238000D01*
X56663528Y-79241373D01*
X56408597Y-79346969D01*
X56137968Y-79400800D01*
X55862032Y-79400800D01*
X55591403Y-79346969D01*
X55336472Y-79241373D01*
X55331424Y-79238000D01*
X55107042Y-79088073D01*
X54911927Y-78892958D01*
X54758627Y-78663528D01*
X54700456Y-78523091D01*
X54653031Y-78408597D01*
X54599200Y-78137968D01*
X54599200Y-77862032D01*
X54653031Y-77591403D01*
X54758627Y-77336472D01*
X54764296Y-77327988D01*
X54911927Y-77107042D01*
X55107042Y-76911927D01*
X55336472Y-76758627D01*
X55422218Y-76723110D01*
X55591403Y-76653031D01*
X55862032Y-76599200D01*
X56137968Y-76599200D01*
X56408597Y-76653031D01*
X56408597Y-76653031D01*
G37*
G36*
X50117399Y-69446598D02*
X50141785Y-69449000D01*
X50398990Y-69449000D01*
X51181632Y-69604677D01*
X51601606Y-69778636D01*
X51918868Y-69910050D01*
X52491753Y-70292840D01*
X52582365Y-70353385D01*
X53146615Y-70917635D01*
X53146617Y-70917638D01*
X53589950Y-71581132D01*
X53660311Y-71751000D01*
X53895323Y-72318368D01*
X54051000Y-73101010D01*
X54051000Y-73358215D01*
X54053402Y-73382601D01*
X54064000Y-73435881D01*
X54064000Y-73564119D01*
X54053402Y-73617399D01*
X54051000Y-73641785D01*
X54051000Y-73898990D01*
X53895323Y-74681632D01*
X53800684Y-74910110D01*
X53589950Y-75418868D01*
X53465136Y-75605665D01*
X53146615Y-76082365D01*
X52582365Y-76646615D01*
X52582362Y-76646617D01*
X51918868Y-77089950D01*
X51613495Y-77216439D01*
X51181632Y-77395323D01*
X50398990Y-77551000D01*
X50141785Y-77551000D01*
X50117399Y-77553402D01*
X50064119Y-77564000D01*
X49935881Y-77564000D01*
X49882601Y-77553402D01*
X49858215Y-77551000D01*
X49601010Y-77551000D01*
X48818368Y-77395323D01*
X48386505Y-77216439D01*
X48081132Y-77089950D01*
X47417638Y-76646617D01*
X47417635Y-76646615D01*
X46853385Y-76082365D01*
X46534864Y-75605665D01*
X46410050Y-75418868D01*
X46199316Y-74910110D01*
X46104677Y-74681632D01*
X45949000Y-73898990D01*
X45949000Y-73641785D01*
X45946598Y-73617399D01*
X45936000Y-73564119D01*
X45936000Y-73435881D01*
X45946598Y-73382601D01*
X45949000Y-73358215D01*
X45949000Y-73101010D01*
X46104677Y-72318368D01*
X46339689Y-71751000D01*
X46410050Y-71581132D01*
X46853383Y-70917638D01*
X46853385Y-70917635D01*
X47417635Y-70353385D01*
X47508247Y-70292840D01*
X48081132Y-69910050D01*
X48398394Y-69778636D01*
X48818368Y-69604677D01*
X49601010Y-69449000D01*
X49858215Y-69449000D01*
X49882601Y-69446598D01*
X49935881Y-69436000D01*
X50064119Y-69436000D01*
X50117399Y-69446598D01*
X50117399Y-69446598D01*
G37*
G36*
X152939800Y-75479800D02*
X151060200Y-75479800D01*
X151060200Y-73600200D01*
X152939800Y-73600200D01*
X152939800Y-75479800D01*
X152939800Y-75479800D01*
G37*
G36*
X107939800Y-75479800D02*
X106060200Y-75479800D01*
X106060200Y-73600200D01*
X107939800Y-73600200D01*
X107939800Y-75479800D01*
X107939800Y-75479800D01*
G37*
G36*
X128682889Y-73397095D02*
X128796996Y-73444359D01*
X128899692Y-73512979D01*
X128987021Y-73600308D01*
X129055641Y-73703004D01*
X129102905Y-73817111D01*
X129127000Y-73938244D01*
X129127000Y-74061756D01*
X129102905Y-74182889D01*
X129055641Y-74296996D01*
X128987021Y-74399692D01*
X128899692Y-74487021D01*
X128796996Y-74555641D01*
X128682889Y-74602905D01*
X128561756Y-74627000D01*
X128438244Y-74627000D01*
X128317111Y-74602905D01*
X128203004Y-74555641D01*
X128100308Y-74487021D01*
X128012979Y-74399692D01*
X127944359Y-74296996D01*
X127897095Y-74182889D01*
X127873000Y-74061756D01*
X127873000Y-73938244D01*
X127897095Y-73817111D01*
X127944359Y-73703004D01*
X128012979Y-73600308D01*
X128100308Y-73512979D01*
X128203004Y-73444359D01*
X128317111Y-73397095D01*
X128438244Y-73373000D01*
X128561756Y-73373000D01*
X128682889Y-73397095D01*
X128682889Y-73397095D01*
G37*
G36*
X107183346Y-71078258D02*
X107274129Y-71096316D01*
X107445162Y-71167160D01*
X107597009Y-71268621D01*
X107599090Y-71270012D01*
X107729988Y-71400910D01*
X107729990Y-71400913D01*
X107832840Y-71554838D01*
X107903684Y-71725871D01*
X107939800Y-71907438D01*
X107939800Y-72092562D01*
X107903684Y-72274129D01*
X107832840Y-72445162D01*
X107832839Y-72445163D01*
X107729988Y-72599090D01*
X107599090Y-72729988D01*
X107599087Y-72729990D01*
X107445162Y-72832840D01*
X107274129Y-72903684D01*
X107183346Y-72921742D01*
X107092564Y-72939800D01*
X106907436Y-72939800D01*
X106816654Y-72921742D01*
X106725871Y-72903684D01*
X106554838Y-72832840D01*
X106400913Y-72729990D01*
X106400910Y-72729988D01*
X106270012Y-72599090D01*
X106167161Y-72445163D01*
X106167160Y-72445162D01*
X106096316Y-72274129D01*
X106060200Y-72092562D01*
X106060200Y-71907438D01*
X106096316Y-71725871D01*
X106167160Y-71554838D01*
X106270010Y-71400913D01*
X106270012Y-71400910D01*
X106400910Y-71270012D01*
X106402991Y-71268621D01*
X106554838Y-71167160D01*
X106725871Y-71096316D01*
X106816654Y-71078258D01*
X106907436Y-71060200D01*
X107092564Y-71060200D01*
X107183346Y-71078258D01*
X107183346Y-71078258D01*
G37*
G36*
X152183346Y-71078258D02*
X152274129Y-71096316D01*
X152445162Y-71167160D01*
X152597009Y-71268621D01*
X152599090Y-71270012D01*
X152729988Y-71400910D01*
X152729990Y-71400913D01*
X152832840Y-71554838D01*
X152903684Y-71725871D01*
X152939800Y-71907438D01*
X152939800Y-72092562D01*
X152903684Y-72274129D01*
X152832840Y-72445162D01*
X152832839Y-72445163D01*
X152729988Y-72599090D01*
X152599090Y-72729988D01*
X152599087Y-72729990D01*
X152445162Y-72832840D01*
X152274129Y-72903684D01*
X152183346Y-72921742D01*
X152092564Y-72939800D01*
X151907436Y-72939800D01*
X151816654Y-72921742D01*
X151725871Y-72903684D01*
X151554838Y-72832840D01*
X151400913Y-72729990D01*
X151400910Y-72729988D01*
X151270012Y-72599090D01*
X151167161Y-72445163D01*
X151167160Y-72445162D01*
X151096316Y-72274129D01*
X151060200Y-72092562D01*
X151060200Y-71907438D01*
X151096316Y-71725871D01*
X151167160Y-71554838D01*
X151270010Y-71400913D01*
X151270012Y-71400910D01*
X151400910Y-71270012D01*
X151402991Y-71268621D01*
X151554838Y-71167160D01*
X151725871Y-71096316D01*
X151816654Y-71078258D01*
X151907436Y-71060200D01*
X152092564Y-71060200D01*
X152183346Y-71078258D01*
X152183346Y-71078258D01*
G37*
G36*
X184698947Y-70857468D02*
X184879224Y-70932141D01*
X185041474Y-71040553D01*
X185179447Y-71178526D01*
X185287859Y-71340776D01*
X185362532Y-71521053D01*
X185400600Y-71712433D01*
X185400600Y-71907567D01*
X185362532Y-72098947D01*
X185287859Y-72279224D01*
X185179447Y-72441474D01*
X185041474Y-72579447D01*
X184879224Y-72687859D01*
X184698947Y-72762532D01*
X184507567Y-72800600D01*
X184312433Y-72800600D01*
X184121053Y-72762532D01*
X183940776Y-72687859D01*
X183778526Y-72579447D01*
X183640553Y-72441474D01*
X183532141Y-72279224D01*
X183457468Y-72098947D01*
X183419400Y-71907567D01*
X183419400Y-71712433D01*
X183457468Y-71521053D01*
X183532141Y-71340776D01*
X183640553Y-71178526D01*
X183778526Y-71040553D01*
X183940776Y-70932141D01*
X184121053Y-70857468D01*
X184312433Y-70819400D01*
X184507567Y-70819400D01*
X184698947Y-70857468D01*
X184698947Y-70857468D01*
G37*
G36*
X182158947Y-70857468D02*
X182339224Y-70932141D01*
X182501474Y-71040553D01*
X182639447Y-71178526D01*
X182747859Y-71340776D01*
X182822532Y-71521053D01*
X182860600Y-71712433D01*
X182860600Y-71907567D01*
X182822532Y-72098947D01*
X182747859Y-72279224D01*
X182639447Y-72441474D01*
X182501474Y-72579447D01*
X182339224Y-72687859D01*
X182158947Y-72762532D01*
X181967567Y-72800600D01*
X181772433Y-72800600D01*
X181581053Y-72762532D01*
X181400776Y-72687859D01*
X181238526Y-72579447D01*
X181100553Y-72441474D01*
X180992141Y-72279224D01*
X180917468Y-72098947D01*
X180879400Y-71907567D01*
X180879400Y-71712433D01*
X180917468Y-71521053D01*
X180992141Y-71340776D01*
X181100553Y-71178526D01*
X181238526Y-71040553D01*
X181400776Y-70932141D01*
X181581053Y-70857468D01*
X181772433Y-70819400D01*
X181967567Y-70819400D01*
X182158947Y-70857468D01*
X182158947Y-70857468D01*
G37*
G36*
X179618947Y-70857468D02*
X179799224Y-70932141D01*
X179961474Y-71040553D01*
X180099447Y-71178526D01*
X180207859Y-71340776D01*
X180282532Y-71521053D01*
X180320600Y-71712433D01*
X180320600Y-71907567D01*
X180282532Y-72098947D01*
X180207859Y-72279224D01*
X180099447Y-72441474D01*
X179961474Y-72579447D01*
X179799224Y-72687859D01*
X179618947Y-72762532D01*
X179427567Y-72800600D01*
X179232433Y-72800600D01*
X179041053Y-72762532D01*
X178860776Y-72687859D01*
X178698526Y-72579447D01*
X178560553Y-72441474D01*
X178452141Y-72279224D01*
X178377468Y-72098947D01*
X178339400Y-71907567D01*
X178339400Y-71712433D01*
X178377468Y-71521053D01*
X178452141Y-71340776D01*
X178560553Y-71178526D01*
X178698526Y-71040553D01*
X178860776Y-70932141D01*
X179041053Y-70857468D01*
X179232433Y-70819400D01*
X179427567Y-70819400D01*
X179618947Y-70857468D01*
X179618947Y-70857468D01*
G37*
G36*
X138497142Y-70138242D02*
X138645102Y-70199530D01*
X138712130Y-70244317D01*
X138760880Y-70276890D01*
X138778258Y-70288502D01*
X138891498Y-70401742D01*
X138980470Y-70534898D01*
X139041758Y-70682858D01*
X139073000Y-70839925D01*
X139073000Y-71000075D01*
X139041758Y-71157142D01*
X139032900Y-71178526D01*
X138980471Y-71305100D01*
X138891499Y-71438257D01*
X138778257Y-71551499D01*
X138733908Y-71581132D01*
X138645102Y-71640470D01*
X138497142Y-71701758D01*
X138340075Y-71733000D01*
X138179925Y-71733000D01*
X138022858Y-71701758D01*
X137874898Y-71640470D01*
X137786092Y-71581132D01*
X137741743Y-71551499D01*
X137628501Y-71438257D01*
X137539529Y-71305100D01*
X137487100Y-71178526D01*
X137478242Y-71157142D01*
X137447000Y-71000075D01*
X137447000Y-70839925D01*
X137478242Y-70682858D01*
X137539530Y-70534898D01*
X137628502Y-70401742D01*
X137741742Y-70288502D01*
X137759121Y-70276890D01*
X137807870Y-70244317D01*
X137874898Y-70199530D01*
X138022858Y-70138242D01*
X138179925Y-70107000D01*
X138340075Y-70107000D01*
X138497142Y-70138242D01*
X138497142Y-70138242D01*
G37*
G36*
X121293000Y-71733000D02*
X119667000Y-71733000D01*
X119667000Y-70107000D01*
X121293000Y-70107000D01*
X121293000Y-71733000D01*
X121293000Y-71733000D01*
G37*
G36*
X123257142Y-70138242D02*
X123405102Y-70199530D01*
X123472130Y-70244317D01*
X123520880Y-70276890D01*
X123538258Y-70288502D01*
X123651498Y-70401742D01*
X123740470Y-70534898D01*
X123801758Y-70682858D01*
X123833000Y-70839925D01*
X123833000Y-71000075D01*
X123801758Y-71157142D01*
X123792900Y-71178526D01*
X123740471Y-71305100D01*
X123651499Y-71438257D01*
X123538257Y-71551499D01*
X123493908Y-71581132D01*
X123405102Y-71640470D01*
X123257142Y-71701758D01*
X123100075Y-71733000D01*
X122939925Y-71733000D01*
X122782858Y-71701758D01*
X122634898Y-71640470D01*
X122546092Y-71581132D01*
X122501743Y-71551499D01*
X122388501Y-71438257D01*
X122299529Y-71305100D01*
X122247100Y-71178526D01*
X122238242Y-71157142D01*
X122207000Y-71000075D01*
X122207000Y-70839925D01*
X122238242Y-70682858D01*
X122299530Y-70534898D01*
X122388502Y-70401742D01*
X122501742Y-70288502D01*
X122519121Y-70276890D01*
X122567870Y-70244317D01*
X122634898Y-70199530D01*
X122782858Y-70138242D01*
X122939925Y-70107000D01*
X123100075Y-70107000D01*
X123257142Y-70138242D01*
X123257142Y-70138242D01*
G37*
G36*
X125797142Y-70138242D02*
X125945102Y-70199530D01*
X126012130Y-70244317D01*
X126060880Y-70276890D01*
X126078258Y-70288502D01*
X126191498Y-70401742D01*
X126280470Y-70534898D01*
X126341758Y-70682858D01*
X126373000Y-70839925D01*
X126373000Y-71000075D01*
X126341758Y-71157142D01*
X126332900Y-71178526D01*
X126280471Y-71305100D01*
X126191499Y-71438257D01*
X126078257Y-71551499D01*
X126033908Y-71581132D01*
X125945102Y-71640470D01*
X125797142Y-71701758D01*
X125640075Y-71733000D01*
X125479925Y-71733000D01*
X125322858Y-71701758D01*
X125174898Y-71640470D01*
X125086092Y-71581132D01*
X125041743Y-71551499D01*
X124928501Y-71438257D01*
X124839529Y-71305100D01*
X124787100Y-71178526D01*
X124778242Y-71157142D01*
X124747000Y-71000075D01*
X124747000Y-70839925D01*
X124778242Y-70682858D01*
X124839530Y-70534898D01*
X124928502Y-70401742D01*
X125041742Y-70288502D01*
X125059121Y-70276890D01*
X125107870Y-70244317D01*
X125174898Y-70199530D01*
X125322858Y-70138242D01*
X125479925Y-70107000D01*
X125640075Y-70107000D01*
X125797142Y-70138242D01*
X125797142Y-70138242D01*
G37*
G36*
X128337142Y-70138242D02*
X128485102Y-70199530D01*
X128552130Y-70244317D01*
X128600880Y-70276890D01*
X128618258Y-70288502D01*
X128731498Y-70401742D01*
X128820470Y-70534898D01*
X128881758Y-70682858D01*
X128913000Y-70839925D01*
X128913000Y-71000075D01*
X128881758Y-71157142D01*
X128872900Y-71178526D01*
X128820471Y-71305100D01*
X128731499Y-71438257D01*
X128618257Y-71551499D01*
X128573908Y-71581132D01*
X128485102Y-71640470D01*
X128337142Y-71701758D01*
X128180075Y-71733000D01*
X128019925Y-71733000D01*
X127862858Y-71701758D01*
X127714898Y-71640470D01*
X127626092Y-71581132D01*
X127581743Y-71551499D01*
X127468501Y-71438257D01*
X127379529Y-71305100D01*
X127327100Y-71178526D01*
X127318242Y-71157142D01*
X127287000Y-71000075D01*
X127287000Y-70839925D01*
X127318242Y-70682858D01*
X127379530Y-70534898D01*
X127468502Y-70401742D01*
X127581742Y-70288502D01*
X127599121Y-70276890D01*
X127647870Y-70244317D01*
X127714898Y-70199530D01*
X127862858Y-70138242D01*
X128019925Y-70107000D01*
X128180075Y-70107000D01*
X128337142Y-70138242D01*
X128337142Y-70138242D01*
G37*
G36*
X130877142Y-70138242D02*
X131025102Y-70199530D01*
X131092130Y-70244317D01*
X131140880Y-70276890D01*
X131158258Y-70288502D01*
X131271498Y-70401742D01*
X131360470Y-70534898D01*
X131421758Y-70682858D01*
X131453000Y-70839925D01*
X131453000Y-71000075D01*
X131421758Y-71157142D01*
X131412900Y-71178526D01*
X131360471Y-71305100D01*
X131271499Y-71438257D01*
X131158257Y-71551499D01*
X131113908Y-71581132D01*
X131025102Y-71640470D01*
X130877142Y-71701758D01*
X130720075Y-71733000D01*
X130559925Y-71733000D01*
X130402858Y-71701758D01*
X130254898Y-71640470D01*
X130166092Y-71581132D01*
X130121743Y-71551499D01*
X130008501Y-71438257D01*
X129919529Y-71305100D01*
X129867100Y-71178526D01*
X129858242Y-71157142D01*
X129827000Y-71000075D01*
X129827000Y-70839925D01*
X129858242Y-70682858D01*
X129919530Y-70534898D01*
X130008502Y-70401742D01*
X130121742Y-70288502D01*
X130139121Y-70276890D01*
X130187870Y-70244317D01*
X130254898Y-70199530D01*
X130402858Y-70138242D01*
X130559925Y-70107000D01*
X130720075Y-70107000D01*
X130877142Y-70138242D01*
X130877142Y-70138242D01*
G37*
G36*
X133417142Y-70138242D02*
X133565102Y-70199530D01*
X133632130Y-70244317D01*
X133680880Y-70276890D01*
X133698258Y-70288502D01*
X133811498Y-70401742D01*
X133900470Y-70534898D01*
X133961758Y-70682858D01*
X133993000Y-70839925D01*
X133993000Y-71000075D01*
X133961758Y-71157142D01*
X133952900Y-71178526D01*
X133900471Y-71305100D01*
X133811499Y-71438257D01*
X133698257Y-71551499D01*
X133653908Y-71581132D01*
X133565102Y-71640470D01*
X133417142Y-71701758D01*
X133260075Y-71733000D01*
X133099925Y-71733000D01*
X132942858Y-71701758D01*
X132794898Y-71640470D01*
X132706092Y-71581132D01*
X132661743Y-71551499D01*
X132548501Y-71438257D01*
X132459529Y-71305100D01*
X132407100Y-71178526D01*
X132398242Y-71157142D01*
X132367000Y-71000075D01*
X132367000Y-70839925D01*
X132398242Y-70682858D01*
X132459530Y-70534898D01*
X132548502Y-70401742D01*
X132661742Y-70288502D01*
X132679121Y-70276890D01*
X132727870Y-70244317D01*
X132794898Y-70199530D01*
X132942858Y-70138242D01*
X133099925Y-70107000D01*
X133260075Y-70107000D01*
X133417142Y-70138242D01*
X133417142Y-70138242D01*
G37*
G36*
X135957142Y-70138242D02*
X136105102Y-70199530D01*
X136172130Y-70244317D01*
X136220880Y-70276890D01*
X136238258Y-70288502D01*
X136351498Y-70401742D01*
X136440470Y-70534898D01*
X136501758Y-70682858D01*
X136533000Y-70839925D01*
X136533000Y-71000075D01*
X136501758Y-71157142D01*
X136492900Y-71178526D01*
X136440471Y-71305100D01*
X136351499Y-71438257D01*
X136238257Y-71551499D01*
X136193908Y-71581132D01*
X136105102Y-71640470D01*
X135957142Y-71701758D01*
X135800075Y-71733000D01*
X135639925Y-71733000D01*
X135482858Y-71701758D01*
X135334898Y-71640470D01*
X135246092Y-71581132D01*
X135201743Y-71551499D01*
X135088501Y-71438257D01*
X134999529Y-71305100D01*
X134947100Y-71178526D01*
X134938242Y-71157142D01*
X134907000Y-71000075D01*
X134907000Y-70839925D01*
X134938242Y-70682858D01*
X134999530Y-70534898D01*
X135088502Y-70401742D01*
X135201742Y-70288502D01*
X135219121Y-70276890D01*
X135267870Y-70244317D01*
X135334898Y-70199530D01*
X135482858Y-70138242D01*
X135639925Y-70107000D01*
X135800075Y-70107000D01*
X135957142Y-70138242D01*
X135957142Y-70138242D01*
G37*
G36*
X107183345Y-68538258D02*
X107274129Y-68556316D01*
X107445162Y-68627160D01*
X107445163Y-68627161D01*
X107599090Y-68730012D01*
X107729988Y-68860910D01*
X107729990Y-68860913D01*
X107832840Y-69014838D01*
X107903684Y-69185871D01*
X107921742Y-69276654D01*
X107939800Y-69367436D01*
X107939800Y-69552564D01*
X107923126Y-69636390D01*
X107903684Y-69734129D01*
X107832840Y-69905162D01*
X107731379Y-70057009D01*
X107729988Y-70059090D01*
X107599090Y-70189988D01*
X107599087Y-70189990D01*
X107445162Y-70292840D01*
X107274129Y-70363684D01*
X107183346Y-70381742D01*
X107092564Y-70399800D01*
X106907436Y-70399800D01*
X106816654Y-70381742D01*
X106725871Y-70363684D01*
X106554838Y-70292840D01*
X106400913Y-70189990D01*
X106400910Y-70189988D01*
X106270012Y-70059090D01*
X106268621Y-70057009D01*
X106167160Y-69905162D01*
X106096316Y-69734129D01*
X106076874Y-69636390D01*
X106060200Y-69552564D01*
X106060200Y-69367436D01*
X106078258Y-69276654D01*
X106096316Y-69185871D01*
X106167160Y-69014838D01*
X106270010Y-68860913D01*
X106270012Y-68860910D01*
X106400910Y-68730012D01*
X106554837Y-68627161D01*
X106554838Y-68627160D01*
X106725871Y-68556316D01*
X106816655Y-68538258D01*
X106907436Y-68520200D01*
X107092564Y-68520200D01*
X107183345Y-68538258D01*
X107183345Y-68538258D01*
G37*
G36*
X152183345Y-68538258D02*
X152274129Y-68556316D01*
X152445162Y-68627160D01*
X152445163Y-68627161D01*
X152599090Y-68730012D01*
X152729988Y-68860910D01*
X152729990Y-68860913D01*
X152832840Y-69014838D01*
X152903684Y-69185871D01*
X152921742Y-69276654D01*
X152939800Y-69367436D01*
X152939800Y-69552564D01*
X152923126Y-69636390D01*
X152903684Y-69734129D01*
X152832840Y-69905162D01*
X152731379Y-70057009D01*
X152729988Y-70059090D01*
X152599090Y-70189988D01*
X152599087Y-70189990D01*
X152445162Y-70292840D01*
X152274129Y-70363684D01*
X152183346Y-70381742D01*
X152092564Y-70399800D01*
X151907436Y-70399800D01*
X151816654Y-70381742D01*
X151725871Y-70363684D01*
X151554838Y-70292840D01*
X151400913Y-70189990D01*
X151400910Y-70189988D01*
X151270012Y-70059090D01*
X151268621Y-70057009D01*
X151167160Y-69905162D01*
X151096316Y-69734129D01*
X151076874Y-69636390D01*
X151060200Y-69552564D01*
X151060200Y-69367436D01*
X151078258Y-69276654D01*
X151096316Y-69185871D01*
X151167160Y-69014838D01*
X151270010Y-68860913D01*
X151270012Y-68860910D01*
X151400910Y-68730012D01*
X151554837Y-68627161D01*
X151554838Y-68627160D01*
X151725871Y-68556316D01*
X151816655Y-68538258D01*
X151907436Y-68520200D01*
X152092564Y-68520200D01*
X152183345Y-68538258D01*
X152183345Y-68538258D01*
G37*
G36*
X174422800Y-66953401D02*
X174650081Y-66998609D01*
X174899696Y-67102003D01*
X175124344Y-67252108D01*
X175315392Y-67443156D01*
X175465497Y-67667804D01*
X175568891Y-67917419D01*
X175621600Y-68182409D01*
X175621600Y-68452591D01*
X175568891Y-68717581D01*
X175465497Y-68967196D01*
X175315392Y-69191844D01*
X175124344Y-69382892D01*
X174899696Y-69532997D01*
X174650081Y-69636391D01*
X174422800Y-69681599D01*
X174385092Y-69689100D01*
X174114908Y-69689100D01*
X174077200Y-69681599D01*
X173849919Y-69636391D01*
X173600304Y-69532997D01*
X173375656Y-69382892D01*
X173184608Y-69191844D01*
X173034503Y-68967196D01*
X172931109Y-68717581D01*
X172878400Y-68452591D01*
X172878400Y-68182409D01*
X172931109Y-67917419D01*
X173034503Y-67667804D01*
X173184608Y-67443156D01*
X173375656Y-67252108D01*
X173600304Y-67102003D01*
X173849919Y-66998609D01*
X174077200Y-66953401D01*
X174114908Y-66945900D01*
X174385092Y-66945900D01*
X174422800Y-66953401D01*
X174422800Y-66953401D01*
G37*
G36*
X189662800Y-66953401D02*
X189890081Y-66998609D01*
X190139696Y-67102003D01*
X190364344Y-67252108D01*
X190555392Y-67443156D01*
X190705497Y-67667804D01*
X190808891Y-67917419D01*
X190861600Y-68182409D01*
X190861600Y-68452591D01*
X190808891Y-68717581D01*
X190705497Y-68967196D01*
X190555392Y-69191844D01*
X190364344Y-69382892D01*
X190139696Y-69532997D01*
X189890081Y-69636391D01*
X189662800Y-69681599D01*
X189625092Y-69689100D01*
X189354908Y-69689100D01*
X189317200Y-69681599D01*
X189089919Y-69636391D01*
X188840304Y-69532997D01*
X188615656Y-69382892D01*
X188424608Y-69191844D01*
X188274503Y-68967196D01*
X188171109Y-68717581D01*
X188118400Y-68452591D01*
X188118400Y-68182409D01*
X188171109Y-67917419D01*
X188274503Y-67667804D01*
X188424608Y-67443156D01*
X188615656Y-67252108D01*
X188840304Y-67102003D01*
X189089919Y-66998609D01*
X189317200Y-66953401D01*
X189354908Y-66945900D01*
X189625092Y-66945900D01*
X189662800Y-66953401D01*
X189662800Y-66953401D01*
G37*
G36*
X171998947Y-63237468D02*
X172179224Y-63312141D01*
X172341474Y-63420553D01*
X172479447Y-63558526D01*
X172587859Y-63720776D01*
X172662532Y-63901053D01*
X172700600Y-64092433D01*
X172700600Y-64287567D01*
X172662532Y-64478947D01*
X172587859Y-64659224D01*
X172479447Y-64821474D01*
X172341474Y-64959447D01*
X172179224Y-65067859D01*
X171998947Y-65142532D01*
X171807567Y-65180600D01*
X171612433Y-65180600D01*
X171421053Y-65142532D01*
X171240776Y-65067859D01*
X171078526Y-64959447D01*
X170940553Y-64821474D01*
X170832141Y-64659224D01*
X170757468Y-64478947D01*
X170719400Y-64287567D01*
X170719400Y-64092433D01*
X170757468Y-63901053D01*
X170832141Y-63720776D01*
X170940553Y-63558526D01*
X171078526Y-63420553D01*
X171240776Y-63312141D01*
X171421053Y-63237468D01*
X171612433Y-63199400D01*
X171807567Y-63199400D01*
X171998947Y-63237468D01*
X171998947Y-63237468D01*
G37*
G36*
X51856366Y-63392169D02*
X49554766Y-63392169D01*
X49554766Y-62690569D01*
X51856366Y-62690569D01*
X51856366Y-63392169D01*
X51856366Y-63392169D01*
G37*
G36*
X57056366Y-63392169D02*
X54754766Y-63392169D01*
X54754766Y-62690569D01*
X57056366Y-62690569D01*
X57056366Y-63392169D01*
X57056366Y-63392169D01*
G37*
G36*
X171998947Y-60697468D02*
X172179224Y-60772141D01*
X172341474Y-60880553D01*
X172479447Y-61018526D01*
X172587859Y-61180776D01*
X172662532Y-61361053D01*
X172700600Y-61552433D01*
X172700600Y-61747567D01*
X172662532Y-61938947D01*
X172587859Y-62119224D01*
X172479447Y-62281474D01*
X172341474Y-62419447D01*
X172179224Y-62527859D01*
X171998947Y-62602532D01*
X171807567Y-62640600D01*
X171612433Y-62640600D01*
X171421053Y-62602532D01*
X171240776Y-62527859D01*
X171078526Y-62419447D01*
X170940553Y-62281474D01*
X170832141Y-62119224D01*
X170757468Y-61938947D01*
X170719400Y-61747567D01*
X170719400Y-61552433D01*
X170757468Y-61361053D01*
X170832141Y-61180776D01*
X170940553Y-61018526D01*
X171078526Y-60880553D01*
X171240776Y-60772141D01*
X171421053Y-60697468D01*
X171612433Y-60659400D01*
X171807567Y-60659400D01*
X171998947Y-60697468D01*
X171998947Y-60697468D01*
G37*
G36*
X51856366Y-62122169D02*
X49554766Y-62122169D01*
X49554766Y-61420569D01*
X51856366Y-61420569D01*
X51856366Y-62122169D01*
X51856366Y-62122169D01*
G37*
G36*
X57056366Y-62122169D02*
X54754766Y-62122169D01*
X54754766Y-61420569D01*
X57056366Y-61420569D01*
X57056366Y-62122169D01*
X57056366Y-62122169D01*
G37*
G36*
X57056366Y-60852169D02*
X54754766Y-60852169D01*
X54754766Y-60150569D01*
X57056366Y-60150569D01*
X57056366Y-60852169D01*
X57056366Y-60852169D01*
G37*
G36*
X51856366Y-60852169D02*
X49554766Y-60852169D01*
X49554766Y-60150569D01*
X51856366Y-60150569D01*
X51856366Y-60852169D01*
X51856366Y-60852169D01*
G37*
G36*
X189182889Y-59397095D02*
X189296996Y-59444359D01*
X189399692Y-59512979D01*
X189487021Y-59600308D01*
X189555641Y-59703004D01*
X189602905Y-59817111D01*
X189627000Y-59938244D01*
X189627000Y-60061756D01*
X189602905Y-60182889D01*
X189555641Y-60296996D01*
X189487021Y-60399692D01*
X189399692Y-60487021D01*
X189296996Y-60555641D01*
X189182889Y-60602905D01*
X189061756Y-60627000D01*
X188938244Y-60627000D01*
X188817111Y-60602905D01*
X188703004Y-60555641D01*
X188600308Y-60487021D01*
X188512979Y-60399692D01*
X188444359Y-60296996D01*
X188397095Y-60182889D01*
X188373000Y-60061756D01*
X188373000Y-59938244D01*
X188397095Y-59817111D01*
X188444359Y-59703004D01*
X188512979Y-59600308D01*
X188600308Y-59512979D01*
X188703004Y-59444359D01*
X188817111Y-59397095D01*
X188938244Y-59373000D01*
X189061756Y-59373000D01*
X189182889Y-59397095D01*
X189182889Y-59397095D01*
G37*
G36*
X72897142Y-58613242D02*
X73045102Y-58674530D01*
X73112130Y-58719317D01*
X73178257Y-58763501D01*
X73291499Y-58876743D01*
X73380471Y-59009900D01*
X73394354Y-59043417D01*
X73441758Y-59157858D01*
X73473000Y-59314925D01*
X73473000Y-59475075D01*
X73441758Y-59632142D01*
X73396472Y-59741471D01*
X73380471Y-59780100D01*
X73314089Y-59879449D01*
X73291498Y-59913258D01*
X73178258Y-60026498D01*
X73045102Y-60115470D01*
X72897142Y-60176758D01*
X72740075Y-60208000D01*
X72579925Y-60208000D01*
X72422858Y-60176758D01*
X72274898Y-60115470D01*
X72141742Y-60026498D01*
X72028502Y-59913258D01*
X72005912Y-59879449D01*
X71939529Y-59780100D01*
X71923528Y-59741471D01*
X71878242Y-59632142D01*
X71847000Y-59475075D01*
X71847000Y-59314925D01*
X71878242Y-59157858D01*
X71925646Y-59043417D01*
X71939529Y-59009900D01*
X72028501Y-58876743D01*
X72141743Y-58763501D01*
X72207870Y-58719317D01*
X72274898Y-58674530D01*
X72422858Y-58613242D01*
X72579925Y-58582000D01*
X72740075Y-58582000D01*
X72897142Y-58613242D01*
X72897142Y-58613242D01*
G37*
G36*
X75437142Y-58613242D02*
X75585102Y-58674530D01*
X75652130Y-58719317D01*
X75718257Y-58763501D01*
X75831499Y-58876743D01*
X75920471Y-59009900D01*
X75934354Y-59043417D01*
X75981758Y-59157858D01*
X76013000Y-59314925D01*
X76013000Y-59475075D01*
X75981758Y-59632142D01*
X75936472Y-59741471D01*
X75920471Y-59780100D01*
X75854089Y-59879449D01*
X75831498Y-59913258D01*
X75718258Y-60026498D01*
X75585102Y-60115470D01*
X75437142Y-60176758D01*
X75280075Y-60208000D01*
X75119925Y-60208000D01*
X74962858Y-60176758D01*
X74814898Y-60115470D01*
X74681742Y-60026498D01*
X74568502Y-59913258D01*
X74545912Y-59879449D01*
X74479529Y-59780100D01*
X74463528Y-59741471D01*
X74418242Y-59632142D01*
X74387000Y-59475075D01*
X74387000Y-59314925D01*
X74418242Y-59157858D01*
X74465646Y-59043417D01*
X74479529Y-59009900D01*
X74568501Y-58876743D01*
X74681743Y-58763501D01*
X74747870Y-58719317D01*
X74814898Y-58674530D01*
X74962858Y-58613242D01*
X75119925Y-58582000D01*
X75280075Y-58582000D01*
X75437142Y-58613242D01*
X75437142Y-58613242D01*
G37*
G36*
X171998947Y-58157468D02*
X172179224Y-58232141D01*
X172341474Y-58340553D01*
X172479447Y-58478526D01*
X172587859Y-58640776D01*
X172662532Y-58821053D01*
X172700600Y-59012433D01*
X172700600Y-59207567D01*
X172662532Y-59398947D01*
X172587859Y-59579224D01*
X172479447Y-59741474D01*
X172341474Y-59879447D01*
X172179224Y-59987859D01*
X171998947Y-60062532D01*
X171807567Y-60100600D01*
X171612433Y-60100600D01*
X171421053Y-60062532D01*
X171240776Y-59987859D01*
X171078526Y-59879447D01*
X170940553Y-59741474D01*
X170832141Y-59579224D01*
X170757468Y-59398947D01*
X170719400Y-59207567D01*
X170719400Y-59012433D01*
X170757468Y-58821053D01*
X170832141Y-58640776D01*
X170940553Y-58478526D01*
X171078526Y-58340553D01*
X171240776Y-58232141D01*
X171421053Y-58157468D01*
X171612433Y-58119400D01*
X171807567Y-58119400D01*
X171998947Y-58157468D01*
X171998947Y-58157468D01*
G37*
G36*
X51856366Y-59582169D02*
X49554766Y-59582169D01*
X49554766Y-58880569D01*
X51856366Y-58880569D01*
X51856366Y-59582169D01*
X51856366Y-59582169D01*
G37*
G36*
X57056366Y-59582169D02*
X54754766Y-59582169D01*
X54754766Y-58880569D01*
X57056366Y-58880569D01*
X57056366Y-59582169D01*
X57056366Y-59582169D01*
G37*
G36*
X189662800Y-53618401D02*
X189890081Y-53663609D01*
X190139696Y-53767003D01*
X190364344Y-53917108D01*
X190555392Y-54108156D01*
X190705497Y-54332804D01*
X190808891Y-54582419D01*
X190861600Y-54847409D01*
X190861600Y-55117591D01*
X190808891Y-55382581D01*
X190705497Y-55632196D01*
X190555392Y-55856844D01*
X190364344Y-56047892D01*
X190139696Y-56197997D01*
X189890081Y-56301391D01*
X189662800Y-56346599D01*
X189625092Y-56354100D01*
X189354908Y-56354100D01*
X189317200Y-56346599D01*
X189089919Y-56301391D01*
X188840304Y-56197997D01*
X188615656Y-56047892D01*
X188424608Y-55856844D01*
X188274503Y-55632196D01*
X188171109Y-55382581D01*
X188118400Y-55117591D01*
X188118400Y-54847409D01*
X188171109Y-54582419D01*
X188274503Y-54332804D01*
X188424608Y-54108156D01*
X188615656Y-53917108D01*
X188840304Y-53767003D01*
X189089919Y-53663609D01*
X189317200Y-53618401D01*
X189354908Y-53610900D01*
X189625092Y-53610900D01*
X189662800Y-53618401D01*
X189662800Y-53618401D01*
G37*
G36*
X174422800Y-53618401D02*
X174650081Y-53663609D01*
X174899696Y-53767003D01*
X175124344Y-53917108D01*
X175315392Y-54108156D01*
X175465497Y-54332804D01*
X175568891Y-54582419D01*
X175621600Y-54847409D01*
X175621600Y-55117591D01*
X175568891Y-55382581D01*
X175465497Y-55632196D01*
X175315392Y-55856844D01*
X175124344Y-56047892D01*
X174899696Y-56197997D01*
X174650081Y-56301391D01*
X174422800Y-56346599D01*
X174385092Y-56354100D01*
X174114908Y-56354100D01*
X174077200Y-56346599D01*
X173849919Y-56301391D01*
X173600304Y-56197997D01*
X173375656Y-56047892D01*
X173184608Y-55856844D01*
X173034503Y-55632196D01*
X172931109Y-55382581D01*
X172878400Y-55117591D01*
X172878400Y-54847409D01*
X172931109Y-54582419D01*
X173034503Y-54332804D01*
X173184608Y-54108156D01*
X173375656Y-53917108D01*
X173600304Y-53767003D01*
X173849919Y-53663609D01*
X174077200Y-53618401D01*
X174114908Y-53610900D01*
X174385092Y-53610900D01*
X174422800Y-53618401D01*
X174422800Y-53618401D01*
G37*
G36*
X153933696Y-49922012D02*
X154516241Y-50163310D01*
X155040521Y-50513623D01*
X155486377Y-50959479D01*
X155836690Y-51483759D01*
X156077988Y-52066304D01*
X156201000Y-52684728D01*
X156201000Y-53315272D01*
X156077988Y-53933696D01*
X155836690Y-54516241D01*
X155486377Y-55040521D01*
X155040521Y-55486377D01*
X154516241Y-55836690D01*
X153933696Y-56077988D01*
X153315272Y-56201000D01*
X152684728Y-56201000D01*
X152066304Y-56077988D01*
X151483759Y-55836690D01*
X150959479Y-55486377D01*
X150513623Y-55040521D01*
X150163310Y-54516241D01*
X149922012Y-53933696D01*
X149799000Y-53315272D01*
X149799000Y-52684728D01*
X149922012Y-52066304D01*
X150163310Y-51483759D01*
X150513623Y-50959479D01*
X150959479Y-50513623D01*
X151483759Y-50163310D01*
X152066304Y-49922012D01*
X152684728Y-49799000D01*
X153315272Y-49799000D01*
X153933696Y-49922012D01*
X153933696Y-49922012D01*
G37*
G36*
X106933696Y-49922012D02*
X107516241Y-50163310D01*
X108040521Y-50513623D01*
X108486377Y-50959479D01*
X108836690Y-51483759D01*
X109077988Y-52066304D01*
X109201000Y-52684728D01*
X109201000Y-53315272D01*
X109077988Y-53933696D01*
X108836690Y-54516241D01*
X108486377Y-55040521D01*
X108040521Y-55486377D01*
X107516241Y-55836690D01*
X106933696Y-56077988D01*
X106315272Y-56201000D01*
X105684728Y-56201000D01*
X105066304Y-56077988D01*
X104483759Y-55836690D01*
X103959479Y-55486377D01*
X103513623Y-55040521D01*
X103163310Y-54516241D01*
X102922012Y-53933696D01*
X102799000Y-53315272D01*
X102799000Y-52684728D01*
X102922012Y-52066304D01*
X103163310Y-51483759D01*
X103513623Y-50959479D01*
X103959479Y-50513623D01*
X104483759Y-50163310D01*
X105066304Y-49922012D01*
X105684728Y-49799000D01*
X106315272Y-49799000D01*
X106933696Y-49922012D01*
X106933696Y-49922012D01*
G37*
G36*
X186128192Y-52672733D02*
X186314920Y-52729377D01*
X186487011Y-52821361D01*
X186637849Y-52945151D01*
X186761639Y-53095989D01*
X186853623Y-53268080D01*
X186910267Y-53454808D01*
X186929393Y-53649000D01*
X186910267Y-53843192D01*
X186853623Y-54029920D01*
X186761639Y-54202011D01*
X186637849Y-54352849D01*
X186487011Y-54476639D01*
X186314920Y-54568623D01*
X186128192Y-54625267D01*
X185982665Y-54639600D01*
X184107335Y-54639600D01*
X183961808Y-54625267D01*
X183775080Y-54568623D01*
X183602989Y-54476639D01*
X183452151Y-54352849D01*
X183328361Y-54202011D01*
X183236377Y-54029920D01*
X183179733Y-53843192D01*
X183160607Y-53649000D01*
X183179733Y-53454808D01*
X183236377Y-53268080D01*
X183328361Y-53095989D01*
X183452151Y-52945151D01*
X183602989Y-52821361D01*
X183775080Y-52729377D01*
X183961808Y-52672733D01*
X184107335Y-52658400D01*
X185982665Y-52658400D01*
X186128192Y-52672733D01*
X186128192Y-52672733D01*
G37*
G36*
X179778192Y-52672733D02*
X179964920Y-52729377D01*
X180137011Y-52821361D01*
X180287849Y-52945151D01*
X180411639Y-53095989D01*
X180503623Y-53268080D01*
X180560267Y-53454808D01*
X180579393Y-53649000D01*
X180560267Y-53843192D01*
X180503623Y-54029920D01*
X180411639Y-54202011D01*
X180287849Y-54352849D01*
X180137011Y-54476639D01*
X179964920Y-54568623D01*
X179778192Y-54625267D01*
X179632665Y-54639600D01*
X177757335Y-54639600D01*
X177611808Y-54625267D01*
X177425080Y-54568623D01*
X177252989Y-54476639D01*
X177102151Y-54352849D01*
X176978361Y-54202011D01*
X176886377Y-54029920D01*
X176829733Y-53843192D01*
X176810607Y-53649000D01*
X176829733Y-53454808D01*
X176886377Y-53268080D01*
X176978361Y-53095989D01*
X177102151Y-52945151D01*
X177252989Y-52821361D01*
X177425080Y-52729377D01*
X177611808Y-52672733D01*
X177757335Y-52658400D01*
X179632665Y-52658400D01*
X179778192Y-52672733D01*
X179778192Y-52672733D01*
G37*
G36*
X186128192Y-48172733D02*
X186314920Y-48229377D01*
X186487011Y-48321361D01*
X186637849Y-48445151D01*
X186761639Y-48595989D01*
X186853623Y-48768080D01*
X186910267Y-48954808D01*
X186929393Y-49149000D01*
X186910267Y-49343192D01*
X186853623Y-49529920D01*
X186761639Y-49702011D01*
X186637849Y-49852849D01*
X186487011Y-49976639D01*
X186314920Y-50068623D01*
X186128192Y-50125267D01*
X185982665Y-50139600D01*
X184107335Y-50139600D01*
X183961808Y-50125267D01*
X183775080Y-50068623D01*
X183602989Y-49976639D01*
X183452151Y-49852849D01*
X183328361Y-49702011D01*
X183236377Y-49529920D01*
X183179733Y-49343192D01*
X183160607Y-49149000D01*
X183179733Y-48954808D01*
X183236377Y-48768080D01*
X183328361Y-48595989D01*
X183452151Y-48445151D01*
X183602989Y-48321361D01*
X183775080Y-48229377D01*
X183961808Y-48172733D01*
X184107335Y-48158400D01*
X185982665Y-48158400D01*
X186128192Y-48172733D01*
X186128192Y-48172733D01*
G37*
G36*
X179778192Y-48172733D02*
X179964920Y-48229377D01*
X180137011Y-48321361D01*
X180287849Y-48445151D01*
X180411639Y-48595989D01*
X180503623Y-48768080D01*
X180560267Y-48954808D01*
X180579393Y-49149000D01*
X180560267Y-49343192D01*
X180503623Y-49529920D01*
X180411639Y-49702011D01*
X180287849Y-49852849D01*
X180137011Y-49976639D01*
X179964920Y-50068623D01*
X179778192Y-50125267D01*
X179632665Y-50139600D01*
X177757335Y-50139600D01*
X177611808Y-50125267D01*
X177425080Y-50068623D01*
X177252989Y-49976639D01*
X177102151Y-49852849D01*
X176978361Y-49702011D01*
X176886377Y-49529920D01*
X176829733Y-49343192D01*
X176810607Y-49149000D01*
X176829733Y-48954808D01*
X176886377Y-48768080D01*
X176978361Y-48595989D01*
X177102151Y-48445151D01*
X177252989Y-48321361D01*
X177425080Y-48229377D01*
X177611808Y-48172733D01*
X177757335Y-48158400D01*
X179632665Y-48158400D01*
X179778192Y-48172733D01*
X179778192Y-48172733D01*
G37*
G36*
X94778800Y-49450800D02*
X93877200Y-49450800D01*
X93877200Y-48549200D01*
X94778800Y-48549200D01*
X94778800Y-49450800D01*
X94778800Y-49450800D01*
G37*
G36*
X96302800Y-49450800D02*
X95401200Y-49450800D01*
X95401200Y-48549200D01*
X96302800Y-48549200D01*
X96302800Y-49450800D01*
X96302800Y-49450800D01*
G37*
G36*
X144045200Y-45106999D02*
X144114233Y-45113798D01*
X144232335Y-45149624D01*
X144291387Y-45167537D01*
X144454652Y-45254804D01*
X144597754Y-45372246D01*
X144715196Y-45515348D01*
X144802463Y-45678613D01*
X144802463Y-45678614D01*
X144856202Y-45855767D01*
X144874347Y-46040000D01*
X144856202Y-46224233D01*
X144820376Y-46342335D01*
X144802463Y-46401387D01*
X144715196Y-46564652D01*
X144597754Y-46707754D01*
X144454652Y-46825196D01*
X144291387Y-46912463D01*
X144232335Y-46930376D01*
X144114233Y-46966202D01*
X144045200Y-46973001D01*
X143976169Y-46979800D01*
X143883831Y-46979800D01*
X143814800Y-46973001D01*
X143745767Y-46966202D01*
X143627665Y-46930376D01*
X143568613Y-46912463D01*
X143405348Y-46825196D01*
X143262246Y-46707754D01*
X143144804Y-46564652D01*
X143057537Y-46401387D01*
X143039624Y-46342335D01*
X143003798Y-46224233D01*
X142985653Y-46040000D01*
X143003798Y-45855767D01*
X143057537Y-45678614D01*
X143057537Y-45678613D01*
X143144804Y-45515348D01*
X143262246Y-45372246D01*
X143405348Y-45254804D01*
X143568613Y-45167537D01*
X143627665Y-45149624D01*
X143745767Y-45113798D01*
X143814800Y-45106999D01*
X143883831Y-45100200D01*
X143976169Y-45100200D01*
X144045200Y-45106999D01*
X144045200Y-45106999D01*
G37*
G36*
X147409800Y-46979800D02*
X145530200Y-46979800D01*
X145530200Y-45100200D01*
X147409800Y-45100200D01*
X147409800Y-46979800D01*
X147409800Y-46979800D01*
G37*
G36*
X79267142Y-43798242D02*
X79415102Y-43859530D01*
X79482130Y-43904317D01*
X79543260Y-43945162D01*
X79548258Y-43948502D01*
X79661498Y-44061742D01*
X79750470Y-44194898D01*
X79811758Y-44342858D01*
X79843000Y-44499925D01*
X79843000Y-44660075D01*
X79811758Y-44817142D01*
X79750470Y-44965102D01*
X79661498Y-45098258D01*
X79548258Y-45211498D01*
X79415102Y-45300470D01*
X79267142Y-45361758D01*
X79110075Y-45393000D01*
X78949925Y-45393000D01*
X78792858Y-45361758D01*
X78644898Y-45300470D01*
X78511742Y-45211498D01*
X78398502Y-45098258D01*
X78309530Y-44965102D01*
X78248242Y-44817142D01*
X78217000Y-44660075D01*
X78217000Y-44499925D01*
X78248242Y-44342858D01*
X78309530Y-44194898D01*
X78398502Y-44061742D01*
X78511742Y-43948502D01*
X78516741Y-43945162D01*
X78577870Y-43904317D01*
X78644898Y-43859530D01*
X78792858Y-43798242D01*
X78949925Y-43767000D01*
X79110075Y-43767000D01*
X79267142Y-43798242D01*
X79267142Y-43798242D01*
G37*
G36*
X81807142Y-43798242D02*
X81955102Y-43859530D01*
X82022130Y-43904317D01*
X82083260Y-43945162D01*
X82088258Y-43948502D01*
X82201498Y-44061742D01*
X82290470Y-44194898D01*
X82351758Y-44342858D01*
X82383000Y-44499925D01*
X82383000Y-44660075D01*
X82351758Y-44817142D01*
X82290470Y-44965102D01*
X82201498Y-45098258D01*
X82088258Y-45211498D01*
X81955102Y-45300470D01*
X81807142Y-45361758D01*
X81650075Y-45393000D01*
X81489925Y-45393000D01*
X81332858Y-45361758D01*
X81184898Y-45300470D01*
X81051742Y-45211498D01*
X80938502Y-45098258D01*
X80849530Y-44965102D01*
X80788242Y-44817142D01*
X80757000Y-44660075D01*
X80757000Y-44499925D01*
X80788242Y-44342858D01*
X80849530Y-44194898D01*
X80938502Y-44061742D01*
X81051742Y-43948502D01*
X81056741Y-43945162D01*
X81117870Y-43904317D01*
X81184898Y-43859530D01*
X81332858Y-43798242D01*
X81489925Y-43767000D01*
X81650075Y-43767000D01*
X81807142Y-43798242D01*
X81807142Y-43798242D01*
G37*
G36*
X93253000Y-44811000D02*
X91627000Y-44811000D01*
X91627000Y-43709000D01*
X93253000Y-43709000D01*
X93253000Y-44811000D01*
X93253000Y-44811000D01*
G37*
G36*
X98153000Y-44811000D02*
X96527000Y-44811000D01*
X96527000Y-43709000D01*
X98153000Y-43709000D01*
X98153000Y-44811000D01*
X98153000Y-44811000D01*
G37*
G36*
X144113346Y-42578258D02*
X144204129Y-42596316D01*
X144375162Y-42667160D01*
X144375163Y-42667161D01*
X144529090Y-42770012D01*
X144659988Y-42900910D01*
X144659990Y-42900913D01*
X144762840Y-43054838D01*
X144833684Y-43225871D01*
X144833684Y-43225873D01*
X144869800Y-43407436D01*
X144869800Y-43592564D01*
X144865317Y-43615100D01*
X144833684Y-43774129D01*
X144762840Y-43945162D01*
X144718342Y-44011757D01*
X144659988Y-44099090D01*
X144529090Y-44229988D01*
X144529087Y-44229990D01*
X144375162Y-44332840D01*
X144204129Y-44403684D01*
X144113346Y-44421742D01*
X144022564Y-44439800D01*
X143837436Y-44439800D01*
X143746655Y-44421742D01*
X143655871Y-44403684D01*
X143484838Y-44332840D01*
X143330913Y-44229990D01*
X143330910Y-44229988D01*
X143200012Y-44099090D01*
X143141658Y-44011757D01*
X143097160Y-43945162D01*
X143026316Y-43774129D01*
X142994683Y-43615100D01*
X142990200Y-43592564D01*
X142990200Y-43407436D01*
X143026316Y-43225873D01*
X143026316Y-43225871D01*
X143097160Y-43054838D01*
X143200010Y-42900913D01*
X143200012Y-42900910D01*
X143330910Y-42770012D01*
X143484837Y-42667161D01*
X143484838Y-42667160D01*
X143655871Y-42596316D01*
X143746654Y-42578258D01*
X143837436Y-42560200D01*
X144022564Y-42560200D01*
X144113346Y-42578258D01*
X144113346Y-42578258D01*
G37*
G36*
X146653346Y-42578258D02*
X146744129Y-42596316D01*
X146915162Y-42667160D01*
X146915163Y-42667161D01*
X147069090Y-42770012D01*
X147199988Y-42900910D01*
X147199990Y-42900913D01*
X147302840Y-43054838D01*
X147373684Y-43225871D01*
X147373684Y-43225873D01*
X147409800Y-43407436D01*
X147409800Y-43592564D01*
X147405317Y-43615100D01*
X147373684Y-43774129D01*
X147302840Y-43945162D01*
X147258342Y-44011757D01*
X147199988Y-44099090D01*
X147069090Y-44229988D01*
X147069087Y-44229990D01*
X146915162Y-44332840D01*
X146744129Y-44403684D01*
X146653346Y-44421742D01*
X146562564Y-44439800D01*
X146377436Y-44439800D01*
X146286655Y-44421742D01*
X146195871Y-44403684D01*
X146024838Y-44332840D01*
X145870913Y-44229990D01*
X145870910Y-44229988D01*
X145740012Y-44099090D01*
X145681658Y-44011757D01*
X145637160Y-43945162D01*
X145566316Y-43774129D01*
X145534683Y-43615100D01*
X145530200Y-43592564D01*
X145530200Y-43407436D01*
X145566316Y-43225873D01*
X145566316Y-43225871D01*
X145637160Y-43054838D01*
X145740010Y-42900913D01*
X145740012Y-42900910D01*
X145870910Y-42770012D01*
X146024837Y-42667161D01*
X146024838Y-42667160D01*
X146195871Y-42596316D01*
X146286654Y-42578258D01*
X146377436Y-42560200D01*
X146562564Y-42560200D01*
X146653346Y-42578258D01*
X146653346Y-42578258D01*
G37*
G36*
X53097142Y-42448242D02*
X53245102Y-42509530D01*
X53312130Y-42554317D01*
X53378257Y-42598501D01*
X53491499Y-42711743D01*
X53512289Y-42742858D01*
X53580470Y-42844898D01*
X53641758Y-42992858D01*
X53673000Y-43149925D01*
X53673000Y-43310075D01*
X53641758Y-43467142D01*
X53628869Y-43498258D01*
X53581963Y-43611499D01*
X53580470Y-43615102D01*
X53491498Y-43748258D01*
X53378258Y-43861498D01*
X53245102Y-43950470D01*
X53097142Y-44011758D01*
X52940075Y-44043000D01*
X52779925Y-44043000D01*
X52622858Y-44011758D01*
X52474898Y-43950470D01*
X52341742Y-43861498D01*
X52228502Y-43748258D01*
X52139530Y-43615102D01*
X52138038Y-43611499D01*
X52091131Y-43498258D01*
X52078242Y-43467142D01*
X52047000Y-43310075D01*
X52047000Y-43149925D01*
X52078242Y-42992858D01*
X52139530Y-42844898D01*
X52207711Y-42742858D01*
X52228501Y-42711743D01*
X52341743Y-42598501D01*
X52407870Y-42554317D01*
X52474898Y-42509530D01*
X52622858Y-42448242D01*
X52779925Y-42417000D01*
X52940075Y-42417000D01*
X53097142Y-42448242D01*
X53097142Y-42448242D01*
G37*
G36*
X60717142Y-42448242D02*
X60865102Y-42509530D01*
X60932130Y-42554317D01*
X60998257Y-42598501D01*
X61111499Y-42711743D01*
X61132289Y-42742858D01*
X61200470Y-42844898D01*
X61261758Y-42992858D01*
X61293000Y-43149925D01*
X61293000Y-43310075D01*
X61261758Y-43467142D01*
X61248869Y-43498258D01*
X61201963Y-43611499D01*
X61200470Y-43615102D01*
X61111498Y-43748258D01*
X60998258Y-43861498D01*
X60865102Y-43950470D01*
X60717142Y-44011758D01*
X60560075Y-44043000D01*
X60399925Y-44043000D01*
X60242858Y-44011758D01*
X60094898Y-43950470D01*
X59961742Y-43861498D01*
X59848502Y-43748258D01*
X59759530Y-43615102D01*
X59758038Y-43611499D01*
X59711131Y-43498258D01*
X59698242Y-43467142D01*
X59667000Y-43310075D01*
X59667000Y-43149925D01*
X59698242Y-42992858D01*
X59759530Y-42844898D01*
X59827711Y-42742858D01*
X59848501Y-42711743D01*
X59961743Y-42598501D01*
X60027870Y-42554317D01*
X60094898Y-42509530D01*
X60242858Y-42448242D01*
X60399925Y-42417000D01*
X60560075Y-42417000D01*
X60717142Y-42448242D01*
X60717142Y-42448242D01*
G37*
G36*
X125797142Y-42198242D02*
X125945102Y-42259530D01*
X126078258Y-42348502D01*
X126191498Y-42461742D01*
X126257286Y-42560200D01*
X126280471Y-42594900D01*
X126281963Y-42598502D01*
X126341758Y-42742858D01*
X126373000Y-42899925D01*
X126373000Y-43060075D01*
X126341758Y-43217142D01*
X126338142Y-43225871D01*
X126280471Y-43365100D01*
X126191499Y-43498257D01*
X126078257Y-43611499D01*
X126012130Y-43655683D01*
X125945102Y-43700470D01*
X125797142Y-43761758D01*
X125640075Y-43793000D01*
X125479925Y-43793000D01*
X125322858Y-43761758D01*
X125174898Y-43700470D01*
X125107870Y-43655683D01*
X125041743Y-43611499D01*
X124928501Y-43498257D01*
X124839529Y-43365100D01*
X124781858Y-43225871D01*
X124778242Y-43217142D01*
X124747000Y-43060075D01*
X124747000Y-42899925D01*
X124778242Y-42742858D01*
X124838037Y-42598502D01*
X124839529Y-42594900D01*
X124862715Y-42560200D01*
X124928502Y-42461742D01*
X125041742Y-42348502D01*
X125174898Y-42259530D01*
X125322858Y-42198242D01*
X125479925Y-42167000D01*
X125640075Y-42167000D01*
X125797142Y-42198242D01*
X125797142Y-42198242D01*
G37*
G36*
X128337142Y-42198242D02*
X128485102Y-42259530D01*
X128618258Y-42348502D01*
X128731498Y-42461742D01*
X128797286Y-42560200D01*
X128820471Y-42594900D01*
X128821963Y-42598502D01*
X128881758Y-42742858D01*
X128913000Y-42899925D01*
X128913000Y-43060075D01*
X128881758Y-43217142D01*
X128878142Y-43225871D01*
X128820471Y-43365100D01*
X128731499Y-43498257D01*
X128618257Y-43611499D01*
X128552130Y-43655683D01*
X128485102Y-43700470D01*
X128337142Y-43761758D01*
X128180075Y-43793000D01*
X128019925Y-43793000D01*
X127862858Y-43761758D01*
X127714898Y-43700470D01*
X127647870Y-43655683D01*
X127581743Y-43611499D01*
X127468501Y-43498257D01*
X127379529Y-43365100D01*
X127321858Y-43225871D01*
X127318242Y-43217142D01*
X127287000Y-43060075D01*
X127287000Y-42899925D01*
X127318242Y-42742858D01*
X127378037Y-42598502D01*
X127379529Y-42594900D01*
X127402715Y-42560200D01*
X127468502Y-42461742D01*
X127581742Y-42348502D01*
X127714898Y-42259530D01*
X127862858Y-42198242D01*
X128019925Y-42167000D01*
X128180075Y-42167000D01*
X128337142Y-42198242D01*
X128337142Y-42198242D01*
G37*
G36*
X130877142Y-42198242D02*
X131025102Y-42259530D01*
X131158258Y-42348502D01*
X131271498Y-42461742D01*
X131337286Y-42560200D01*
X131360471Y-42594900D01*
X131361963Y-42598502D01*
X131421758Y-42742858D01*
X131453000Y-42899925D01*
X131453000Y-43060075D01*
X131421758Y-43217142D01*
X131418142Y-43225871D01*
X131360471Y-43365100D01*
X131271499Y-43498257D01*
X131158257Y-43611499D01*
X131092130Y-43655683D01*
X131025102Y-43700470D01*
X130877142Y-43761758D01*
X130720075Y-43793000D01*
X130559925Y-43793000D01*
X130402858Y-43761758D01*
X130254898Y-43700470D01*
X130187870Y-43655683D01*
X130121743Y-43611499D01*
X130008501Y-43498257D01*
X129919529Y-43365100D01*
X129861858Y-43225871D01*
X129858242Y-43217142D01*
X129827000Y-43060075D01*
X129827000Y-42899925D01*
X129858242Y-42742858D01*
X129918037Y-42598502D01*
X129919529Y-42594900D01*
X129942715Y-42560200D01*
X130008502Y-42461742D01*
X130121742Y-42348502D01*
X130254898Y-42259530D01*
X130402858Y-42198242D01*
X130559925Y-42167000D01*
X130720075Y-42167000D01*
X130877142Y-42198242D01*
X130877142Y-42198242D01*
G37*
G36*
X133417142Y-42198242D02*
X133565102Y-42259530D01*
X133698258Y-42348502D01*
X133811498Y-42461742D01*
X133877286Y-42560200D01*
X133900471Y-42594900D01*
X133901963Y-42598502D01*
X133961758Y-42742858D01*
X133993000Y-42899925D01*
X133993000Y-43060075D01*
X133961758Y-43217142D01*
X133958142Y-43225871D01*
X133900471Y-43365100D01*
X133811499Y-43498257D01*
X133698257Y-43611499D01*
X133632130Y-43655683D01*
X133565102Y-43700470D01*
X133417142Y-43761758D01*
X133260075Y-43793000D01*
X133099925Y-43793000D01*
X132942858Y-43761758D01*
X132794898Y-43700470D01*
X132727870Y-43655683D01*
X132661743Y-43611499D01*
X132548501Y-43498257D01*
X132459529Y-43365100D01*
X132401858Y-43225871D01*
X132398242Y-43217142D01*
X132367000Y-43060075D01*
X132367000Y-42899925D01*
X132398242Y-42742858D01*
X132458037Y-42598502D01*
X132459529Y-42594900D01*
X132482715Y-42560200D01*
X132548502Y-42461742D01*
X132661742Y-42348502D01*
X132794898Y-42259530D01*
X132942858Y-42198242D01*
X133099925Y-42167000D01*
X133260075Y-42167000D01*
X133417142Y-42198242D01*
X133417142Y-42198242D01*
G37*
G36*
X120717142Y-42198242D02*
X120865102Y-42259530D01*
X120998258Y-42348502D01*
X121111498Y-42461742D01*
X121177286Y-42560200D01*
X121200471Y-42594900D01*
X121201963Y-42598502D01*
X121261758Y-42742858D01*
X121293000Y-42899925D01*
X121293000Y-43060075D01*
X121261758Y-43217142D01*
X121258142Y-43225871D01*
X121200471Y-43365100D01*
X121111499Y-43498257D01*
X120998257Y-43611499D01*
X120932130Y-43655683D01*
X120865102Y-43700470D01*
X120717142Y-43761758D01*
X120560075Y-43793000D01*
X120399925Y-43793000D01*
X120242858Y-43761758D01*
X120094898Y-43700470D01*
X120027870Y-43655683D01*
X119961743Y-43611499D01*
X119848501Y-43498257D01*
X119759529Y-43365100D01*
X119701858Y-43225871D01*
X119698242Y-43217142D01*
X119667000Y-43060075D01*
X119667000Y-42899925D01*
X119698242Y-42742858D01*
X119758037Y-42598502D01*
X119759529Y-42594900D01*
X119782715Y-42560200D01*
X119848502Y-42461742D01*
X119961742Y-42348502D01*
X120094898Y-42259530D01*
X120242858Y-42198242D01*
X120399925Y-42167000D01*
X120560075Y-42167000D01*
X120717142Y-42198242D01*
X120717142Y-42198242D01*
G37*
G36*
X123257142Y-42198242D02*
X123405102Y-42259530D01*
X123538258Y-42348502D01*
X123651498Y-42461742D01*
X123717286Y-42560200D01*
X123740471Y-42594900D01*
X123741963Y-42598502D01*
X123801758Y-42742858D01*
X123833000Y-42899925D01*
X123833000Y-43060075D01*
X123801758Y-43217142D01*
X123798142Y-43225871D01*
X123740471Y-43365100D01*
X123651499Y-43498257D01*
X123538257Y-43611499D01*
X123472130Y-43655683D01*
X123405102Y-43700470D01*
X123257142Y-43761758D01*
X123100075Y-43793000D01*
X122939925Y-43793000D01*
X122782858Y-43761758D01*
X122634898Y-43700470D01*
X122567870Y-43655683D01*
X122501743Y-43611499D01*
X122388501Y-43498257D01*
X122299529Y-43365100D01*
X122241858Y-43225871D01*
X122238242Y-43217142D01*
X122207000Y-43060075D01*
X122207000Y-42899925D01*
X122238242Y-42742858D01*
X122298037Y-42598502D01*
X122299529Y-42594900D01*
X122322715Y-42560200D01*
X122388502Y-42461742D01*
X122501742Y-42348502D01*
X122634898Y-42259530D01*
X122782858Y-42198242D01*
X122939925Y-42167000D01*
X123100075Y-42167000D01*
X123257142Y-42198242D01*
X123257142Y-42198242D01*
G37*
G36*
X138497142Y-42198242D02*
X138645102Y-42259530D01*
X138778258Y-42348502D01*
X138891498Y-42461742D01*
X138957286Y-42560200D01*
X138980471Y-42594900D01*
X138981963Y-42598502D01*
X139041758Y-42742858D01*
X139073000Y-42899925D01*
X139073000Y-43060075D01*
X139041758Y-43217142D01*
X139038142Y-43225871D01*
X138980471Y-43365100D01*
X138891499Y-43498257D01*
X138778257Y-43611499D01*
X138712130Y-43655683D01*
X138645102Y-43700470D01*
X138497142Y-43761758D01*
X138340075Y-43793000D01*
X138179925Y-43793000D01*
X138022858Y-43761758D01*
X137874898Y-43700470D01*
X137807870Y-43655683D01*
X137741743Y-43611499D01*
X137628501Y-43498257D01*
X137539529Y-43365100D01*
X137481858Y-43225871D01*
X137478242Y-43217142D01*
X137447000Y-43060075D01*
X137447000Y-42899925D01*
X137478242Y-42742858D01*
X137538037Y-42598502D01*
X137539529Y-42594900D01*
X137562715Y-42560200D01*
X137628502Y-42461742D01*
X137741742Y-42348502D01*
X137874898Y-42259530D01*
X138022858Y-42198242D01*
X138179925Y-42167000D01*
X138340075Y-42167000D01*
X138497142Y-42198242D01*
X138497142Y-42198242D01*
G37*
G36*
X135957142Y-42198242D02*
X136105102Y-42259530D01*
X136238258Y-42348502D01*
X136351498Y-42461742D01*
X136417286Y-42560200D01*
X136440471Y-42594900D01*
X136441963Y-42598502D01*
X136501758Y-42742858D01*
X136533000Y-42899925D01*
X136533000Y-43060075D01*
X136501758Y-43217142D01*
X136498142Y-43225871D01*
X136440471Y-43365100D01*
X136351499Y-43498257D01*
X136238257Y-43611499D01*
X136172130Y-43655683D01*
X136105102Y-43700470D01*
X135957142Y-43761758D01*
X135800075Y-43793000D01*
X135639925Y-43793000D01*
X135482858Y-43761758D01*
X135334898Y-43700470D01*
X135267870Y-43655683D01*
X135201743Y-43611499D01*
X135088501Y-43498257D01*
X134999529Y-43365100D01*
X134941858Y-43225871D01*
X134938242Y-43217142D01*
X134907000Y-43060075D01*
X134907000Y-42899925D01*
X134938242Y-42742858D01*
X134998037Y-42598502D01*
X134999529Y-42594900D01*
X135022715Y-42560200D01*
X135088502Y-42461742D01*
X135201742Y-42348502D01*
X135334898Y-42259530D01*
X135482858Y-42198242D01*
X135639925Y-42167000D01*
X135800075Y-42167000D01*
X135957142Y-42198242D01*
X135957142Y-42198242D01*
G37*
G36*
X98153000Y-43211000D02*
X96527000Y-43211000D01*
X96527000Y-42109000D01*
X98153000Y-42109000D01*
X98153000Y-43211000D01*
X98153000Y-43211000D01*
G37*
G36*
X93253000Y-43211000D02*
X91627000Y-43211000D01*
X91627000Y-42109000D01*
X93253000Y-42109000D01*
X93253000Y-43211000D01*
X93253000Y-43211000D01*
G37*
G36*
X146653345Y-40038258D02*
X146744129Y-40056316D01*
X146915162Y-40127160D01*
X146915163Y-40127161D01*
X147069090Y-40230012D01*
X147199988Y-40360910D01*
X147199990Y-40360913D01*
X147302840Y-40514838D01*
X147373684Y-40685871D01*
X147409800Y-40867438D01*
X147409800Y-41052562D01*
X147373684Y-41234129D01*
X147302840Y-41405162D01*
X147302839Y-41405163D01*
X147199988Y-41559090D01*
X147069090Y-41689988D01*
X147069087Y-41689990D01*
X146915162Y-41792840D01*
X146744129Y-41863684D01*
X146653346Y-41881742D01*
X146562564Y-41899800D01*
X146377436Y-41899800D01*
X146286654Y-41881742D01*
X146195871Y-41863684D01*
X146024838Y-41792840D01*
X145870913Y-41689990D01*
X145870910Y-41689988D01*
X145740012Y-41559090D01*
X145637161Y-41405163D01*
X145637160Y-41405162D01*
X145566316Y-41234129D01*
X145530200Y-41052562D01*
X145530200Y-40867438D01*
X145566316Y-40685871D01*
X145637160Y-40514838D01*
X145740010Y-40360913D01*
X145740012Y-40360910D01*
X145870910Y-40230012D01*
X146024837Y-40127161D01*
X146024838Y-40127160D01*
X146195871Y-40056316D01*
X146286655Y-40038258D01*
X146377436Y-40020200D01*
X146562564Y-40020200D01*
X146653345Y-40038258D01*
X146653345Y-40038258D01*
G37*
G36*
X144113345Y-40038258D02*
X144204129Y-40056316D01*
X144375162Y-40127160D01*
X144375163Y-40127161D01*
X144529090Y-40230012D01*
X144659988Y-40360910D01*
X144659990Y-40360913D01*
X144762840Y-40514838D01*
X144833684Y-40685871D01*
X144869800Y-40867438D01*
X144869800Y-41052562D01*
X144833684Y-41234129D01*
X144762840Y-41405162D01*
X144762839Y-41405163D01*
X144659988Y-41559090D01*
X144529090Y-41689988D01*
X144529087Y-41689990D01*
X144375162Y-41792840D01*
X144204129Y-41863684D01*
X144113346Y-41881742D01*
X144022564Y-41899800D01*
X143837436Y-41899800D01*
X143746654Y-41881742D01*
X143655871Y-41863684D01*
X143484838Y-41792840D01*
X143330913Y-41689990D01*
X143330910Y-41689988D01*
X143200012Y-41559090D01*
X143097161Y-41405163D01*
X143097160Y-41405162D01*
X143026316Y-41234129D01*
X142990200Y-41052562D01*
X142990200Y-40867438D01*
X143026316Y-40685871D01*
X143097160Y-40514838D01*
X143200010Y-40360913D01*
X143200012Y-40360910D01*
X143330910Y-40230012D01*
X143484837Y-40127161D01*
X143484838Y-40127160D01*
X143655871Y-40056316D01*
X143746655Y-40038258D01*
X143837436Y-40020200D01*
X144022564Y-40020200D01*
X144113345Y-40038258D01*
X144113345Y-40038258D01*
G37*
G36*
X98153000Y-41611000D02*
X96527000Y-41611000D01*
X96527000Y-40509000D01*
X98153000Y-40509000D01*
X98153000Y-41611000D01*
X98153000Y-41611000D01*
G37*
G36*
X93253000Y-41611000D02*
X91627000Y-41611000D01*
X91627000Y-40509000D01*
X93253000Y-40509000D01*
X93253000Y-41611000D01*
X93253000Y-41611000D01*
G37*
G36*
X54682889Y-39397095D02*
X54796996Y-39444359D01*
X54899692Y-39512979D01*
X54987021Y-39600308D01*
X55055641Y-39703004D01*
X55102905Y-39817111D01*
X55127000Y-39938244D01*
X55127000Y-40061756D01*
X55102905Y-40182889D01*
X55055641Y-40296996D01*
X54987021Y-40399692D01*
X54899692Y-40487021D01*
X54796996Y-40555641D01*
X54682889Y-40602905D01*
X54561756Y-40627000D01*
X54438244Y-40627000D01*
X54317111Y-40602905D01*
X54203004Y-40555641D01*
X54100308Y-40487021D01*
X54012979Y-40399692D01*
X53944359Y-40296996D01*
X53897095Y-40182889D01*
X53873000Y-40061756D01*
X53873000Y-39938244D01*
X53897095Y-39817111D01*
X53944359Y-39703004D01*
X54012979Y-39600308D01*
X54100308Y-39512979D01*
X54203004Y-39444359D01*
X54317111Y-39397095D01*
X54438244Y-39373000D01*
X54561756Y-39373000D01*
X54682889Y-39397095D01*
X54682889Y-39397095D01*
G37*
G36*
X207556800Y-35445800D02*
X205931200Y-35445800D01*
X205931200Y-34074200D01*
X207556800Y-34074200D01*
X207556800Y-35445800D01*
X207556800Y-35445800D01*
G37*
G36*
X199428800Y-35445800D02*
X197803200Y-35445800D01*
X197803200Y-34074200D01*
X199428800Y-34074200D01*
X199428800Y-35445800D01*
X199428800Y-35445800D01*
G37*
G36*
X130953345Y-33078258D02*
X131044129Y-33096316D01*
X131215162Y-33167160D01*
X131367009Y-33268621D01*
X131369090Y-33270012D01*
X131499988Y-33400910D01*
X131499990Y-33400913D01*
X131602840Y-33554838D01*
X131673684Y-33725871D01*
X131709800Y-33907438D01*
X131709800Y-34092562D01*
X131673684Y-34274129D01*
X131602840Y-34445162D01*
X131602839Y-34445163D01*
X131499988Y-34599090D01*
X131369090Y-34729988D01*
X131369087Y-34729990D01*
X131215162Y-34832840D01*
X131044129Y-34903684D01*
X130953345Y-34921742D01*
X130862564Y-34939800D01*
X130677436Y-34939800D01*
X130586655Y-34921742D01*
X130495871Y-34903684D01*
X130324838Y-34832840D01*
X130170913Y-34729990D01*
X130170910Y-34729988D01*
X130040012Y-34599090D01*
X129937161Y-34445163D01*
X129937160Y-34445162D01*
X129866316Y-34274129D01*
X129830200Y-34092562D01*
X129830200Y-33907438D01*
X129866316Y-33725871D01*
X129937160Y-33554838D01*
X130040010Y-33400913D01*
X130040012Y-33400910D01*
X130170910Y-33270012D01*
X130172991Y-33268621D01*
X130324838Y-33167160D01*
X130495871Y-33096316D01*
X130586655Y-33078258D01*
X130677436Y-33060200D01*
X130862564Y-33060200D01*
X130953345Y-33078258D01*
X130953345Y-33078258D01*
G37*
G36*
X125873345Y-33078258D02*
X125964129Y-33096316D01*
X126135162Y-33167160D01*
X126287009Y-33268621D01*
X126289090Y-33270012D01*
X126419988Y-33400910D01*
X126419990Y-33400913D01*
X126522840Y-33554838D01*
X126593684Y-33725871D01*
X126629800Y-33907438D01*
X126629800Y-34092562D01*
X126593684Y-34274129D01*
X126522840Y-34445162D01*
X126522839Y-34445163D01*
X126419988Y-34599090D01*
X126289090Y-34729988D01*
X126289087Y-34729990D01*
X126135162Y-34832840D01*
X125964129Y-34903684D01*
X125873345Y-34921742D01*
X125782564Y-34939800D01*
X125597436Y-34939800D01*
X125506655Y-34921742D01*
X125415871Y-34903684D01*
X125244838Y-34832840D01*
X125090913Y-34729990D01*
X125090910Y-34729988D01*
X124960012Y-34599090D01*
X124857161Y-34445163D01*
X124857160Y-34445162D01*
X124786316Y-34274129D01*
X124750200Y-34092562D01*
X124750200Y-33907438D01*
X124786316Y-33725871D01*
X124857160Y-33554838D01*
X124960010Y-33400913D01*
X124960012Y-33400910D01*
X125090910Y-33270012D01*
X125092991Y-33268621D01*
X125244838Y-33167160D01*
X125415871Y-33096316D01*
X125506655Y-33078258D01*
X125597436Y-33060200D01*
X125782564Y-33060200D01*
X125873345Y-33078258D01*
X125873345Y-33078258D01*
G37*
G36*
X134249800Y-34939800D02*
X132370200Y-34939800D01*
X132370200Y-33060200D01*
X134249800Y-33060200D01*
X134249800Y-34939800D01*
X134249800Y-34939800D01*
G37*
G36*
X128413345Y-33078258D02*
X128504129Y-33096316D01*
X128675162Y-33167160D01*
X128827009Y-33268621D01*
X128829090Y-33270012D01*
X128959988Y-33400910D01*
X128959990Y-33400913D01*
X129062840Y-33554838D01*
X129133684Y-33725871D01*
X129169800Y-33907438D01*
X129169800Y-34092562D01*
X129133684Y-34274129D01*
X129062840Y-34445162D01*
X129062839Y-34445163D01*
X128959988Y-34599090D01*
X128829090Y-34729988D01*
X128829087Y-34729990D01*
X128675162Y-34832840D01*
X128504129Y-34903684D01*
X128413345Y-34921742D01*
X128322564Y-34939800D01*
X128137436Y-34939800D01*
X128046655Y-34921742D01*
X127955871Y-34903684D01*
X127784838Y-34832840D01*
X127630913Y-34729990D01*
X127630910Y-34729988D01*
X127500012Y-34599090D01*
X127397161Y-34445163D01*
X127397160Y-34445162D01*
X127326316Y-34274129D01*
X127290200Y-34092562D01*
X127290200Y-33907438D01*
X127326316Y-33725871D01*
X127397160Y-33554838D01*
X127500010Y-33400913D01*
X127500012Y-33400910D01*
X127630910Y-33270012D01*
X127632991Y-33268621D01*
X127784838Y-33167160D01*
X127955871Y-33096316D01*
X128046655Y-33078258D01*
X128137436Y-33060200D01*
X128322564Y-33060200D01*
X128413345Y-33078258D01*
X128413345Y-33078258D01*
G37*
G36*
X103450800Y-33212800D02*
X102549200Y-33212800D01*
X102549200Y-32311200D01*
X103450800Y-32311200D01*
X103450800Y-33212800D01*
X103450800Y-33212800D01*
G37*
G36*
X100450800Y-33212800D02*
X99549200Y-33212800D01*
X99549200Y-32311200D01*
X100450800Y-32311200D01*
X100450800Y-33212800D01*
X100450800Y-33212800D01*
G37*
G36*
X100450800Y-31688800D02*
X99549200Y-31688800D01*
X99549200Y-30787200D01*
X100450800Y-30787200D01*
X100450800Y-31688800D01*
X100450800Y-31688800D01*
G37*
G36*
X103450800Y-31688800D02*
X102549200Y-31688800D01*
X102549200Y-30787200D01*
X103450800Y-30787200D01*
X103450800Y-31688800D01*
X103450800Y-31688800D01*
G37*
G36*
X92729800Y-30639800D02*
X90850200Y-30639800D01*
X90850200Y-28760200D01*
X92729800Y-28760200D01*
X92729800Y-30639800D01*
X92729800Y-30639800D01*
G37*
G36*
X89433345Y-28778258D02*
X89524129Y-28796316D01*
X89695162Y-28867160D01*
X89695163Y-28867161D01*
X89849090Y-28970012D01*
X89979988Y-29100910D01*
X89979990Y-29100913D01*
X90082840Y-29254838D01*
X90153684Y-29425871D01*
X90153684Y-29425873D01*
X90189800Y-29607436D01*
X90189800Y-29792564D01*
X90171742Y-29883345D01*
X90153684Y-29974129D01*
X90082840Y-30145162D01*
X90082839Y-30145163D01*
X89979988Y-30299090D01*
X89849090Y-30429988D01*
X89849087Y-30429990D01*
X89695162Y-30532840D01*
X89524129Y-30603684D01*
X89433345Y-30621742D01*
X89342564Y-30639800D01*
X89157436Y-30639800D01*
X89066655Y-30621742D01*
X88975871Y-30603684D01*
X88804838Y-30532840D01*
X88650913Y-30429990D01*
X88650910Y-30429988D01*
X88520012Y-30299090D01*
X88417161Y-30145163D01*
X88417160Y-30145162D01*
X88346316Y-29974129D01*
X88328258Y-29883345D01*
X88310200Y-29792564D01*
X88310200Y-29607436D01*
X88346316Y-29425873D01*
X88346316Y-29425871D01*
X88417160Y-29254838D01*
X88520010Y-29100913D01*
X88520012Y-29100910D01*
X88650910Y-28970012D01*
X88804837Y-28867161D01*
X88804838Y-28867160D01*
X88975871Y-28796316D01*
X89066655Y-28778258D01*
X89157436Y-28760200D01*
X89342564Y-28760200D01*
X89433345Y-28778258D01*
X89433345Y-28778258D01*
G37*
G36*
X86893345Y-28778258D02*
X86984129Y-28796316D01*
X87155162Y-28867160D01*
X87155163Y-28867161D01*
X87309090Y-28970012D01*
X87439988Y-29100910D01*
X87439990Y-29100913D01*
X87542840Y-29254838D01*
X87613684Y-29425871D01*
X87613684Y-29425873D01*
X87649800Y-29607436D01*
X87649800Y-29792564D01*
X87631742Y-29883345D01*
X87613684Y-29974129D01*
X87542840Y-30145162D01*
X87542839Y-30145163D01*
X87439988Y-30299090D01*
X87309090Y-30429988D01*
X87309087Y-30429990D01*
X87155162Y-30532840D01*
X86984129Y-30603684D01*
X86893345Y-30621742D01*
X86802564Y-30639800D01*
X86617436Y-30639800D01*
X86526655Y-30621742D01*
X86435871Y-30603684D01*
X86264838Y-30532840D01*
X86110913Y-30429990D01*
X86110910Y-30429988D01*
X85980012Y-30299090D01*
X85877161Y-30145163D01*
X85877160Y-30145162D01*
X85806316Y-29974129D01*
X85788258Y-29883345D01*
X85770200Y-29792564D01*
X85770200Y-29607436D01*
X85806316Y-29425873D01*
X85806316Y-29425871D01*
X85877160Y-29254838D01*
X85980010Y-29100913D01*
X85980012Y-29100910D01*
X86110910Y-28970012D01*
X86264837Y-28867161D01*
X86264838Y-28867160D01*
X86435871Y-28796316D01*
X86526655Y-28778258D01*
X86617436Y-28760200D01*
X86802564Y-28760200D01*
X86893345Y-28778258D01*
X86893345Y-28778258D01*
G37*
G36*
X184685800Y-30130800D02*
X183314200Y-30130800D01*
X183314200Y-26219200D01*
X184685800Y-26219200D01*
X184685800Y-30130800D01*
X184685800Y-30130800D01*
G37*
G36*
X179605800Y-30130800D02*
X178234200Y-30130800D01*
X178234200Y-26219200D01*
X179605800Y-26219200D01*
X179605800Y-30130800D01*
X179605800Y-30130800D01*
G37*
G36*
X187225800Y-30130800D02*
X185854200Y-30130800D01*
X185854200Y-26219200D01*
X187225800Y-26219200D01*
X187225800Y-30130800D01*
X187225800Y-30130800D01*
G37*
G36*
X189765800Y-30130800D02*
X188394200Y-30130800D01*
X188394200Y-26219200D01*
X189765800Y-26219200D01*
X189765800Y-30130800D01*
X189765800Y-30130800D01*
G37*
G36*
X182145800Y-30130800D02*
X180774200Y-30130800D01*
X180774200Y-26219200D01*
X182145800Y-26219200D01*
X182145800Y-30130800D01*
X182145800Y-30130800D01*
G37*
G36*
X67847085Y-28458435D02*
X67995004Y-28519705D01*
X68128133Y-28608659D01*
X68241341Y-28721867D01*
X68330295Y-28854996D01*
X68391565Y-29002915D01*
X68422800Y-29159945D01*
X68422800Y-29320055D01*
X68391565Y-29477085D01*
X68330295Y-29625004D01*
X68241341Y-29758133D01*
X68128133Y-29871341D01*
X67995004Y-29960295D01*
X67847085Y-30021565D01*
X67690055Y-30052800D01*
X67529945Y-30052800D01*
X67372915Y-30021565D01*
X67224996Y-29960295D01*
X67091867Y-29871341D01*
X66978659Y-29758133D01*
X66889705Y-29625004D01*
X66828435Y-29477085D01*
X66797200Y-29320055D01*
X66797200Y-29159945D01*
X66828435Y-29002915D01*
X66889705Y-28854996D01*
X66978659Y-28721867D01*
X67091867Y-28608659D01*
X67224996Y-28519705D01*
X67372915Y-28458435D01*
X67529945Y-28427200D01*
X67690055Y-28427200D01*
X67847085Y-28458435D01*
X67847085Y-28458435D01*
G37*
G36*
X65882800Y-30052800D02*
X64257200Y-30052800D01*
X64257200Y-28427200D01*
X65882800Y-28427200D01*
X65882800Y-30052800D01*
X65882800Y-30052800D01*
G37*
G36*
X100715698Y-26932732D02*
X100715701Y-26932733D01*
X100715700Y-26932733D01*
X100852337Y-26989329D01*
X100852338Y-26989330D01*
X100975310Y-27071497D01*
X101079883Y-27176070D01*
X101079885Y-27176073D01*
X101162051Y-27299043D01*
X101205826Y-27404726D01*
X101218648Y-27435682D01*
X101247500Y-27580731D01*
X101247500Y-27728629D01*
X101218648Y-27873678D01*
X101218647Y-27873680D01*
X101162051Y-28010317D01*
X101162050Y-28010318D01*
X101079883Y-28133290D01*
X100975310Y-28237863D01*
X100975307Y-28237865D01*
X100852337Y-28320031D01*
X100746654Y-28363806D01*
X100715698Y-28376628D01*
X100570649Y-28405480D01*
X100422751Y-28405480D01*
X100277702Y-28376628D01*
X100246746Y-28363806D01*
X100141063Y-28320031D01*
X100018093Y-28237865D01*
X100018090Y-28237863D01*
X99913517Y-28133290D01*
X99831350Y-28010318D01*
X99831349Y-28010317D01*
X99774753Y-27873680D01*
X99774752Y-27873678D01*
X99745900Y-27728629D01*
X99745900Y-27580731D01*
X99774752Y-27435682D01*
X99787574Y-27404726D01*
X99831349Y-27299043D01*
X99913515Y-27176073D01*
X99913517Y-27176070D01*
X100018090Y-27071497D01*
X100141062Y-26989330D01*
X100141063Y-26989329D01*
X100277700Y-26932733D01*
X100277699Y-26932733D01*
X100277702Y-26932732D01*
X100422751Y-26903880D01*
X100570649Y-26903880D01*
X100715698Y-26932732D01*
X100715698Y-26932732D01*
G37*
G36*
X103259180Y-28402940D02*
X101757580Y-28402940D01*
X101757580Y-26901340D01*
X103259180Y-26901340D01*
X103259180Y-28402940D01*
X103259180Y-28402940D01*
G37*
G36*
X56408597Y-23653031D02*
X56589909Y-23728133D01*
X56663528Y-23758627D01*
X56892958Y-23911927D01*
X57088073Y-24107042D01*
X57211939Y-24292421D01*
X57241373Y-24336472D01*
X57346969Y-24591403D01*
X57400800Y-24862032D01*
X57400800Y-25137968D01*
X57346969Y-25408597D01*
X57286061Y-25555641D01*
X57241373Y-25663528D01*
X57088073Y-25892958D01*
X56892958Y-26088073D01*
X56696712Y-26219200D01*
X56663528Y-26241373D01*
X56408597Y-26346969D01*
X56137968Y-26400800D01*
X55862032Y-26400800D01*
X55591403Y-26346969D01*
X55336472Y-26241373D01*
X55303288Y-26219200D01*
X55107042Y-26088073D01*
X54911927Y-25892958D01*
X54758627Y-25663528D01*
X54713939Y-25555641D01*
X54653031Y-25408597D01*
X54599200Y-25137968D01*
X54599200Y-24862032D01*
X54653031Y-24591403D01*
X54758627Y-24336472D01*
X54788061Y-24292421D01*
X54911927Y-24107042D01*
X55107042Y-23911927D01*
X55336472Y-23758627D01*
X55410091Y-23728133D01*
X55591403Y-23653031D01*
X55862032Y-23599200D01*
X56137968Y-23599200D01*
X56408597Y-23653031D01*
X56408597Y-23653031D01*
G37*
G36*
X203408597Y-23653031D02*
X203589909Y-23728133D01*
X203663528Y-23758627D01*
X203892958Y-23911927D01*
X204088073Y-24107042D01*
X204211939Y-24292421D01*
X204241373Y-24336472D01*
X204346969Y-24591403D01*
X204400800Y-24862032D01*
X204400800Y-25137968D01*
X204346969Y-25408597D01*
X204286061Y-25555641D01*
X204241373Y-25663528D01*
X204088073Y-25892958D01*
X203892958Y-26088073D01*
X203696712Y-26219200D01*
X203663528Y-26241373D01*
X203408597Y-26346969D01*
X203137968Y-26400800D01*
X202862032Y-26400800D01*
X202591403Y-26346969D01*
X202336472Y-26241373D01*
X202303288Y-26219200D01*
X202107042Y-26088073D01*
X201911927Y-25892958D01*
X201758627Y-25663528D01*
X201713939Y-25555641D01*
X201653031Y-25408597D01*
X201599200Y-25137968D01*
X201599200Y-24862032D01*
X201653031Y-24591403D01*
X201758627Y-24336472D01*
X201788061Y-24292421D01*
X201911927Y-24107042D01*
X202107042Y-23911927D01*
X202336472Y-23758627D01*
X202410091Y-23728133D01*
X202591403Y-23653031D01*
X202862032Y-23599200D01*
X203137968Y-23599200D01*
X203408597Y-23653031D01*
X203408597Y-23653031D01*
G37*
G36*
X167127579Y-23778617D02*
X167250255Y-23815831D01*
X167250258Y-23815832D01*
X167363314Y-23876261D01*
X167462411Y-23957589D01*
X167543739Y-24056686D01*
X167604168Y-24169742D01*
X167604169Y-24169745D01*
X167641383Y-24292421D01*
X167650800Y-24388037D01*
X167650800Y-25051963D01*
X167641383Y-25147579D01*
X167604169Y-25270254D01*
X167604168Y-25270258D01*
X167543739Y-25383314D01*
X167462411Y-25482411D01*
X167363313Y-25563739D01*
X167250257Y-25624168D01*
X167250254Y-25624169D01*
X167127578Y-25661383D01*
X167000000Y-25673948D01*
X166872421Y-25661383D01*
X166749745Y-25624169D01*
X166749742Y-25624168D01*
X166636686Y-25563739D01*
X166537589Y-25482411D01*
X166456261Y-25383313D01*
X166395832Y-25270257D01*
X166369329Y-25182889D01*
X166358617Y-25147578D01*
X166353909Y-25099770D01*
X166349200Y-25051964D01*
X166349200Y-24388035D01*
X166358617Y-24292423D01*
X166358617Y-24292421D01*
X166395831Y-24169745D01*
X166395831Y-24169744D01*
X166456263Y-24056685D01*
X166537590Y-23957589D01*
X166636687Y-23876261D01*
X166749743Y-23815832D01*
X166749746Y-23815831D01*
X166872422Y-23778617D01*
X167000000Y-23766052D01*
X167127579Y-23778617D01*
X167127579Y-23778617D01*
G37*
G36*
X159927579Y-23778617D02*
X160050255Y-23815831D01*
X160050258Y-23815832D01*
X160163314Y-23876261D01*
X160262411Y-23957589D01*
X160343739Y-24056686D01*
X160404168Y-24169742D01*
X160404169Y-24169745D01*
X160441383Y-24292421D01*
X160450800Y-24388037D01*
X160450800Y-25051963D01*
X160441383Y-25147579D01*
X160404169Y-25270254D01*
X160404168Y-25270258D01*
X160343739Y-25383314D01*
X160262411Y-25482411D01*
X160163313Y-25563739D01*
X160050257Y-25624168D01*
X160050254Y-25624169D01*
X159927578Y-25661383D01*
X159800000Y-25673948D01*
X159672421Y-25661383D01*
X159549745Y-25624169D01*
X159549742Y-25624168D01*
X159436686Y-25563739D01*
X159337589Y-25482411D01*
X159256261Y-25383313D01*
X159195832Y-25270257D01*
X159169329Y-25182889D01*
X159158617Y-25147578D01*
X159153909Y-25099770D01*
X159149200Y-25051964D01*
X159149200Y-24388035D01*
X159158617Y-24292423D01*
X159158617Y-24292421D01*
X159195831Y-24169745D01*
X159195831Y-24169744D01*
X159256263Y-24056685D01*
X159337590Y-23957589D01*
X159436687Y-23876261D01*
X159549743Y-23815832D01*
X159549746Y-23815831D01*
X159672422Y-23778617D01*
X159800000Y-23766052D01*
X159927579Y-23778617D01*
X159927579Y-23778617D01*
G37*
G36*
X192182889Y-24397095D02*
X192296996Y-24444359D01*
X192399692Y-24512979D01*
X192487021Y-24600308D01*
X192555641Y-24703004D01*
X192602905Y-24817111D01*
X192627000Y-24938244D01*
X192627000Y-25061756D01*
X192602905Y-25182889D01*
X192555641Y-25296996D01*
X192487021Y-25399692D01*
X192399692Y-25487021D01*
X192296996Y-25555641D01*
X192182889Y-25602905D01*
X192061756Y-25627000D01*
X191938244Y-25627000D01*
X191817111Y-25602905D01*
X191703004Y-25555641D01*
X191600308Y-25487021D01*
X191512979Y-25399692D01*
X191444359Y-25296996D01*
X191397095Y-25182889D01*
X191373000Y-25061756D01*
X191373000Y-24938244D01*
X191397095Y-24817111D01*
X191444359Y-24703004D01*
X191512979Y-24600308D01*
X191600308Y-24512979D01*
X191703004Y-24444359D01*
X191817111Y-24397095D01*
X191938244Y-24373000D01*
X192061756Y-24373000D01*
X192182889Y-24397095D01*
X192182889Y-24397095D01*
G37*
G36*
X161502324Y-23062681D02*
X161566166Y-23089125D01*
X161566167Y-23089126D01*
X161623625Y-23127518D01*
X161672482Y-23176375D01*
X161672484Y-23176378D01*
X161710875Y-23233834D01*
X161737319Y-23297676D01*
X161750800Y-23365449D01*
X161750800Y-23434551D01*
X161737319Y-23502324D01*
X161710875Y-23566166D01*
X161710874Y-23566167D01*
X161706650Y-23576364D01*
X161699537Y-23599813D01*
X161697135Y-23624200D01*
X161699537Y-23648586D01*
X161706650Y-23672035D01*
X161718201Y-23693646D01*
X161733746Y-23712588D01*
X161752688Y-23728133D01*
X161774299Y-23739685D01*
X161797748Y-23746798D01*
X161822135Y-23749200D01*
X162411700Y-23749200D01*
X162436086Y-23746798D01*
X162459535Y-23739685D01*
X162481146Y-23728134D01*
X162500088Y-23712588D01*
X162515634Y-23693646D01*
X162527185Y-23672035D01*
X162534112Y-23649200D01*
X164265888Y-23649200D01*
X164272815Y-23672035D01*
X164284366Y-23693646D01*
X164299912Y-23712588D01*
X164318854Y-23728134D01*
X164340465Y-23739685D01*
X164363914Y-23746798D01*
X164388300Y-23749200D01*
X164977865Y-23749200D01*
X165002251Y-23746798D01*
X165025700Y-23739685D01*
X165047311Y-23728134D01*
X165066253Y-23712588D01*
X165081799Y-23693646D01*
X165093350Y-23672035D01*
X165100463Y-23648586D01*
X165102865Y-23624200D01*
X165100463Y-23599814D01*
X165093350Y-23576364D01*
X165089126Y-23566167D01*
X165089125Y-23566166D01*
X165062681Y-23502324D01*
X165049200Y-23434551D01*
X165049200Y-23365449D01*
X165062681Y-23297676D01*
X165089125Y-23233834D01*
X165127516Y-23176378D01*
X165127518Y-23176375D01*
X165176375Y-23127518D01*
X165233833Y-23089126D01*
X165233834Y-23089125D01*
X165297676Y-23062681D01*
X165365449Y-23049200D01*
X165434551Y-23049200D01*
X165502324Y-23062681D01*
X165566166Y-23089125D01*
X165566167Y-23089126D01*
X165623625Y-23127518D01*
X165672482Y-23176375D01*
X165672484Y-23176378D01*
X165710875Y-23233834D01*
X165737319Y-23297676D01*
X165750800Y-23365449D01*
X165750800Y-23434551D01*
X165737319Y-23502324D01*
X165710875Y-23566166D01*
X165710874Y-23566167D01*
X165672482Y-23623625D01*
X165623625Y-23672482D01*
X165623622Y-23672484D01*
X165566166Y-23710875D01*
X165502324Y-23737319D01*
X165434551Y-23750800D01*
X165365449Y-23750800D01*
X165297676Y-23737319D01*
X165260630Y-23721974D01*
X165237187Y-23714863D01*
X165212801Y-23712461D01*
X165188414Y-23714863D01*
X165164965Y-23721976D01*
X165143354Y-23733527D01*
X165124412Y-23749072D01*
X165108867Y-23768014D01*
X165097315Y-23789625D01*
X165090202Y-23813074D01*
X165087800Y-23837461D01*
X165087800Y-25450800D01*
X164388300Y-25450800D01*
X164363914Y-25453202D01*
X164340465Y-25460315D01*
X164318854Y-25471866D01*
X164299912Y-25487412D01*
X164284366Y-25506354D01*
X164272815Y-25527965D01*
X164265888Y-25550800D01*
X162534112Y-25550800D01*
X162527185Y-25527965D01*
X162515634Y-25506354D01*
X162500088Y-25487412D01*
X162481146Y-25471866D01*
X162459535Y-25460315D01*
X162436086Y-25453202D01*
X162411700Y-25450800D01*
X161712200Y-25450800D01*
X161712200Y-23837461D01*
X161709798Y-23813075D01*
X161702685Y-23789626D01*
X161691134Y-23768015D01*
X161675588Y-23749073D01*
X161656646Y-23733527D01*
X161635035Y-23721976D01*
X161611586Y-23714863D01*
X161587200Y-23712461D01*
X161562814Y-23714863D01*
X161539370Y-23721974D01*
X161502324Y-23737319D01*
X161434551Y-23750800D01*
X161365449Y-23750800D01*
X161297676Y-23737319D01*
X161233834Y-23710875D01*
X161176378Y-23672484D01*
X161176375Y-23672482D01*
X161127518Y-23623625D01*
X161089126Y-23566167D01*
X161089125Y-23566166D01*
X161062681Y-23502324D01*
X161049200Y-23434551D01*
X161049200Y-23365449D01*
X161062681Y-23297676D01*
X161089125Y-23233834D01*
X161127516Y-23176378D01*
X161127518Y-23176375D01*
X161176375Y-23127518D01*
X161233833Y-23089126D01*
X161233834Y-23089125D01*
X161297676Y-23062681D01*
X161365449Y-23049200D01*
X161434551Y-23049200D01*
X161502324Y-23062681D01*
X161502324Y-23062681D01*
G37*
G36*
X170450800Y-24712800D02*
X169549200Y-24712800D01*
X169549200Y-23811200D01*
X170450800Y-23811200D01*
X170450800Y-24712800D01*
X170450800Y-24712800D01*
G37*
G36*
X156950800Y-24474800D02*
X156049200Y-24474800D01*
X156049200Y-23573200D01*
X156950800Y-23573200D01*
X156950800Y-24474800D01*
X156950800Y-24474800D01*
G37*
G36*
X189765800Y-23780800D02*
X188394200Y-23780800D01*
X188394200Y-19869200D01*
X189765800Y-19869200D01*
X189765800Y-23780800D01*
X189765800Y-23780800D01*
G37*
G36*
X187225800Y-23780800D02*
X185854200Y-23780800D01*
X185854200Y-19869200D01*
X187225800Y-19869200D01*
X187225800Y-23780800D01*
X187225800Y-23780800D01*
G37*
G36*
X184685800Y-23780800D02*
X183314200Y-23780800D01*
X183314200Y-19869200D01*
X184685800Y-19869200D01*
X184685800Y-23780800D01*
X184685800Y-23780800D01*
G37*
G36*
X179605800Y-23780800D02*
X178234200Y-23780800D01*
X178234200Y-19869200D01*
X179605800Y-19869200D01*
X179605800Y-23780800D01*
X179605800Y-23780800D01*
G37*
G36*
X182145800Y-23780800D02*
X180774200Y-23780800D01*
X180774200Y-19869200D01*
X182145800Y-19869200D01*
X182145800Y-23780800D01*
X182145800Y-23780800D01*
G37*
G36*
X170450800Y-23188800D02*
X169549200Y-23188800D01*
X169549200Y-22287200D01*
X170450800Y-22287200D01*
X170450800Y-23188800D01*
X170450800Y-23188800D01*
G37*
G36*
X156950800Y-22950800D02*
X156049200Y-22950800D01*
X156049200Y-22049200D01*
X156950800Y-22049200D01*
X156950800Y-22950800D01*
X156950800Y-22950800D01*
G37*
G36*
X80167142Y-21328242D02*
X80315102Y-21389530D01*
X80448258Y-21478502D01*
X80561498Y-21591742D01*
X80650470Y-21724898D01*
X80711758Y-21872858D01*
X80743000Y-22029925D01*
X80743000Y-22190075D01*
X80711758Y-22347142D01*
X80650470Y-22495102D01*
X80561498Y-22628258D01*
X80448258Y-22741498D01*
X80315102Y-22830470D01*
X80167142Y-22891758D01*
X80010075Y-22923000D01*
X79849925Y-22923000D01*
X79692858Y-22891758D01*
X79544898Y-22830470D01*
X79411742Y-22741498D01*
X79298502Y-22628258D01*
X79209530Y-22495102D01*
X79148242Y-22347142D01*
X79117000Y-22190075D01*
X79117000Y-22029925D01*
X79148242Y-21872858D01*
X79209530Y-21724898D01*
X79298502Y-21591742D01*
X79411742Y-21478502D01*
X79544898Y-21389530D01*
X79692858Y-21328242D01*
X79849925Y-21297000D01*
X80010075Y-21297000D01*
X80167142Y-21328242D01*
X80167142Y-21328242D01*
G37*
G36*
X77627142Y-21328242D02*
X77775102Y-21389530D01*
X77908258Y-21478502D01*
X78021498Y-21591742D01*
X78110470Y-21724898D01*
X78171758Y-21872858D01*
X78203000Y-22029925D01*
X78203000Y-22190075D01*
X78171758Y-22347142D01*
X78110470Y-22495102D01*
X78021498Y-22628258D01*
X77908258Y-22741498D01*
X77775102Y-22830470D01*
X77627142Y-22891758D01*
X77470075Y-22923000D01*
X77309925Y-22923000D01*
X77152858Y-22891758D01*
X77004898Y-22830470D01*
X76871742Y-22741498D01*
X76758502Y-22628258D01*
X76669530Y-22495102D01*
X76608242Y-22347142D01*
X76577000Y-22190075D01*
X76577000Y-22029925D01*
X76608242Y-21872858D01*
X76669530Y-21724898D01*
X76758502Y-21591742D01*
X76871742Y-21478502D01*
X77004898Y-21389530D01*
X77152858Y-21328242D01*
X77309925Y-21297000D01*
X77470075Y-21297000D01*
X77627142Y-21328242D01*
X77627142Y-21328242D01*
G37*
G36*
X75087142Y-21328242D02*
X75235102Y-21389530D01*
X75368258Y-21478502D01*
X75481498Y-21591742D01*
X75570470Y-21724898D01*
X75631758Y-21872858D01*
X75663000Y-22029925D01*
X75663000Y-22190075D01*
X75631758Y-22347142D01*
X75570470Y-22495102D01*
X75481498Y-22628258D01*
X75368258Y-22741498D01*
X75235102Y-22830470D01*
X75087142Y-22891758D01*
X74930075Y-22923000D01*
X74769925Y-22923000D01*
X74612858Y-22891758D01*
X74464898Y-22830470D01*
X74331742Y-22741498D01*
X74218502Y-22628258D01*
X74129530Y-22495102D01*
X74068242Y-22347142D01*
X74037000Y-22190075D01*
X74037000Y-22029925D01*
X74068242Y-21872858D01*
X74129530Y-21724898D01*
X74218502Y-21591742D01*
X74331742Y-21478502D01*
X74464898Y-21389530D01*
X74612858Y-21328242D01*
X74769925Y-21297000D01*
X74930075Y-21297000D01*
X75087142Y-21328242D01*
X75087142Y-21328242D01*
G37*
G36*
X167127579Y-20308617D02*
X167250255Y-20345831D01*
X167250258Y-20345832D01*
X167363314Y-20406261D01*
X167462411Y-20487589D01*
X167543739Y-20586686D01*
X167604168Y-20699742D01*
X167604169Y-20699745D01*
X167641383Y-20822421D01*
X167650800Y-20918037D01*
X167650800Y-21581963D01*
X167641383Y-21677579D01*
X167627028Y-21724900D01*
X167604168Y-21800258D01*
X167543739Y-21913314D01*
X167462411Y-22012411D01*
X167363313Y-22093739D01*
X167250257Y-22154168D01*
X167250254Y-22154169D01*
X167127578Y-22191383D01*
X167000000Y-22203948D01*
X166872421Y-22191383D01*
X166749745Y-22154169D01*
X166749742Y-22154168D01*
X166636686Y-22093739D01*
X166537589Y-22012411D01*
X166456261Y-21913313D01*
X166395832Y-21800257D01*
X166395831Y-21800254D01*
X166358617Y-21677578D01*
X166349200Y-21581962D01*
X166349200Y-20918037D01*
X166358617Y-20822421D01*
X166395831Y-20699745D01*
X166395831Y-20699744D01*
X166456263Y-20586685D01*
X166537590Y-20487589D01*
X166636687Y-20406261D01*
X166749743Y-20345832D01*
X166749746Y-20345831D01*
X166872422Y-20308617D01*
X167000000Y-20296052D01*
X167127579Y-20308617D01*
X167127579Y-20308617D01*
G37*
G36*
X159927579Y-20308617D02*
X160050255Y-20345831D01*
X160050258Y-20345832D01*
X160163314Y-20406261D01*
X160262411Y-20487589D01*
X160343739Y-20586686D01*
X160404168Y-20699742D01*
X160404169Y-20699745D01*
X160441383Y-20822421D01*
X160450800Y-20918037D01*
X160450800Y-21581963D01*
X160441383Y-21677579D01*
X160427028Y-21724900D01*
X160404168Y-21800258D01*
X160343739Y-21913314D01*
X160262411Y-22012411D01*
X160163313Y-22093739D01*
X160050257Y-22154168D01*
X160050254Y-22154169D01*
X159927578Y-22191383D01*
X159800000Y-22203948D01*
X159672421Y-22191383D01*
X159549745Y-22154169D01*
X159549742Y-22154168D01*
X159436686Y-22093739D01*
X159337589Y-22012411D01*
X159256261Y-21913313D01*
X159195832Y-21800257D01*
X159195831Y-21800254D01*
X159158617Y-21677578D01*
X159149200Y-21581962D01*
X159149200Y-20918037D01*
X159158617Y-20822421D01*
X159195831Y-20699745D01*
X159195831Y-20699744D01*
X159256263Y-20586685D01*
X159337590Y-20487589D01*
X159436687Y-20406261D01*
X159549743Y-20345832D01*
X159549746Y-20345831D01*
X159672422Y-20308617D01*
X159800000Y-20296052D01*
X159927579Y-20308617D01*
X159927579Y-20308617D01*
G37*
G36*
X165500800Y-20650800D02*
X164299200Y-20650800D01*
X164299200Y-19549200D01*
X165500800Y-19549200D01*
X165500800Y-20650800D01*
X165500800Y-20650800D01*
G37*
G36*
X162500800Y-20650800D02*
X161299200Y-20650800D01*
X161299200Y-19549200D01*
X162500800Y-19549200D01*
X162500800Y-20650800D01*
X162500800Y-20650800D01*
G37*
M02*
