G04 #@! TF.GenerationSoftware,KiCad,Pcbnew,6.0.0-rc1-unknown-ee465fb~66~ubuntu18.04.1*
G04 #@! TF.CreationDate,2018-09-27T12:58:04+03:00*
G04 #@! TF.ProjectId,eduBoard_Rev_A,656475426F6172645F5265765F412E6B,rev?*
G04 #@! TF.SameCoordinates,Original*
G04 #@! TF.FileFunction,Legend,Top*
G04 #@! TF.FilePolarity,Positive*
%FSLAX46Y46*%
G04 Gerber Fmt 4.6, Leading zero omitted, Abs format (unit mm)*
G04 Created by KiCad (PCBNEW 6.0.0-rc1-unknown-ee465fb~66~ubuntu18.04.1) date Thu Sep 27 12:58:04 2018*
%MOMM*%
%LPD*%
G01*
G04 APERTURE LIST*
%ADD10C,0.200000*%
%ADD11C,0.500000*%
%ADD12C,0.150000*%
%ADD13C,0.300000*%
%ADD14C,0.254000*%
%ADD15C,0.508000*%
%ADD16C,0.127000*%
%ADD17C,0.100000*%
%ADD18C,0.050000*%
%ADD19C,0.203200*%
%ADD20C,0.400000*%
%ADD21C,0.700000*%
%ADD22C,0.420000*%
%ADD23C,0.370000*%
%ADD24C,0.380000*%
%ADD25C,1.000000*%
%ADD26C,0.101600*%
%ADD27C,0.180000*%
G04 APERTURE END LIST*
D10*
X194078571Y-45153571D02*
X193578571Y-44439285D01*
X193221428Y-45153571D02*
X193221428Y-43653571D01*
X193792857Y-43653571D01*
X193935714Y-43725000D01*
X194007142Y-43796428D01*
X194078571Y-43939285D01*
X194078571Y-44153571D01*
X194007142Y-44296428D01*
X193935714Y-44367857D01*
X193792857Y-44439285D01*
X193221428Y-44439285D01*
X195292857Y-45082142D02*
X195150000Y-45153571D01*
X194864285Y-45153571D01*
X194721428Y-45082142D01*
X194650000Y-44939285D01*
X194650000Y-44367857D01*
X194721428Y-44225000D01*
X194864285Y-44153571D01*
X195150000Y-44153571D01*
X195292857Y-44225000D01*
X195364285Y-44367857D01*
X195364285Y-44510714D01*
X194650000Y-44653571D01*
X195864285Y-44153571D02*
X196221428Y-45153571D01*
X196578571Y-44153571D01*
X197150000Y-45010714D02*
X197221428Y-45082142D01*
X197150000Y-45153571D01*
X197078571Y-45082142D01*
X197150000Y-45010714D01*
X197150000Y-45153571D01*
X197792857Y-44725000D02*
X198507142Y-44725000D01*
X197650000Y-45153571D02*
X198150000Y-43653571D01*
X198650000Y-45153571D01*
X200721428Y-45725000D02*
X200650000Y-45653571D01*
X200507142Y-45439285D01*
X200435714Y-45296428D01*
X200364285Y-45082142D01*
X200292857Y-44725000D01*
X200292857Y-44439285D01*
X200364285Y-44082142D01*
X200435714Y-43867857D01*
X200507142Y-43725000D01*
X200650000Y-43510714D01*
X200721428Y-43439285D01*
X201935714Y-45082142D02*
X201792857Y-45153571D01*
X201507142Y-45153571D01*
X201364285Y-45082142D01*
X201292857Y-45010714D01*
X201221428Y-44867857D01*
X201221428Y-44439285D01*
X201292857Y-44296428D01*
X201364285Y-44225000D01*
X201507142Y-44153571D01*
X201792857Y-44153571D01*
X201935714Y-44225000D01*
X202435714Y-45725000D02*
X202507142Y-45653571D01*
X202650000Y-45439285D01*
X202721428Y-45296428D01*
X202792857Y-45082142D01*
X202864285Y-44725000D01*
X202864285Y-44439285D01*
X202792857Y-44082142D01*
X202721428Y-43867857D01*
X202650000Y-43725000D01*
X202507142Y-43510714D01*
X202435714Y-43439285D01*
X203507142Y-43796428D02*
X203578571Y-43725000D01*
X203721428Y-43653571D01*
X204078571Y-43653571D01*
X204221428Y-43725000D01*
X204292857Y-43796428D01*
X204364285Y-43939285D01*
X204364285Y-44082142D01*
X204292857Y-44296428D01*
X203435714Y-45153571D01*
X204364285Y-45153571D01*
X205292857Y-43653571D02*
X205435714Y-43653571D01*
X205578571Y-43725000D01*
X205650000Y-43796428D01*
X205721428Y-43939285D01*
X205792857Y-44225000D01*
X205792857Y-44582142D01*
X205721428Y-44867857D01*
X205650000Y-45010714D01*
X205578571Y-45082142D01*
X205435714Y-45153571D01*
X205292857Y-45153571D01*
X205150000Y-45082142D01*
X205078571Y-45010714D01*
X205007142Y-44867857D01*
X204935714Y-44582142D01*
X204935714Y-44225000D01*
X205007142Y-43939285D01*
X205078571Y-43796428D01*
X205150000Y-43725000D01*
X205292857Y-43653571D01*
X207221428Y-45153571D02*
X206364285Y-45153571D01*
X206792857Y-45153571D02*
X206792857Y-43653571D01*
X206650000Y-43867857D01*
X206507142Y-44010714D01*
X206364285Y-44082142D01*
X208078571Y-44296428D02*
X207935714Y-44225000D01*
X207864285Y-44153571D01*
X207792857Y-44010714D01*
X207792857Y-43939285D01*
X207864285Y-43796428D01*
X207935714Y-43725000D01*
X208078571Y-43653571D01*
X208364285Y-43653571D01*
X208507142Y-43725000D01*
X208578571Y-43796428D01*
X208650000Y-43939285D01*
X208650000Y-44010714D01*
X208578571Y-44153571D01*
X208507142Y-44225000D01*
X208364285Y-44296428D01*
X208078571Y-44296428D01*
X207935714Y-44367857D01*
X207864285Y-44439285D01*
X207792857Y-44582142D01*
X207792857Y-44867857D01*
X207864285Y-45010714D01*
X207935714Y-45082142D01*
X208078571Y-45153571D01*
X208364285Y-45153571D01*
X208507142Y-45082142D01*
X208578571Y-45010714D01*
X208650000Y-44867857D01*
X208650000Y-44582142D01*
X208578571Y-44439285D01*
X208507142Y-44367857D01*
X208364285Y-44296428D01*
X193650000Y-47460714D02*
X193578571Y-47532142D01*
X193364285Y-47603571D01*
X193221428Y-47603571D01*
X193007142Y-47532142D01*
X192864285Y-47389285D01*
X192792857Y-47246428D01*
X192721428Y-46960714D01*
X192721428Y-46746428D01*
X192792857Y-46460714D01*
X192864285Y-46317857D01*
X193007142Y-46175000D01*
X193221428Y-46103571D01*
X193364285Y-46103571D01*
X193578571Y-46175000D01*
X193650000Y-46246428D01*
X195150000Y-47460714D02*
X195078571Y-47532142D01*
X194864285Y-47603571D01*
X194721428Y-47603571D01*
X194507142Y-47532142D01*
X194364285Y-47389285D01*
X194292857Y-47246428D01*
X194221428Y-46960714D01*
X194221428Y-46746428D01*
X194292857Y-46460714D01*
X194364285Y-46317857D01*
X194507142Y-46175000D01*
X194721428Y-46103571D01*
X194864285Y-46103571D01*
X195078571Y-46175000D01*
X195150000Y-46246428D01*
X196864285Y-47532142D02*
X197078571Y-47603571D01*
X197435714Y-47603571D01*
X197578571Y-47532142D01*
X197650000Y-47460714D01*
X197721428Y-47317857D01*
X197721428Y-47175000D01*
X197650000Y-47032142D01*
X197578571Y-46960714D01*
X197435714Y-46889285D01*
X197150000Y-46817857D01*
X197007142Y-46746428D01*
X196935714Y-46675000D01*
X196864285Y-46532142D01*
X196864285Y-46389285D01*
X196935714Y-46246428D01*
X197007142Y-46175000D01*
X197150000Y-46103571D01*
X197507142Y-46103571D01*
X197721428Y-46175000D01*
X198292857Y-47175000D02*
X199007142Y-47175000D01*
X198150000Y-47603571D02*
X198650000Y-46103571D01*
X199150000Y-47603571D01*
X199650000Y-47032142D02*
X200792857Y-47032142D01*
X202007142Y-46817857D02*
X202221428Y-46889285D01*
X202292857Y-46960714D01*
X202364285Y-47103571D01*
X202364285Y-47317857D01*
X202292857Y-47460714D01*
X202221428Y-47532142D01*
X202078571Y-47603571D01*
X201507142Y-47603571D01*
X201507142Y-46103571D01*
X202007142Y-46103571D01*
X202150000Y-46175000D01*
X202221428Y-46246428D01*
X202292857Y-46389285D01*
X202292857Y-46532142D01*
X202221428Y-46675000D01*
X202150000Y-46746428D01*
X202007142Y-46817857D01*
X201507142Y-46817857D01*
X203292857Y-46889285D02*
X203292857Y-47603571D01*
X202792857Y-46103571D02*
X203292857Y-46889285D01*
X203792857Y-46103571D01*
X204292857Y-47032142D02*
X205435714Y-47032142D01*
X206007142Y-46103571D02*
X206935714Y-46103571D01*
X206435714Y-46675000D01*
X206650000Y-46675000D01*
X206792857Y-46746428D01*
X206864285Y-46817857D01*
X206935714Y-46960714D01*
X206935714Y-47317857D01*
X206864285Y-47460714D01*
X206792857Y-47532142D01*
X206650000Y-47603571D01*
X206221428Y-47603571D01*
X206078571Y-47532142D01*
X206007142Y-47460714D01*
X207578571Y-47460714D02*
X207650000Y-47532142D01*
X207578571Y-47603571D01*
X207507142Y-47532142D01*
X207578571Y-47460714D01*
X207578571Y-47603571D01*
X208578571Y-46103571D02*
X208721428Y-46103571D01*
X208864285Y-46175000D01*
X208935714Y-46246428D01*
X209007142Y-46389285D01*
X209078571Y-46675000D01*
X209078571Y-47032142D01*
X209007142Y-47317857D01*
X208935714Y-47460714D01*
X208864285Y-47532142D01*
X208721428Y-47603571D01*
X208578571Y-47603571D01*
X208435714Y-47532142D01*
X208364285Y-47460714D01*
X208292857Y-47317857D01*
X208221428Y-47032142D01*
X208221428Y-46675000D01*
X208292857Y-46389285D01*
X208364285Y-46246428D01*
X208435714Y-46175000D01*
X208578571Y-46103571D01*
D11*
X193728571Y-42114285D02*
X193442857Y-42257142D01*
X192871428Y-42257142D01*
X192585714Y-42114285D01*
X192442857Y-41828571D01*
X192442857Y-40685714D01*
X192585714Y-40400000D01*
X192871428Y-40257142D01*
X193442857Y-40257142D01*
X193728571Y-40400000D01*
X193871428Y-40685714D01*
X193871428Y-40971428D01*
X192442857Y-41257142D01*
X196442857Y-42257142D02*
X196442857Y-39257142D01*
X196442857Y-42114285D02*
X196157142Y-42257142D01*
X195585714Y-42257142D01*
X195300000Y-42114285D01*
X195157142Y-41971428D01*
X195014285Y-41685714D01*
X195014285Y-40828571D01*
X195157142Y-40542857D01*
X195300000Y-40400000D01*
X195585714Y-40257142D01*
X196157142Y-40257142D01*
X196442857Y-40400000D01*
X199157142Y-40257142D02*
X199157142Y-42257142D01*
X197871428Y-40257142D02*
X197871428Y-41828571D01*
X198014285Y-42114285D01*
X198300000Y-42257142D01*
X198728571Y-42257142D01*
X199014285Y-42114285D01*
X199157142Y-41971428D01*
X200442857Y-41400000D02*
X201871428Y-41400000D01*
X200157142Y-42257142D02*
X201157142Y-39257142D01*
X202157142Y-42257142D01*
X203157142Y-42257142D02*
X203157142Y-40257142D01*
X203157142Y-40828571D02*
X203300000Y-40542857D01*
X203442857Y-40400000D01*
X203728571Y-40257142D01*
X204014285Y-40257142D01*
X206300000Y-42257142D02*
X206300000Y-39257142D01*
X206300000Y-42114285D02*
X206014285Y-42257142D01*
X205442857Y-42257142D01*
X205157142Y-42114285D01*
X205014285Y-41971428D01*
X204871428Y-41685714D01*
X204871428Y-40828571D01*
X205014285Y-40542857D01*
X205157142Y-40400000D01*
X205442857Y-40257142D01*
X206014285Y-40257142D01*
X206300000Y-40400000D01*
X209014285Y-40257142D02*
X209014285Y-42257142D01*
X207728571Y-40257142D02*
X207728571Y-41828571D01*
X207871428Y-42114285D01*
X208157142Y-42257142D01*
X208585714Y-42257142D01*
X208871428Y-42114285D01*
X209014285Y-41971428D01*
D12*
X93952380Y-52452380D02*
X93476190Y-52452380D01*
X93476190Y-51452380D01*
X94285714Y-51928571D02*
X94619047Y-51928571D01*
X94761904Y-52452380D02*
X94285714Y-52452380D01*
X94285714Y-51452380D01*
X94761904Y-51452380D01*
X95190476Y-52452380D02*
X95190476Y-51452380D01*
X95428571Y-51452380D01*
X95571428Y-51500000D01*
X95666666Y-51595238D01*
X95714285Y-51690476D01*
X95761904Y-51880952D01*
X95761904Y-52023809D01*
X95714285Y-52214285D01*
X95666666Y-52309523D01*
X95571428Y-52404761D01*
X95428571Y-52452380D01*
X95190476Y-52452380D01*
X96142857Y-52404761D02*
X96238095Y-52452380D01*
X96428571Y-52452380D01*
X96523809Y-52404761D01*
X96571428Y-52309523D01*
X96571428Y-52261904D01*
X96523809Y-52166666D01*
X96428571Y-52119047D01*
X96285714Y-52119047D01*
X96190476Y-52071428D01*
X96142857Y-51976190D01*
X96142857Y-51928571D01*
X96190476Y-51833333D01*
X96285714Y-51785714D01*
X96428571Y-51785714D01*
X96523809Y-51833333D01*
X94309523Y-46952380D02*
X93976190Y-46476190D01*
X93738095Y-46952380D02*
X93738095Y-45952380D01*
X94119047Y-45952380D01*
X94214285Y-46000000D01*
X94261904Y-46047619D01*
X94309523Y-46142857D01*
X94309523Y-46285714D01*
X94261904Y-46380952D01*
X94214285Y-46428571D01*
X94119047Y-46476190D01*
X93738095Y-46476190D01*
X95261904Y-46000000D02*
X95166666Y-45952380D01*
X95023809Y-45952380D01*
X94880952Y-46000000D01*
X94785714Y-46095238D01*
X94738095Y-46190476D01*
X94690476Y-46380952D01*
X94690476Y-46523809D01*
X94738095Y-46714285D01*
X94785714Y-46809523D01*
X94880952Y-46904761D01*
X95023809Y-46952380D01*
X95119047Y-46952380D01*
X95261904Y-46904761D01*
X95309523Y-46857142D01*
X95309523Y-46523809D01*
X95119047Y-46523809D01*
X96071428Y-46428571D02*
X96214285Y-46476190D01*
X96261904Y-46523809D01*
X96309523Y-46619047D01*
X96309523Y-46761904D01*
X96261904Y-46857142D01*
X96214285Y-46904761D01*
X96119047Y-46952380D01*
X95738095Y-46952380D01*
X95738095Y-45952380D01*
X96071428Y-45952380D01*
X96166666Y-46000000D01*
X96214285Y-46047619D01*
X96261904Y-46142857D01*
X96261904Y-46238095D01*
X96214285Y-46333333D01*
X96166666Y-46380952D01*
X96071428Y-46428571D01*
X95738095Y-46428571D01*
D13*
X183178571Y-78178571D02*
X183178571Y-76678571D01*
X183535714Y-76678571D01*
X183750000Y-76750000D01*
X183892857Y-76892857D01*
X183964285Y-77035714D01*
X184035714Y-77321428D01*
X184035714Y-77535714D01*
X183964285Y-77821428D01*
X183892857Y-77964285D01*
X183750000Y-78107142D01*
X183535714Y-78178571D01*
X183178571Y-78178571D01*
X185464285Y-78178571D02*
X184607142Y-78178571D01*
X185035714Y-78178571D02*
X185035714Y-76678571D01*
X184892857Y-76892857D01*
X184750000Y-77035714D01*
X184607142Y-77107142D01*
X186750000Y-76678571D02*
X186464285Y-76678571D01*
X186321428Y-76750000D01*
X186250000Y-76821428D01*
X186107142Y-77035714D01*
X186035714Y-77321428D01*
X186035714Y-77892857D01*
X186107142Y-78035714D01*
X186178571Y-78107142D01*
X186321428Y-78178571D01*
X186607142Y-78178571D01*
X186750000Y-78107142D01*
X186821428Y-78035714D01*
X186892857Y-77892857D01*
X186892857Y-77535714D01*
X186821428Y-77392857D01*
X186750000Y-77321428D01*
X186607142Y-77250000D01*
X186321428Y-77250000D01*
X186178571Y-77321428D01*
X186107142Y-77392857D01*
X186035714Y-77535714D01*
X170678571Y-76678571D02*
X170678571Y-75178571D01*
X171035714Y-75178571D01*
X171250000Y-75250000D01*
X171392857Y-75392857D01*
X171464285Y-75535714D01*
X171535714Y-75821428D01*
X171535714Y-76035714D01*
X171464285Y-76321428D01*
X171392857Y-76464285D01*
X171250000Y-76607142D01*
X171035714Y-76678571D01*
X170678571Y-76678571D01*
X172964285Y-76678571D02*
X172107142Y-76678571D01*
X172535714Y-76678571D02*
X172535714Y-75178571D01*
X172392857Y-75392857D01*
X172250000Y-75535714D01*
X172107142Y-75607142D01*
X174321428Y-75178571D02*
X173607142Y-75178571D01*
X173535714Y-75892857D01*
X173607142Y-75821428D01*
X173750000Y-75750000D01*
X174107142Y-75750000D01*
X174250000Y-75821428D01*
X174321428Y-75892857D01*
X174392857Y-76035714D01*
X174392857Y-76392857D01*
X174321428Y-76535714D01*
X174250000Y-76607142D01*
X174107142Y-76678571D01*
X173750000Y-76678571D01*
X173607142Y-76607142D01*
X173535714Y-76535714D01*
X158178571Y-72178571D02*
X158178571Y-70678571D01*
X158535714Y-70678571D01*
X158750000Y-70750000D01*
X158892857Y-70892857D01*
X158964285Y-71035714D01*
X159035714Y-71321428D01*
X159035714Y-71535714D01*
X158964285Y-71821428D01*
X158892857Y-71964285D01*
X158750000Y-72107142D01*
X158535714Y-72178571D01*
X158178571Y-72178571D01*
X160464285Y-72178571D02*
X159607142Y-72178571D01*
X160035714Y-72178571D02*
X160035714Y-70678571D01*
X159892857Y-70892857D01*
X159750000Y-71035714D01*
X159607142Y-71107142D01*
X161750000Y-71178571D02*
X161750000Y-72178571D01*
X161392857Y-70607142D02*
X161035714Y-71678571D01*
X161964285Y-71678571D01*
X97178571Y-72178571D02*
X97178571Y-70678571D01*
X97535714Y-70678571D01*
X97750000Y-70750000D01*
X97892857Y-70892857D01*
X97964285Y-71035714D01*
X98035714Y-71321428D01*
X98035714Y-71535714D01*
X97964285Y-71821428D01*
X97892857Y-71964285D01*
X97750000Y-72107142D01*
X97535714Y-72178571D01*
X97178571Y-72178571D01*
X99464285Y-72178571D02*
X98607142Y-72178571D01*
X99035714Y-72178571D02*
X99035714Y-70678571D01*
X98892857Y-70892857D01*
X98750000Y-71035714D01*
X98607142Y-71107142D01*
X99964285Y-70678571D02*
X100892857Y-70678571D01*
X100392857Y-71250000D01*
X100607142Y-71250000D01*
X100750000Y-71321428D01*
X100821428Y-71392857D01*
X100892857Y-71535714D01*
X100892857Y-71892857D01*
X100821428Y-72035714D01*
X100750000Y-72107142D01*
X100607142Y-72178571D01*
X100178571Y-72178571D01*
X100035714Y-72107142D01*
X99964285Y-72035714D01*
X84678571Y-75678571D02*
X84678571Y-74178571D01*
X85035714Y-74178571D01*
X85250000Y-74250000D01*
X85392857Y-74392857D01*
X85464285Y-74535714D01*
X85535714Y-74821428D01*
X85535714Y-75035714D01*
X85464285Y-75321428D01*
X85392857Y-75464285D01*
X85250000Y-75607142D01*
X85035714Y-75678571D01*
X84678571Y-75678571D01*
X86964285Y-75678571D02*
X86107142Y-75678571D01*
X86535714Y-75678571D02*
X86535714Y-74178571D01*
X86392857Y-74392857D01*
X86250000Y-74535714D01*
X86107142Y-74607142D01*
X87892857Y-74178571D02*
X88035714Y-74178571D01*
X88178571Y-74250000D01*
X88250000Y-74321428D01*
X88321428Y-74464285D01*
X88392857Y-74750000D01*
X88392857Y-75107142D01*
X88321428Y-75392857D01*
X88250000Y-75535714D01*
X88178571Y-75607142D01*
X88035714Y-75678571D01*
X87892857Y-75678571D01*
X87750000Y-75607142D01*
X87678571Y-75535714D01*
X87607142Y-75392857D01*
X87535714Y-75107142D01*
X87535714Y-74750000D01*
X87607142Y-74464285D01*
X87678571Y-74321428D01*
X87750000Y-74250000D01*
X87892857Y-74178571D01*
X72892857Y-77178571D02*
X72892857Y-75678571D01*
X73250000Y-75678571D01*
X73464285Y-75750000D01*
X73607142Y-75892857D01*
X73678571Y-76035714D01*
X73750000Y-76321428D01*
X73750000Y-76535714D01*
X73678571Y-76821428D01*
X73607142Y-76964285D01*
X73464285Y-77107142D01*
X73250000Y-77178571D01*
X72892857Y-77178571D01*
X74464285Y-77178571D02*
X74750000Y-77178571D01*
X74892857Y-77107142D01*
X74964285Y-77035714D01*
X75107142Y-76821428D01*
X75178571Y-76535714D01*
X75178571Y-75964285D01*
X75107142Y-75821428D01*
X75035714Y-75750000D01*
X74892857Y-75678571D01*
X74607142Y-75678571D01*
X74464285Y-75750000D01*
X74392857Y-75821428D01*
X74321428Y-75964285D01*
X74321428Y-76321428D01*
X74392857Y-76464285D01*
X74464285Y-76535714D01*
X74607142Y-76607142D01*
X74892857Y-76607142D01*
X75035714Y-76535714D01*
X75107142Y-76464285D01*
X75178571Y-76321428D01*
X48857142Y-66750000D02*
X48714285Y-66678571D01*
X48500000Y-66678571D01*
X48285714Y-66750000D01*
X48142857Y-66892857D01*
X48071428Y-67035714D01*
X48000000Y-67321428D01*
X48000000Y-67535714D01*
X48071428Y-67821428D01*
X48142857Y-67964285D01*
X48285714Y-68107142D01*
X48500000Y-68178571D01*
X48642857Y-68178571D01*
X48857142Y-68107142D01*
X48928571Y-68035714D01*
X48928571Y-67535714D01*
X48642857Y-67535714D01*
X49571428Y-68178571D02*
X49571428Y-66678571D01*
X50428571Y-68178571D01*
X50428571Y-66678571D01*
X51142857Y-68178571D02*
X51142857Y-66678571D01*
X51500000Y-66678571D01*
X51714285Y-66750000D01*
X51857142Y-66892857D01*
X51928571Y-67035714D01*
X52000000Y-67321428D01*
X52000000Y-67535714D01*
X51928571Y-67821428D01*
X51857142Y-67964285D01*
X51714285Y-68107142D01*
X51500000Y-68178571D01*
X51142857Y-68178571D01*
D11*
X49734677Y-64933531D02*
G75*
G02X49027571Y-64226425I0J707106D01*
G01*
X49027570Y-56448251D02*
X49027570Y-64226425D01*
X56805745Y-64933532D02*
X49734677Y-64933532D01*
X57512851Y-64226425D02*
G75*
G02X56805745Y-64933531I-707106J0D01*
G01*
X49027571Y-56448251D02*
G75*
G02X49734677Y-55741145I707106J0D01*
G01*
X56805745Y-55741146D02*
G75*
G02X57512850Y-56448251I0J-707105D01*
G01*
X57512851Y-56448251D02*
X57512851Y-64226425D01*
X49734677Y-55741144D02*
X56805745Y-55741144D01*
D12*
X49445211Y-56689881D02*
X49930925Y-56689881D01*
X49688068Y-57539881D02*
X49688068Y-56689881D01*
X50538068Y-57499405D02*
X50457115Y-57539881D01*
X50295211Y-57539881D01*
X50214258Y-57499405D01*
X50173782Y-57418453D01*
X50173782Y-57094643D01*
X50214258Y-57013691D01*
X50295211Y-56973215D01*
X50457115Y-56973215D01*
X50538068Y-57013691D01*
X50578544Y-57094643D01*
X50578544Y-57175596D01*
X50173782Y-57256548D01*
X50942830Y-57539881D02*
X50942830Y-56973215D01*
X50942830Y-57054167D02*
X50983306Y-57013691D01*
X51064258Y-56973215D01*
X51185687Y-56973215D01*
X51266639Y-57013691D01*
X51307115Y-57094643D01*
X51307115Y-57539881D01*
X51307115Y-57094643D02*
X51347591Y-57013691D01*
X51428544Y-56973215D01*
X51549972Y-56973215D01*
X51630925Y-57013691D01*
X51671401Y-57094643D01*
X51671401Y-57539881D01*
X52076163Y-56973215D02*
X52076163Y-57823215D01*
X52076163Y-57013691D02*
X52157115Y-56973215D01*
X52319020Y-56973215D01*
X52399972Y-57013691D01*
X52440449Y-57054167D01*
X52480925Y-57135119D01*
X52480925Y-57377977D01*
X52440449Y-57458929D01*
X52399972Y-57499405D01*
X52319020Y-57539881D01*
X52157115Y-57539881D01*
X52076163Y-57499405D01*
X53169020Y-57499405D02*
X53088068Y-57539881D01*
X52926163Y-57539881D01*
X52845211Y-57499405D01*
X52804734Y-57418453D01*
X52804734Y-57094643D01*
X52845211Y-57013691D01*
X52926163Y-56973215D01*
X53088068Y-56973215D01*
X53169020Y-57013691D01*
X53209496Y-57094643D01*
X53209496Y-57175596D01*
X52804734Y-57256548D01*
X53573782Y-57539881D02*
X53573782Y-56973215D01*
X53573782Y-57135119D02*
X53614258Y-57054167D01*
X53654734Y-57013691D01*
X53735687Y-56973215D01*
X53816639Y-56973215D01*
X54464258Y-57539881D02*
X54464258Y-57094643D01*
X54423782Y-57013691D01*
X54342830Y-56973215D01*
X54180925Y-56973215D01*
X54099972Y-57013691D01*
X54464258Y-57499405D02*
X54383306Y-57539881D01*
X54180925Y-57539881D01*
X54099972Y-57499405D01*
X54059496Y-57418453D01*
X54059496Y-57337500D01*
X54099972Y-57256548D01*
X54180925Y-57216072D01*
X54383306Y-57216072D01*
X54464258Y-57175596D01*
X54747591Y-56973215D02*
X55071401Y-56973215D01*
X54869020Y-56689881D02*
X54869020Y-57418453D01*
X54909496Y-57499405D01*
X54990449Y-57539881D01*
X55071401Y-57539881D01*
X55719020Y-56973215D02*
X55719020Y-57539881D01*
X55354734Y-56973215D02*
X55354734Y-57418453D01*
X55395211Y-57499405D01*
X55476163Y-57539881D01*
X55597591Y-57539881D01*
X55678544Y-57499405D01*
X55719020Y-57458929D01*
X56123782Y-57539881D02*
X56123782Y-56973215D01*
X56123782Y-57135119D02*
X56164258Y-57054167D01*
X56204734Y-57013691D01*
X56285687Y-56973215D01*
X56366639Y-56973215D01*
X56973782Y-57499405D02*
X56892830Y-57539881D01*
X56730925Y-57539881D01*
X56649972Y-57499405D01*
X56609496Y-57418453D01*
X56609496Y-57094643D01*
X56649972Y-57013691D01*
X56730925Y-56973215D01*
X56892830Y-56973215D01*
X56973782Y-57013691D01*
X57014258Y-57094643D01*
X57014258Y-57175596D01*
X56609496Y-57256548D01*
D11*
X99000000Y-50000000D02*
G75*
G02X98500000Y-50500000I-500000J0D01*
G01*
X91000000Y-50500000D02*
G75*
G02X90500000Y-50000000I0J500000D01*
G01*
X98500000Y-50500000D02*
X91000000Y-50500000D01*
X99000000Y-39000000D02*
X99000000Y-50000000D01*
X90500000Y-39000000D02*
X90500000Y-50000000D01*
X98500000Y-38500000D02*
G75*
G02X99000000Y-39000000I0J-500000D01*
G01*
X90500000Y-39000000D02*
G75*
G02X91000000Y-38500000I500000J0D01*
G01*
X91000000Y-38500000D02*
X98500000Y-38500000D01*
D10*
X179057142Y-42342857D02*
X179057142Y-43200000D01*
X179000000Y-43371428D01*
X178885714Y-43485714D01*
X178714285Y-43542857D01*
X178600000Y-43542857D01*
X179800000Y-43542857D02*
X179685714Y-43485714D01*
X179628571Y-43428571D01*
X179571428Y-43314285D01*
X179571428Y-42971428D01*
X179628571Y-42857142D01*
X179685714Y-42800000D01*
X179800000Y-42742857D01*
X179971428Y-42742857D01*
X180085714Y-42800000D01*
X180142857Y-42857142D01*
X180200000Y-42971428D01*
X180200000Y-43314285D01*
X180142857Y-43428571D01*
X180085714Y-43485714D01*
X179971428Y-43542857D01*
X179800000Y-43542857D01*
X180600000Y-42742857D02*
X180885714Y-43542857D01*
X181171428Y-42742857D02*
X180885714Y-43542857D01*
X180771428Y-43828571D01*
X180714285Y-43885714D01*
X180600000Y-43942857D01*
X181571428Y-43485714D02*
X181685714Y-43542857D01*
X181914285Y-43542857D01*
X182028571Y-43485714D01*
X182085714Y-43371428D01*
X182085714Y-43314285D01*
X182028571Y-43200000D01*
X181914285Y-43142857D01*
X181742857Y-43142857D01*
X181628571Y-43085714D01*
X181571428Y-42971428D01*
X181571428Y-42914285D01*
X181628571Y-42800000D01*
X181742857Y-42742857D01*
X181914285Y-42742857D01*
X182028571Y-42800000D01*
X182428571Y-42742857D02*
X182885714Y-42742857D01*
X182600000Y-42342857D02*
X182600000Y-43371428D01*
X182657142Y-43485714D01*
X182771428Y-43542857D01*
X182885714Y-43542857D01*
X183285714Y-43542857D02*
X183285714Y-42742857D01*
X183285714Y-42342857D02*
X183228571Y-42400000D01*
X183285714Y-42457142D01*
X183342857Y-42400000D01*
X183285714Y-42342857D01*
X183285714Y-42457142D01*
X184371428Y-43485714D02*
X184257142Y-43542857D01*
X184028571Y-43542857D01*
X183914285Y-43485714D01*
X183857142Y-43428571D01*
X183800000Y-43314285D01*
X183800000Y-42971428D01*
X183857142Y-42857142D01*
X183914285Y-42800000D01*
X184028571Y-42742857D01*
X184257142Y-42742857D01*
X184371428Y-42800000D01*
X184885714Y-43542857D02*
X184885714Y-42342857D01*
X185000000Y-43085714D02*
X185342857Y-43542857D01*
X185342857Y-42742857D02*
X184885714Y-43200000D01*
X119414285Y-35842857D02*
X119414285Y-36814285D01*
X119471428Y-36928571D01*
X119528571Y-36985714D01*
X119642857Y-37042857D01*
X119871428Y-37042857D01*
X119985714Y-36985714D01*
X120042857Y-36928571D01*
X120100000Y-36814285D01*
X120100000Y-35842857D01*
X120842857Y-37042857D02*
X120728571Y-36985714D01*
X120671428Y-36871428D01*
X120671428Y-35842857D01*
X121128571Y-36242857D02*
X121585714Y-36242857D01*
X121300000Y-35842857D02*
X121300000Y-36871428D01*
X121357142Y-36985714D01*
X121471428Y-37042857D01*
X121585714Y-37042857D01*
X121985714Y-37042857D02*
X121985714Y-36242857D01*
X121985714Y-36471428D02*
X122042857Y-36357142D01*
X122100000Y-36300000D01*
X122214285Y-36242857D01*
X122328571Y-36242857D01*
X123242857Y-37042857D02*
X123242857Y-36414285D01*
X123185714Y-36300000D01*
X123071428Y-36242857D01*
X122842857Y-36242857D01*
X122728571Y-36300000D01*
X123242857Y-36985714D02*
X123128571Y-37042857D01*
X122842857Y-37042857D01*
X122728571Y-36985714D01*
X122671428Y-36871428D01*
X122671428Y-36757142D01*
X122728571Y-36642857D01*
X122842857Y-36585714D01*
X123128571Y-36585714D01*
X123242857Y-36528571D01*
X123757142Y-36985714D02*
X123871428Y-37042857D01*
X124100000Y-37042857D01*
X124214285Y-36985714D01*
X124271428Y-36871428D01*
X124271428Y-36814285D01*
X124214285Y-36700000D01*
X124100000Y-36642857D01*
X123928571Y-36642857D01*
X123814285Y-36585714D01*
X123757142Y-36471428D01*
X123757142Y-36414285D01*
X123814285Y-36300000D01*
X123928571Y-36242857D01*
X124100000Y-36242857D01*
X124214285Y-36300000D01*
X124957142Y-37042857D02*
X124842857Y-36985714D01*
X124785714Y-36928571D01*
X124728571Y-36814285D01*
X124728571Y-36471428D01*
X124785714Y-36357142D01*
X124842857Y-36300000D01*
X124957142Y-36242857D01*
X125128571Y-36242857D01*
X125242857Y-36300000D01*
X125300000Y-36357142D01*
X125357142Y-36471428D01*
X125357142Y-36814285D01*
X125300000Y-36928571D01*
X125242857Y-36985714D01*
X125128571Y-37042857D01*
X124957142Y-37042857D01*
X125871428Y-36242857D02*
X125871428Y-37042857D01*
X125871428Y-36357142D02*
X125928571Y-36300000D01*
X126042857Y-36242857D01*
X126214285Y-36242857D01*
X126328571Y-36300000D01*
X126385714Y-36414285D01*
X126385714Y-37042857D01*
X126957142Y-37042857D02*
X126957142Y-36242857D01*
X126957142Y-35842857D02*
X126900000Y-35900000D01*
X126957142Y-35957142D01*
X127014285Y-35900000D01*
X126957142Y-35842857D01*
X126957142Y-35957142D01*
X128042857Y-36985714D02*
X127928571Y-37042857D01*
X127700000Y-37042857D01*
X127585714Y-36985714D01*
X127528571Y-36928571D01*
X127471428Y-36814285D01*
X127471428Y-36471428D01*
X127528571Y-36357142D01*
X127585714Y-36300000D01*
X127700000Y-36242857D01*
X127928571Y-36242857D01*
X128042857Y-36300000D01*
X129928571Y-36985714D02*
X129814285Y-37042857D01*
X129585714Y-37042857D01*
X129471428Y-36985714D01*
X129414285Y-36871428D01*
X129414285Y-36414285D01*
X129471428Y-36300000D01*
X129585714Y-36242857D01*
X129814285Y-36242857D01*
X129928571Y-36300000D01*
X129985714Y-36414285D01*
X129985714Y-36528571D01*
X129414285Y-36642857D01*
X131014285Y-36985714D02*
X130900000Y-37042857D01*
X130671428Y-37042857D01*
X130557142Y-36985714D01*
X130500000Y-36928571D01*
X130442857Y-36814285D01*
X130442857Y-36471428D01*
X130500000Y-36357142D01*
X130557142Y-36300000D01*
X130671428Y-36242857D01*
X130900000Y-36242857D01*
X131014285Y-36300000D01*
X131528571Y-37042857D02*
X131528571Y-35842857D01*
X132042857Y-37042857D02*
X132042857Y-36414285D01*
X131985714Y-36300000D01*
X131871428Y-36242857D01*
X131700000Y-36242857D01*
X131585714Y-36300000D01*
X131528571Y-36357142D01*
X132785714Y-37042857D02*
X132671428Y-36985714D01*
X132614285Y-36928571D01*
X132557142Y-36814285D01*
X132557142Y-36471428D01*
X132614285Y-36357142D01*
X132671428Y-36300000D01*
X132785714Y-36242857D01*
X132957142Y-36242857D01*
X133071428Y-36300000D01*
X133128571Y-36357142D01*
X133185714Y-36471428D01*
X133185714Y-36814285D01*
X133128571Y-36928571D01*
X133071428Y-36985714D01*
X132957142Y-37042857D01*
X132785714Y-37042857D01*
X135128571Y-37042857D02*
X135128571Y-35842857D01*
X135128571Y-36985714D02*
X135014285Y-37042857D01*
X134785714Y-37042857D01*
X134671428Y-36985714D01*
X134614285Y-36928571D01*
X134557142Y-36814285D01*
X134557142Y-36471428D01*
X134614285Y-36357142D01*
X134671428Y-36300000D01*
X134785714Y-36242857D01*
X135014285Y-36242857D01*
X135128571Y-36300000D01*
X136157142Y-36985714D02*
X136042857Y-37042857D01*
X135814285Y-37042857D01*
X135700000Y-36985714D01*
X135642857Y-36871428D01*
X135642857Y-36414285D01*
X135700000Y-36300000D01*
X135814285Y-36242857D01*
X136042857Y-36242857D01*
X136157142Y-36300000D01*
X136214285Y-36414285D01*
X136214285Y-36528571D01*
X135642857Y-36642857D01*
X136557142Y-36242857D02*
X137014285Y-36242857D01*
X136728571Y-35842857D02*
X136728571Y-36871428D01*
X136785714Y-36985714D01*
X136900000Y-37042857D01*
X137014285Y-37042857D01*
X137871428Y-36985714D02*
X137757142Y-37042857D01*
X137528571Y-37042857D01*
X137414285Y-36985714D01*
X137357142Y-36871428D01*
X137357142Y-36414285D01*
X137414285Y-36300000D01*
X137528571Y-36242857D01*
X137757142Y-36242857D01*
X137871428Y-36300000D01*
X137928571Y-36414285D01*
X137928571Y-36528571D01*
X137357142Y-36642857D01*
X138957142Y-36985714D02*
X138842857Y-37042857D01*
X138614285Y-37042857D01*
X138500000Y-36985714D01*
X138442857Y-36928571D01*
X138385714Y-36814285D01*
X138385714Y-36471428D01*
X138442857Y-36357142D01*
X138500000Y-36300000D01*
X138614285Y-36242857D01*
X138842857Y-36242857D01*
X138957142Y-36300000D01*
X139300000Y-36242857D02*
X139757142Y-36242857D01*
X139471428Y-35842857D02*
X139471428Y-36871428D01*
X139528571Y-36985714D01*
X139642857Y-37042857D01*
X139757142Y-37042857D01*
D12*
X102785714Y-35857142D02*
X102738095Y-35904761D01*
X102595238Y-35952380D01*
X102500000Y-35952380D01*
X102357142Y-35904761D01*
X102261904Y-35809523D01*
X102214285Y-35714285D01*
X102166666Y-35523809D01*
X102166666Y-35380952D01*
X102214285Y-35190476D01*
X102261904Y-35095238D01*
X102357142Y-35000000D01*
X102500000Y-34952380D01*
X102595238Y-34952380D01*
X102738095Y-35000000D01*
X102785714Y-35047619D01*
X103214285Y-35952380D02*
X103214285Y-34952380D01*
X103214285Y-35428571D02*
X103785714Y-35428571D01*
X103785714Y-35952380D02*
X103785714Y-34952380D01*
X104785714Y-35000000D02*
X104690476Y-34952380D01*
X104547619Y-34952380D01*
X104404761Y-35000000D01*
X104309523Y-35095238D01*
X104261904Y-35190476D01*
X104214285Y-35380952D01*
X104214285Y-35523809D01*
X104261904Y-35714285D01*
X104309523Y-35809523D01*
X104404761Y-35904761D01*
X104547619Y-35952380D01*
X104642857Y-35952380D01*
X104785714Y-35904761D01*
X104833333Y-35857142D01*
X104833333Y-35523809D01*
X104642857Y-35523809D01*
X98428571Y-35428571D02*
X98761904Y-35428571D01*
X98904761Y-35952380D02*
X98428571Y-35952380D01*
X98428571Y-34952380D01*
X98904761Y-34952380D01*
X99238095Y-34952380D02*
X99904761Y-35952380D01*
X99904761Y-34952380D02*
X99238095Y-35952380D01*
X100142857Y-34952380D02*
X100714285Y-34952380D01*
X100428571Y-35952380D02*
X100428571Y-34952380D01*
X169833333Y-26952380D02*
X169500000Y-26476190D01*
X169261904Y-26952380D02*
X169261904Y-25952380D01*
X169642857Y-25952380D01*
X169738095Y-26000000D01*
X169785714Y-26047619D01*
X169833333Y-26142857D01*
X169833333Y-26285714D01*
X169785714Y-26380952D01*
X169738095Y-26428571D01*
X169642857Y-26476190D01*
X169261904Y-26476190D01*
X170166666Y-25952380D02*
X170833333Y-26952380D01*
X170833333Y-25952380D02*
X170166666Y-26952380D01*
X155738095Y-25952380D02*
X156309523Y-25952380D01*
X156023809Y-26952380D02*
X156023809Y-25952380D01*
X156547619Y-25952380D02*
X157214285Y-26952380D01*
X157214285Y-25952380D02*
X156547619Y-26952380D01*
X201547619Y-31452380D02*
X201214285Y-30976190D01*
X200976190Y-31452380D02*
X200976190Y-30452380D01*
X201357142Y-30452380D01*
X201452380Y-30500000D01*
X201500000Y-30547619D01*
X201547619Y-30642857D01*
X201547619Y-30785714D01*
X201500000Y-30880952D01*
X201452380Y-30928571D01*
X201357142Y-30976190D01*
X200976190Y-30976190D01*
X201976190Y-30928571D02*
X202309523Y-30928571D01*
X202452380Y-31452380D02*
X201976190Y-31452380D01*
X201976190Y-30452380D01*
X202452380Y-30452380D01*
X202833333Y-31404761D02*
X202976190Y-31452380D01*
X203214285Y-31452380D01*
X203309523Y-31404761D01*
X203357142Y-31357142D01*
X203404761Y-31261904D01*
X203404761Y-31166666D01*
X203357142Y-31071428D01*
X203309523Y-31023809D01*
X203214285Y-30976190D01*
X203023809Y-30928571D01*
X202928571Y-30880952D01*
X202880952Y-30833333D01*
X202833333Y-30738095D01*
X202833333Y-30642857D01*
X202880952Y-30547619D01*
X202928571Y-30500000D01*
X203023809Y-30452380D01*
X203261904Y-30452380D01*
X203404761Y-30500000D01*
X203833333Y-30928571D02*
X204166666Y-30928571D01*
X204309523Y-31452380D02*
X203833333Y-31452380D01*
X203833333Y-30452380D01*
X204309523Y-30452380D01*
X204595238Y-30452380D02*
X205166666Y-30452380D01*
X204880952Y-31452380D02*
X204880952Y-30452380D01*
X177285714Y-32452380D02*
X176714285Y-32452380D01*
X177000000Y-32452380D02*
X177000000Y-31452380D01*
X176904761Y-31595238D01*
X176809523Y-31690476D01*
X176714285Y-31738095D01*
D10*
X182085714Y-32842857D02*
X182085714Y-33814285D01*
X182142857Y-33928571D01*
X182200000Y-33985714D01*
X182314285Y-34042857D01*
X182542857Y-34042857D01*
X182657142Y-33985714D01*
X182714285Y-33928571D01*
X182771428Y-33814285D01*
X182771428Y-32842857D01*
X183342857Y-33414285D02*
X183742857Y-33414285D01*
X183914285Y-34042857D02*
X183342857Y-34042857D01*
X183342857Y-32842857D01*
X183914285Y-32842857D01*
X184314285Y-32842857D02*
X185114285Y-34042857D01*
X185114285Y-32842857D02*
X184314285Y-34042857D01*
X185400000Y-32842857D02*
X186085714Y-32842857D01*
X185742857Y-34042857D02*
X185742857Y-32842857D01*
X88300000Y-35042857D02*
X88300000Y-33842857D01*
X88757142Y-33842857D01*
X88871428Y-33900000D01*
X88928571Y-33957142D01*
X88985714Y-34071428D01*
X88985714Y-34242857D01*
X88928571Y-34357142D01*
X88871428Y-34414285D01*
X88757142Y-34471428D01*
X88300000Y-34471428D01*
X89500000Y-35042857D02*
X89500000Y-33842857D01*
X90757142Y-35042857D02*
X90357142Y-34471428D01*
X90071428Y-35042857D02*
X90071428Y-33842857D01*
X90528571Y-33842857D01*
X90642857Y-33900000D01*
X90700000Y-33957142D01*
X90757142Y-34071428D01*
X90757142Y-34242857D01*
X90700000Y-34357142D01*
X90642857Y-34414285D01*
X90528571Y-34471428D01*
X90071428Y-34471428D01*
X76900000Y-26542857D02*
X76900000Y-25342857D01*
X78157142Y-26542857D02*
X77757142Y-25971428D01*
X77471428Y-26542857D02*
X77471428Y-25342857D01*
X77928571Y-25342857D01*
X78042857Y-25400000D01*
X78100000Y-25457142D01*
X78157142Y-25571428D01*
X78157142Y-25742857D01*
X78100000Y-25857142D01*
X78042857Y-25914285D01*
X77928571Y-25971428D01*
X77471428Y-25971428D01*
X74700000Y-28542857D02*
X74300000Y-27971428D01*
X74014285Y-28542857D02*
X74014285Y-27342857D01*
X74471428Y-27342857D01*
X74585714Y-27400000D01*
X74642857Y-27457142D01*
X74700000Y-27571428D01*
X74700000Y-27742857D01*
X74642857Y-27857142D01*
X74585714Y-27914285D01*
X74471428Y-27971428D01*
X74014285Y-27971428D01*
X75671428Y-28485714D02*
X75557142Y-28542857D01*
X75328571Y-28542857D01*
X75214285Y-28485714D01*
X75157142Y-28371428D01*
X75157142Y-27914285D01*
X75214285Y-27800000D01*
X75328571Y-27742857D01*
X75557142Y-27742857D01*
X75671428Y-27800000D01*
X75728571Y-27914285D01*
X75728571Y-28028571D01*
X75157142Y-28142857D01*
X76757142Y-28485714D02*
X76642857Y-28542857D01*
X76414285Y-28542857D01*
X76300000Y-28485714D01*
X76242857Y-28428571D01*
X76185714Y-28314285D01*
X76185714Y-27971428D01*
X76242857Y-27857142D01*
X76300000Y-27800000D01*
X76414285Y-27742857D01*
X76642857Y-27742857D01*
X76757142Y-27800000D01*
X77728571Y-28485714D02*
X77614285Y-28542857D01*
X77385714Y-28542857D01*
X77271428Y-28485714D01*
X77214285Y-28371428D01*
X77214285Y-27914285D01*
X77271428Y-27800000D01*
X77385714Y-27742857D01*
X77614285Y-27742857D01*
X77728571Y-27800000D01*
X77785714Y-27914285D01*
X77785714Y-28028571D01*
X77214285Y-28142857D01*
X78300000Y-28542857D02*
X78300000Y-27742857D01*
X78300000Y-27342857D02*
X78242857Y-27400000D01*
X78300000Y-27457142D01*
X78357142Y-27400000D01*
X78300000Y-27342857D01*
X78300000Y-27457142D01*
X78757142Y-27742857D02*
X79042857Y-28542857D01*
X79328571Y-27742857D01*
X80242857Y-28485714D02*
X80128571Y-28542857D01*
X79900000Y-28542857D01*
X79785714Y-28485714D01*
X79728571Y-28371428D01*
X79728571Y-27914285D01*
X79785714Y-27800000D01*
X79900000Y-27742857D01*
X80128571Y-27742857D01*
X80242857Y-27800000D01*
X80300000Y-27914285D01*
X80300000Y-28028571D01*
X79728571Y-28142857D01*
X80814285Y-28542857D02*
X80814285Y-27742857D01*
X80814285Y-27971428D02*
X80871428Y-27857142D01*
X80928571Y-27800000D01*
X81042857Y-27742857D01*
X81157142Y-27742857D01*
X63400000Y-35042857D02*
X63400000Y-33842857D01*
X64657142Y-35042857D02*
X64257142Y-34471428D01*
X63971428Y-35042857D02*
X63971428Y-33842857D01*
X64428571Y-33842857D01*
X64542857Y-33900000D01*
X64600000Y-33957142D01*
X64657142Y-34071428D01*
X64657142Y-34242857D01*
X64600000Y-34357142D01*
X64542857Y-34414285D01*
X64428571Y-34471428D01*
X63971428Y-34471428D01*
X66657142Y-35042857D02*
X66085714Y-35042857D01*
X66085714Y-33842857D01*
X67514285Y-34985714D02*
X67400000Y-35042857D01*
X67171428Y-35042857D01*
X67057142Y-34985714D01*
X67000000Y-34871428D01*
X67000000Y-34414285D01*
X67057142Y-34300000D01*
X67171428Y-34242857D01*
X67400000Y-34242857D01*
X67514285Y-34300000D01*
X67571428Y-34414285D01*
X67571428Y-34528571D01*
X67000000Y-34642857D01*
X68600000Y-35042857D02*
X68600000Y-33842857D01*
X68600000Y-34985714D02*
X68485714Y-35042857D01*
X68257142Y-35042857D01*
X68142857Y-34985714D01*
X68085714Y-34928571D01*
X68028571Y-34814285D01*
X68028571Y-34471428D01*
X68085714Y-34357142D01*
X68142857Y-34300000D01*
X68257142Y-34242857D01*
X68485714Y-34242857D01*
X68600000Y-34300000D01*
X54185714Y-52414285D02*
X54357142Y-52471428D01*
X54414285Y-52528571D01*
X54471428Y-52642857D01*
X54471428Y-52814285D01*
X54414285Y-52928571D01*
X54357142Y-52985714D01*
X54242857Y-53042857D01*
X53785714Y-53042857D01*
X53785714Y-51842857D01*
X54185714Y-51842857D01*
X54300000Y-51900000D01*
X54357142Y-51957142D01*
X54414285Y-52071428D01*
X54414285Y-52185714D01*
X54357142Y-52300000D01*
X54300000Y-52357142D01*
X54185714Y-52414285D01*
X53785714Y-52414285D01*
X55500000Y-52242857D02*
X55500000Y-53042857D01*
X54985714Y-52242857D02*
X54985714Y-52871428D01*
X55042857Y-52985714D01*
X55157142Y-53042857D01*
X55328571Y-53042857D01*
X55442857Y-52985714D01*
X55500000Y-52928571D01*
X55957142Y-52242857D02*
X56585714Y-52242857D01*
X55957142Y-53042857D01*
X56585714Y-53042857D01*
X56928571Y-52242857D02*
X57557142Y-52242857D01*
X56928571Y-53042857D01*
X57557142Y-53042857D01*
X58471428Y-52985714D02*
X58357142Y-53042857D01*
X58128571Y-53042857D01*
X58014285Y-52985714D01*
X57957142Y-52871428D01*
X57957142Y-52414285D01*
X58014285Y-52300000D01*
X58128571Y-52242857D01*
X58357142Y-52242857D01*
X58471428Y-52300000D01*
X58528571Y-52414285D01*
X58528571Y-52528571D01*
X57957142Y-52642857D01*
X59042857Y-53042857D02*
X59042857Y-52242857D01*
X59042857Y-52471428D02*
X59100000Y-52357142D01*
X59157142Y-52300000D01*
X59271428Y-52242857D01*
X59385714Y-52242857D01*
X68700000Y-68542857D02*
X68700000Y-67342857D01*
X69100000Y-68200000D01*
X69500000Y-67342857D01*
X69500000Y-68542857D01*
X70071428Y-68542857D02*
X70071428Y-67742857D01*
X70071428Y-67342857D02*
X70014285Y-67400000D01*
X70071428Y-67457142D01*
X70128571Y-67400000D01*
X70071428Y-67342857D01*
X70071428Y-67457142D01*
X71157142Y-68485714D02*
X71042857Y-68542857D01*
X70814285Y-68542857D01*
X70700000Y-68485714D01*
X70642857Y-68428571D01*
X70585714Y-68314285D01*
X70585714Y-67971428D01*
X70642857Y-67857142D01*
X70700000Y-67800000D01*
X70814285Y-67742857D01*
X71042857Y-67742857D01*
X71157142Y-67800000D01*
X71671428Y-68542857D02*
X71671428Y-67742857D01*
X71671428Y-67971428D02*
X71728571Y-67857142D01*
X71785714Y-67800000D01*
X71900000Y-67742857D01*
X72014285Y-67742857D01*
X72585714Y-68542857D02*
X72471428Y-68485714D01*
X72414285Y-68428571D01*
X72357142Y-68314285D01*
X72357142Y-67971428D01*
X72414285Y-67857142D01*
X72471428Y-67800000D01*
X72585714Y-67742857D01*
X72757142Y-67742857D01*
X72871428Y-67800000D01*
X72928571Y-67857142D01*
X72985714Y-67971428D01*
X72985714Y-68314285D01*
X72928571Y-68428571D01*
X72871428Y-68485714D01*
X72757142Y-68542857D01*
X72585714Y-68542857D01*
X73500000Y-67742857D02*
X73500000Y-68942857D01*
X73500000Y-67800000D02*
X73614285Y-67742857D01*
X73842857Y-67742857D01*
X73957142Y-67800000D01*
X74014285Y-67857142D01*
X74071428Y-67971428D01*
X74071428Y-68314285D01*
X74014285Y-68428571D01*
X73957142Y-68485714D01*
X73842857Y-68542857D01*
X73614285Y-68542857D01*
X73500000Y-68485714D01*
X74585714Y-68542857D02*
X74585714Y-67342857D01*
X75100000Y-68542857D02*
X75100000Y-67914285D01*
X75042857Y-67800000D01*
X74928571Y-67742857D01*
X74757142Y-67742857D01*
X74642857Y-67800000D01*
X74585714Y-67857142D01*
X75842857Y-68542857D02*
X75728571Y-68485714D01*
X75671428Y-68428571D01*
X75614285Y-68314285D01*
X75614285Y-67971428D01*
X75671428Y-67857142D01*
X75728571Y-67800000D01*
X75842857Y-67742857D01*
X76014285Y-67742857D01*
X76128571Y-67800000D01*
X76185714Y-67857142D01*
X76242857Y-67971428D01*
X76242857Y-68314285D01*
X76185714Y-68428571D01*
X76128571Y-68485714D01*
X76014285Y-68542857D01*
X75842857Y-68542857D01*
X76757142Y-67742857D02*
X76757142Y-68542857D01*
X76757142Y-67857142D02*
X76814285Y-67800000D01*
X76928571Y-67742857D01*
X77100000Y-67742857D01*
X77214285Y-67800000D01*
X77271428Y-67914285D01*
X77271428Y-68542857D01*
X78300000Y-68485714D02*
X78185714Y-68542857D01*
X77957142Y-68542857D01*
X77842857Y-68485714D01*
X77785714Y-68371428D01*
X77785714Y-67914285D01*
X77842857Y-67800000D01*
X77957142Y-67742857D01*
X78185714Y-67742857D01*
X78300000Y-67800000D01*
X78357142Y-67914285D01*
X78357142Y-68028571D01*
X77785714Y-68142857D01*
D12*
X76547619Y-48952380D02*
X76071428Y-48952380D01*
X76071428Y-47952380D01*
X76880952Y-48952380D02*
X76880952Y-48285714D01*
X76880952Y-47952380D02*
X76833333Y-48000000D01*
X76880952Y-48047619D01*
X76928571Y-48000000D01*
X76880952Y-47952380D01*
X76880952Y-48047619D01*
X77785714Y-48285714D02*
X77785714Y-49095238D01*
X77738095Y-49190476D01*
X77690476Y-49238095D01*
X77595238Y-49285714D01*
X77452380Y-49285714D01*
X77357142Y-49238095D01*
X77785714Y-48904761D02*
X77690476Y-48952380D01*
X77500000Y-48952380D01*
X77404761Y-48904761D01*
X77357142Y-48857142D01*
X77309523Y-48761904D01*
X77309523Y-48476190D01*
X77357142Y-48380952D01*
X77404761Y-48333333D01*
X77500000Y-48285714D01*
X77690476Y-48285714D01*
X77785714Y-48333333D01*
X78261904Y-48952380D02*
X78261904Y-47952380D01*
X78690476Y-48952380D02*
X78690476Y-48428571D01*
X78642857Y-48333333D01*
X78547619Y-48285714D01*
X78404761Y-48285714D01*
X78309523Y-48333333D01*
X78261904Y-48380952D01*
X79023809Y-48285714D02*
X79404761Y-48285714D01*
X79166666Y-47952380D02*
X79166666Y-48809523D01*
X79214285Y-48904761D01*
X79309523Y-48952380D01*
X79404761Y-48952380D01*
X80452380Y-48904761D02*
X80547619Y-48952380D01*
X80738095Y-48952380D01*
X80833333Y-48904761D01*
X80880952Y-48809523D01*
X80880952Y-48761904D01*
X80833333Y-48666666D01*
X80738095Y-48619047D01*
X80595238Y-48619047D01*
X80500000Y-48571428D01*
X80452380Y-48476190D01*
X80452380Y-48428571D01*
X80500000Y-48333333D01*
X80595238Y-48285714D01*
X80738095Y-48285714D01*
X80833333Y-48333333D01*
X81690476Y-48904761D02*
X81595238Y-48952380D01*
X81404761Y-48952380D01*
X81309523Y-48904761D01*
X81261904Y-48809523D01*
X81261904Y-48428571D01*
X81309523Y-48333333D01*
X81404761Y-48285714D01*
X81595238Y-48285714D01*
X81690476Y-48333333D01*
X81738095Y-48428571D01*
X81738095Y-48523809D01*
X81261904Y-48619047D01*
X82166666Y-48285714D02*
X82166666Y-48952380D01*
X82166666Y-48380952D02*
X82214285Y-48333333D01*
X82309523Y-48285714D01*
X82452380Y-48285714D01*
X82547619Y-48333333D01*
X82595238Y-48428571D01*
X82595238Y-48952380D01*
X83023809Y-48904761D02*
X83119047Y-48952380D01*
X83309523Y-48952380D01*
X83404761Y-48904761D01*
X83452380Y-48809523D01*
X83452380Y-48761904D01*
X83404761Y-48666666D01*
X83309523Y-48619047D01*
X83166666Y-48619047D01*
X83071428Y-48571428D01*
X83023809Y-48476190D01*
X83023809Y-48428571D01*
X83071428Y-48333333D01*
X83166666Y-48285714D01*
X83309523Y-48285714D01*
X83404761Y-48333333D01*
X84023809Y-48952380D02*
X83928571Y-48904761D01*
X83880952Y-48857142D01*
X83833333Y-48761904D01*
X83833333Y-48476190D01*
X83880952Y-48380952D01*
X83928571Y-48333333D01*
X84023809Y-48285714D01*
X84166666Y-48285714D01*
X84261904Y-48333333D01*
X84309523Y-48380952D01*
X84357142Y-48476190D01*
X84357142Y-48761904D01*
X84309523Y-48857142D01*
X84261904Y-48904761D01*
X84166666Y-48952380D01*
X84023809Y-48952380D01*
X84785714Y-48952380D02*
X84785714Y-48285714D01*
X84785714Y-48476190D02*
X84833333Y-48380952D01*
X84880952Y-48333333D01*
X84976190Y-48285714D01*
X85071428Y-48285714D01*
X104571428Y-68628571D02*
X104714285Y-68676190D01*
X104761904Y-68723809D01*
X104809523Y-68819047D01*
X104809523Y-68961904D01*
X104761904Y-69057142D01*
X104714285Y-69104761D01*
X104619047Y-69152380D01*
X104238095Y-69152380D01*
X104238095Y-68152380D01*
X104571428Y-68152380D01*
X104666666Y-68200000D01*
X104714285Y-68247619D01*
X104761904Y-68342857D01*
X104761904Y-68438095D01*
X104714285Y-68533333D01*
X104666666Y-68580952D01*
X104571428Y-68628571D01*
X104238095Y-68628571D01*
X104809523Y-72452380D02*
X104476190Y-71976190D01*
X104238095Y-72452380D02*
X104238095Y-71452380D01*
X104619047Y-71452380D01*
X104714285Y-71500000D01*
X104761904Y-71547619D01*
X104809523Y-71642857D01*
X104809523Y-71785714D01*
X104761904Y-71880952D01*
X104714285Y-71928571D01*
X104619047Y-71976190D01*
X104238095Y-71976190D01*
X104500000Y-75276190D02*
X104500000Y-75752380D01*
X104166666Y-74752380D02*
X104500000Y-75276190D01*
X104833333Y-74752380D01*
X154571428Y-68628571D02*
X154714285Y-68676190D01*
X154761904Y-68723809D01*
X154809523Y-68819047D01*
X154809523Y-68961904D01*
X154761904Y-69057142D01*
X154714285Y-69104761D01*
X154619047Y-69152380D01*
X154238095Y-69152380D01*
X154238095Y-68152380D01*
X154571428Y-68152380D01*
X154666666Y-68200000D01*
X154714285Y-68247619D01*
X154761904Y-68342857D01*
X154761904Y-68438095D01*
X154714285Y-68533333D01*
X154666666Y-68580952D01*
X154571428Y-68628571D01*
X154238095Y-68628571D01*
X154809523Y-72452380D02*
X154476190Y-71976190D01*
X154238095Y-72452380D02*
X154238095Y-71452380D01*
X154619047Y-71452380D01*
X154714285Y-71500000D01*
X154761904Y-71547619D01*
X154809523Y-71642857D01*
X154809523Y-71785714D01*
X154761904Y-71880952D01*
X154714285Y-71928571D01*
X154619047Y-71976190D01*
X154238095Y-71976190D01*
X154500000Y-75276190D02*
X154500000Y-75752380D01*
X154166666Y-74752380D02*
X154500000Y-75276190D01*
X154833333Y-74752380D01*
G04 #@! TO.C,U9*
X110370000Y-37950000D02*
X148370000Y-37950000D01*
X110370000Y-75950000D02*
X110370000Y-37950000D01*
X148370000Y-75950000D02*
X110370000Y-75950000D01*
X148370000Y-37950000D02*
X148370000Y-75950000D01*
X147785000Y-57585000D02*
X148420000Y-57585000D01*
X147785000Y-56315000D02*
X147785000Y-57585000D01*
X148420000Y-56315000D02*
X147785000Y-56315000D01*
X130005000Y-38535000D02*
X130005000Y-37900000D01*
X128735000Y-38535000D02*
X130005000Y-38535000D01*
X128735000Y-37900000D02*
X128735000Y-38535000D01*
X109685000Y-57585000D02*
X110320000Y-57585000D01*
X109685000Y-56315000D02*
X109685000Y-57585000D01*
X110320000Y-56315000D02*
X109685000Y-56315000D01*
X130005000Y-76635000D02*
X130005000Y-76000000D01*
X128735000Y-76635000D02*
X130005000Y-76635000D01*
X128735000Y-76000000D02*
X128735000Y-76635000D01*
D14*
G04 #@! TO.C,BAT_CON1*
X98485020Y-21345320D02*
X98485020Y-27662302D01*
X104565780Y-21345320D02*
X98485020Y-21345320D01*
X104565780Y-27654680D02*
X104565780Y-21345320D01*
X104560700Y-27662300D02*
X103506600Y-27662300D01*
X99493400Y-27662300D02*
X98490100Y-27662300D01*
G04 #@! TO.C,PIR1*
X93060000Y-30970000D02*
X93060000Y-28430000D01*
X87980000Y-28684000D02*
X87726000Y-28430000D01*
X88234000Y-28430000D02*
X87980000Y-28684000D01*
X90774000Y-28430000D02*
X92552000Y-28430000D01*
X90520000Y-28684000D02*
X90774000Y-28430000D01*
X90266000Y-28430000D02*
X90520000Y-28684000D01*
X88234000Y-28430000D02*
X90266000Y-28430000D01*
X92552000Y-28430000D02*
X93060000Y-28430000D01*
X92806000Y-28430000D02*
X93060000Y-28684000D01*
X93060000Y-30716000D02*
X92806000Y-30970000D01*
X85694000Y-28430000D02*
X87726000Y-28430000D01*
X85440000Y-28684000D02*
X85694000Y-28430000D01*
X85440000Y-30716000D02*
X85440000Y-28684000D01*
X85694000Y-30970000D02*
X85440000Y-30716000D01*
X87726000Y-30970000D02*
X85694000Y-30970000D01*
X87980000Y-30716000D02*
X87726000Y-30970000D01*
X88234000Y-30970000D02*
X87980000Y-30716000D01*
X90266000Y-30970000D02*
X88234000Y-30970000D01*
X90520000Y-30716000D02*
X90266000Y-30970000D01*
X90774000Y-30970000D02*
X90520000Y-30716000D01*
X92806000Y-30970000D02*
X90774000Y-30970000D01*
X93060000Y-30970000D02*
X92806000Y-30970000D01*
D12*
G04 #@! TO.C,U3*
X80890000Y-20190000D02*
X78890000Y-20190000D01*
X80890000Y-23690000D02*
X80890000Y-20190000D01*
X73890000Y-23690000D02*
X80890000Y-23690000D01*
X73890000Y-20190000D02*
X73890000Y-23690000D01*
X75890000Y-20190000D02*
X73890000Y-20190000D01*
X75890000Y-20190000D02*
G75*
G02X78890000Y-20190000I1500000J0D01*
G01*
D15*
G04 #@! TO.C,UEXT1*
X173840000Y-29445000D02*
X173840000Y-20555000D01*
X194160000Y-29445000D02*
X194160000Y-20555000D01*
X194160000Y-20555000D02*
X190985000Y-20555000D01*
X177015000Y-20555000D02*
X173840000Y-20555000D01*
X173840000Y-29445000D02*
X177015000Y-29445000D01*
X194160000Y-29445000D02*
X190985000Y-29445000D01*
D12*
G04 #@! TO.C,R7*
X82840000Y-44580000D02*
G75*
G03X82840000Y-44580000I-2540000J0D01*
G01*
D14*
G04 #@! TO.C,USB1*
X159700000Y-19100000D02*
X167100000Y-19100000D01*
X167100000Y-23600000D02*
X167100000Y-22400000D01*
X165200000Y-25100000D02*
X166200000Y-25100000D01*
X160600000Y-25100000D02*
X161600000Y-25100000D01*
X159700000Y-20100000D02*
X159700000Y-19100000D01*
X159336000Y-18000000D02*
X167464000Y-18000000D01*
X167100000Y-19100000D02*
X167100000Y-20100000D01*
X159700000Y-23600000D02*
X159700000Y-22400000D01*
X159336000Y-18071000D02*
X159717000Y-19087000D01*
X167464000Y-18071000D02*
X167083000Y-19087000D01*
D16*
G04 #@! TO.C,U4*
X54138132Y-62914369D02*
G75*
G03X54138132Y-62914369I-197566J0D01*
G01*
D14*
X52040646Y-63534129D02*
X52040646Y-58738609D01*
X54303786Y-63534129D02*
X52040646Y-63534129D01*
X54570486Y-63269969D02*
X54303786Y-63534129D01*
X54570486Y-58738609D02*
X54570486Y-63269969D01*
X52040646Y-58738609D02*
X54570486Y-58738609D01*
D16*
X55166832Y-63861789D02*
G75*
G03X55166832Y-63861789I-197566J0D01*
G01*
G04 #@! TO.C,LED6*
X103406400Y-31771400D02*
X103635000Y-31949200D01*
X103635000Y-31949200D02*
X103609600Y-31847600D01*
X103635000Y-31949200D02*
X103533400Y-31949200D01*
X103584200Y-30603000D02*
X103584200Y-31619000D01*
X102415800Y-30603000D02*
X102415800Y-31619000D01*
X103584200Y-30603000D02*
X102415800Y-30603000D01*
X102415800Y-33397000D02*
X102415800Y-32381000D01*
X103635000Y-32381000D02*
X103635000Y-33397000D01*
D17*
X103000000Y-31740000D02*
X103000000Y-32260000D01*
X103110000Y-31910000D02*
X102890000Y-31910000D01*
X103110000Y-31910000D02*
X103010000Y-32020000D01*
X102890000Y-31910000D02*
X102990000Y-32010000D01*
X103110000Y-32100000D02*
X102890000Y-32100000D01*
D18*
X102754400Y-32177800D02*
X102644400Y-32047800D01*
X102645400Y-32046200D02*
X102655400Y-32126200D01*
X102645400Y-32046200D02*
X102725400Y-32046200D01*
X102645400Y-31830800D02*
X102725400Y-31830800D01*
X102645400Y-31830800D02*
X102655400Y-31910800D01*
X102775400Y-31970800D02*
X102665400Y-31840800D01*
D16*
X103635000Y-32228600D02*
X103533400Y-32228600D01*
X103635000Y-32228600D02*
X103609600Y-32127000D01*
X103406400Y-32050800D02*
X103635000Y-32228600D01*
D14*
X103571500Y-33409700D02*
X103444500Y-33562100D01*
X102479300Y-33409700D02*
X102606300Y-33549400D01*
X103444500Y-33562100D02*
X102619000Y-33562100D01*
X102517400Y-33397000D02*
X103558800Y-33397000D01*
D16*
G04 #@! TO.C,LED4*
X95318600Y-49406400D02*
X95140800Y-49635000D01*
X95140800Y-49635000D02*
X95242400Y-49609600D01*
X95140800Y-49635000D02*
X95140800Y-49533400D01*
X96487000Y-49584200D02*
X95471000Y-49584200D01*
X96487000Y-48415800D02*
X95471000Y-48415800D01*
X96487000Y-49584200D02*
X96487000Y-48415800D01*
X93693000Y-48415800D02*
X94709000Y-48415800D01*
X94709000Y-49635000D02*
X93693000Y-49635000D01*
D17*
X95350000Y-49000000D02*
X94830000Y-49000000D01*
X95180000Y-49110000D02*
X95180000Y-48890000D01*
X95180000Y-49110000D02*
X95070000Y-49010000D01*
X95180000Y-48890000D02*
X95080000Y-48990000D01*
X94990000Y-49110000D02*
X94990000Y-48890000D01*
D18*
X94912200Y-48754400D02*
X95042200Y-48644400D01*
X95043800Y-48645400D02*
X94963800Y-48655400D01*
X95043800Y-48645400D02*
X95043800Y-48725400D01*
X95259200Y-48645400D02*
X95259200Y-48725400D01*
X95259200Y-48645400D02*
X95179200Y-48655400D01*
X95119200Y-48775400D02*
X95249200Y-48665400D01*
D16*
X94861400Y-49635000D02*
X94861400Y-49533400D01*
X94861400Y-49635000D02*
X94963000Y-49609600D01*
X95039200Y-49406400D02*
X94861400Y-49635000D01*
D14*
X93680300Y-49571500D02*
X93527900Y-49444500D01*
X93680300Y-48479300D02*
X93540600Y-48606300D01*
X93527900Y-49444500D02*
X93527900Y-48619000D01*
X93693000Y-48517400D02*
X93693000Y-49558800D01*
D16*
G04 #@! TO.C,LED3*
X100406400Y-31771400D02*
X100635000Y-31949200D01*
X100635000Y-31949200D02*
X100609600Y-31847600D01*
X100635000Y-31949200D02*
X100533400Y-31949200D01*
X100584200Y-30603000D02*
X100584200Y-31619000D01*
X99415800Y-30603000D02*
X99415800Y-31619000D01*
X100584200Y-30603000D02*
X99415800Y-30603000D01*
X99415800Y-33397000D02*
X99415800Y-32381000D01*
X100635000Y-32381000D02*
X100635000Y-33397000D01*
D17*
X100000000Y-31740000D02*
X100000000Y-32260000D01*
X100110000Y-31910000D02*
X99890000Y-31910000D01*
X100110000Y-31910000D02*
X100010000Y-32020000D01*
X99890000Y-31910000D02*
X99990000Y-32010000D01*
X100110000Y-32100000D02*
X99890000Y-32100000D01*
D18*
X99754400Y-32177800D02*
X99644400Y-32047800D01*
X99645400Y-32046200D02*
X99655400Y-32126200D01*
X99645400Y-32046200D02*
X99725400Y-32046200D01*
X99645400Y-31830800D02*
X99725400Y-31830800D01*
X99645400Y-31830800D02*
X99655400Y-31910800D01*
X99775400Y-31970800D02*
X99665400Y-31840800D01*
D16*
X100635000Y-32228600D02*
X100533400Y-32228600D01*
X100635000Y-32228600D02*
X100609600Y-32127000D01*
X100406400Y-32050800D02*
X100635000Y-32228600D01*
D14*
X100571500Y-33409700D02*
X100444500Y-33562100D01*
X99479300Y-33409700D02*
X99606300Y-33549400D01*
X100444500Y-33562100D02*
X99619000Y-33562100D01*
X99517400Y-33397000D02*
X100558800Y-33397000D01*
D16*
G04 #@! TO.C,LED2*
X156906400Y-23033400D02*
X157135000Y-23211200D01*
X157135000Y-23211200D02*
X157109600Y-23109600D01*
X157135000Y-23211200D02*
X157033400Y-23211200D01*
X157084200Y-21865000D02*
X157084200Y-22881000D01*
X155915800Y-21865000D02*
X155915800Y-22881000D01*
X157084200Y-21865000D02*
X155915800Y-21865000D01*
X155915800Y-24659000D02*
X155915800Y-23643000D01*
X157135000Y-23643000D02*
X157135000Y-24659000D01*
D17*
X156500000Y-23002000D02*
X156500000Y-23522000D01*
X156610000Y-23172000D02*
X156390000Y-23172000D01*
X156610000Y-23172000D02*
X156510000Y-23282000D01*
X156390000Y-23172000D02*
X156490000Y-23272000D01*
X156610000Y-23362000D02*
X156390000Y-23362000D01*
D18*
X156254400Y-23439800D02*
X156144400Y-23309800D01*
X156145400Y-23308200D02*
X156155400Y-23388200D01*
X156145400Y-23308200D02*
X156225400Y-23308200D01*
X156145400Y-23092800D02*
X156225400Y-23092800D01*
X156145400Y-23092800D02*
X156155400Y-23172800D01*
X156275400Y-23232800D02*
X156165400Y-23102800D01*
D16*
X157135000Y-23490600D02*
X157033400Y-23490600D01*
X157135000Y-23490600D02*
X157109600Y-23389000D01*
X156906400Y-23312800D02*
X157135000Y-23490600D01*
D14*
X157071500Y-24671700D02*
X156944500Y-24824100D01*
X155979300Y-24671700D02*
X156106300Y-24811400D01*
X156944500Y-24824100D02*
X156119000Y-24824100D01*
X156017400Y-24659000D02*
X157058800Y-24659000D01*
D16*
G04 #@! TO.C,LED1*
X170406400Y-23271400D02*
X170635000Y-23449200D01*
X170635000Y-23449200D02*
X170609600Y-23347600D01*
X170635000Y-23449200D02*
X170533400Y-23449200D01*
X170584200Y-22103000D02*
X170584200Y-23119000D01*
X169415800Y-22103000D02*
X169415800Y-23119000D01*
X170584200Y-22103000D02*
X169415800Y-22103000D01*
X169415800Y-24897000D02*
X169415800Y-23881000D01*
X170635000Y-23881000D02*
X170635000Y-24897000D01*
D17*
X170000000Y-23240000D02*
X170000000Y-23760000D01*
X170110000Y-23410000D02*
X169890000Y-23410000D01*
X170110000Y-23410000D02*
X170010000Y-23520000D01*
X169890000Y-23410000D02*
X169990000Y-23510000D01*
X170110000Y-23600000D02*
X169890000Y-23600000D01*
D18*
X169754400Y-23677800D02*
X169644400Y-23547800D01*
X169645400Y-23546200D02*
X169655400Y-23626200D01*
X169645400Y-23546200D02*
X169725400Y-23546200D01*
X169645400Y-23330800D02*
X169725400Y-23330800D01*
X169645400Y-23330800D02*
X169655400Y-23410800D01*
X169775400Y-23470800D02*
X169665400Y-23340800D01*
D16*
X170635000Y-23728600D02*
X170533400Y-23728600D01*
X170635000Y-23728600D02*
X170609600Y-23627000D01*
X170406400Y-23550800D02*
X170635000Y-23728600D01*
D14*
X170571500Y-24909700D02*
X170444500Y-25062100D01*
X169479300Y-24909700D02*
X169606300Y-25049400D01*
X170444500Y-25062100D02*
X169619000Y-25062100D01*
X169517400Y-24897000D02*
X170558800Y-24897000D01*
G04 #@! TO.C,USON1*
X134580000Y-35270000D02*
X134326000Y-35270000D01*
X134326000Y-35270000D02*
X132294000Y-35270000D01*
X132294000Y-35270000D02*
X132040000Y-35016000D01*
X132040000Y-35016000D02*
X131786000Y-35270000D01*
X131786000Y-35270000D02*
X129754000Y-35270000D01*
X129754000Y-35270000D02*
X129500000Y-35016000D01*
X129500000Y-35016000D02*
X129246000Y-35270000D01*
X129246000Y-35270000D02*
X127214000Y-35270000D01*
X127214000Y-35270000D02*
X126960000Y-35016000D01*
X126960000Y-35016000D02*
X126706000Y-35270000D01*
X126706000Y-35270000D02*
X124674000Y-35270000D01*
X124674000Y-35270000D02*
X124420000Y-35016000D01*
X124420000Y-35016000D02*
X124420000Y-32984000D01*
X124420000Y-32984000D02*
X124674000Y-32730000D01*
X124674000Y-32730000D02*
X126706000Y-32730000D01*
X126706000Y-32730000D02*
X126960000Y-32984000D01*
X126960000Y-32984000D02*
X127214000Y-32730000D01*
X127214000Y-32730000D02*
X129246000Y-32730000D01*
X134580000Y-35016000D02*
X134326000Y-35270000D01*
X134326000Y-32730000D02*
X134580000Y-32984000D01*
X134072000Y-32730000D02*
X134580000Y-32730000D01*
X129754000Y-32730000D02*
X131786000Y-32730000D01*
X131786000Y-32730000D02*
X132040000Y-32984000D01*
X132040000Y-32984000D02*
X132294000Y-32730000D01*
X132294000Y-32730000D02*
X134072000Y-32730000D01*
X129754000Y-32730000D02*
X129500000Y-32984000D01*
X129500000Y-32984000D02*
X129246000Y-32730000D01*
X134580000Y-35270000D02*
X134580000Y-32730000D01*
G04 #@! TO.C,SERVO1*
X105730000Y-75810000D02*
X108270000Y-75810000D01*
X108016000Y-70730000D02*
X108270000Y-70476000D01*
X108270000Y-70984000D02*
X108016000Y-70730000D01*
X108270000Y-73524000D02*
X108270000Y-75302000D01*
X108016000Y-73270000D02*
X108270000Y-73524000D01*
X108270000Y-73016000D02*
X108016000Y-73270000D01*
X108270000Y-70984000D02*
X108270000Y-73016000D01*
X108270000Y-75302000D02*
X108270000Y-75810000D01*
X108270000Y-75556000D02*
X108016000Y-75810000D01*
X105984000Y-75810000D02*
X105730000Y-75556000D01*
X108270000Y-68444000D02*
X108270000Y-70476000D01*
X108016000Y-68190000D02*
X108270000Y-68444000D01*
X105984000Y-68190000D02*
X108016000Y-68190000D01*
X105730000Y-68444000D02*
X105984000Y-68190000D01*
X105730000Y-70476000D02*
X105730000Y-68444000D01*
X105984000Y-70730000D02*
X105730000Y-70476000D01*
X105730000Y-70984000D02*
X105984000Y-70730000D01*
X105730000Y-73016000D02*
X105730000Y-70984000D01*
X105984000Y-73270000D02*
X105730000Y-73016000D01*
X105730000Y-73524000D02*
X105984000Y-73270000D01*
X105730000Y-75556000D02*
X105730000Y-73524000D01*
X105730000Y-75810000D02*
X105730000Y-75556000D01*
G04 #@! TO.C,SW1*
X203980000Y-34160000D02*
X203980000Y-35360000D01*
X203980000Y-35360000D02*
X201380000Y-35360000D01*
X201380000Y-34160000D02*
X201380000Y-35360000D01*
X203980000Y-34160000D02*
X201380000Y-34160000D01*
X199780000Y-36860000D02*
X205580000Y-36860000D01*
X199780000Y-32660000D02*
X199780000Y-36860000D01*
X205580000Y-32660000D02*
X199780000Y-32660000D01*
X205580000Y-36860000D02*
X205580000Y-32660000D01*
G04 #@! TO.C,SERVO2*
X150730000Y-75810000D02*
X153270000Y-75810000D01*
X153016000Y-70730000D02*
X153270000Y-70476000D01*
X153270000Y-70984000D02*
X153016000Y-70730000D01*
X153270000Y-73524000D02*
X153270000Y-75302000D01*
X153016000Y-73270000D02*
X153270000Y-73524000D01*
X153270000Y-73016000D02*
X153016000Y-73270000D01*
X153270000Y-70984000D02*
X153270000Y-73016000D01*
X153270000Y-75302000D02*
X153270000Y-75810000D01*
X153270000Y-75556000D02*
X153016000Y-75810000D01*
X150984000Y-75810000D02*
X150730000Y-75556000D01*
X153270000Y-68444000D02*
X153270000Y-70476000D01*
X153016000Y-68190000D02*
X153270000Y-68444000D01*
X150984000Y-68190000D02*
X153016000Y-68190000D01*
X150730000Y-68444000D02*
X150984000Y-68190000D01*
X150730000Y-70476000D02*
X150730000Y-68444000D01*
X150984000Y-70730000D02*
X150730000Y-70476000D01*
X150730000Y-70984000D02*
X150984000Y-70730000D01*
X150730000Y-73016000D02*
X150730000Y-70984000D01*
X150984000Y-73270000D02*
X150730000Y-73016000D01*
X150730000Y-73524000D02*
X150984000Y-73270000D01*
X150730000Y-75556000D02*
X150730000Y-73524000D01*
X150730000Y-75810000D02*
X150730000Y-75556000D01*
D12*
G04 #@! TO.C,MK1*
X78780000Y-61300000D02*
G75*
G03X78780000Y-61300000I-4850000J0D01*
G01*
D14*
G04 #@! TO.C,LED7*
X63838572Y-27592166D02*
G75*
G02X63840000Y-30890000I2501428J-1647834D01*
G01*
X67640000Y-27640000D02*
X67640000Y-28140000D01*
X65040000Y-27640000D02*
X65040000Y-28140000D01*
D16*
X66594000Y-29840000D02*
X66594000Y-29967000D01*
X66594000Y-29967000D02*
X66467000Y-29840000D01*
X66086000Y-28697000D02*
X66594000Y-29205000D01*
X66594000Y-29205000D02*
X66086000Y-29205000D01*
X66086000Y-29205000D02*
X66594000Y-29840000D01*
X66594000Y-29840000D02*
X66594000Y-29713000D01*
X66594000Y-29713000D02*
X66340000Y-29840000D01*
X66340000Y-29840000D02*
X66594000Y-29967000D01*
D14*
X66840000Y-27640000D02*
X67640000Y-27640000D01*
X65040000Y-27640000D02*
X65840000Y-27640000D01*
X65840000Y-28140000D02*
X65840000Y-27140000D01*
X66840000Y-27140000D02*
X66840000Y-28140000D01*
X66840000Y-28140000D02*
X65940000Y-27640000D01*
X65940000Y-27640000D02*
X66840000Y-27140000D01*
X68840000Y-29240000D02*
G75*
G03X68840000Y-29240000I-2500000J0D01*
G01*
X63840000Y-30890000D02*
X63840000Y-27590000D01*
X63840000Y-27590000D02*
X63840000Y-27590000D01*
D19*
G04 #@! TO.C,JS1*
X182505000Y-61650000D02*
G75*
G03X182505000Y-61650000I-635000J0D01*
G01*
X187458000Y-47426000D02*
X176282000Y-47426000D01*
X186696000Y-73080000D02*
X177044000Y-73080000D01*
X186696000Y-73080000D02*
X186696000Y-70540000D01*
X177044000Y-73080000D02*
X177044000Y-70540000D01*
X186696000Y-70540000D02*
X189490000Y-70540000D01*
X177044000Y-70540000D02*
X174250000Y-70540000D01*
X191395000Y-57586000D02*
X191395000Y-65714000D01*
X189490000Y-57586000D02*
X189490000Y-54665000D01*
X189490000Y-65714000D02*
X189490000Y-70540000D01*
X189490000Y-57586000D02*
X191395000Y-57586000D01*
X189490000Y-65714000D02*
X191395000Y-65714000D01*
X189490000Y-54665000D02*
X187458000Y-54665000D01*
X176282000Y-54665000D02*
X174250000Y-54665000D01*
X187458000Y-47426000D02*
X187458000Y-54665000D01*
X176282000Y-47426000D02*
X176282000Y-54665000D01*
X174250000Y-56824000D02*
X170694000Y-56824000D01*
X174250000Y-66476000D02*
X170694000Y-66476000D01*
X170694000Y-56824000D02*
X170694000Y-66476000D01*
X174250000Y-56824000D02*
X174250000Y-54665000D01*
X174250000Y-66476000D02*
X174250000Y-70540000D01*
D14*
G04 #@! TO.C,ICSP1*
X144946000Y-39690000D02*
X145200000Y-39944000D01*
X142914000Y-39690000D02*
X144946000Y-39690000D01*
X142660000Y-39944000D02*
X142914000Y-39690000D01*
X142660000Y-41976000D02*
X142660000Y-39944000D01*
X142914000Y-42230000D02*
X142660000Y-41976000D01*
X142660000Y-45024000D02*
X142914000Y-44770000D01*
X142660000Y-47056000D02*
X142660000Y-45024000D01*
X142914000Y-44770000D02*
X142660000Y-44516000D01*
X142660000Y-44516000D02*
X142660000Y-42484000D01*
X142660000Y-42484000D02*
X142914000Y-42230000D01*
X142660000Y-47310000D02*
X145200000Y-47310000D01*
X142914000Y-47310000D02*
X142660000Y-47056000D01*
X142660000Y-47310000D02*
X142660000Y-47056000D01*
X145200000Y-47310000D02*
X147740000Y-47310000D01*
X147486000Y-42230000D02*
X147740000Y-41976000D01*
X147740000Y-42484000D02*
X147486000Y-42230000D01*
X147740000Y-45024000D02*
X147740000Y-46802000D01*
X147486000Y-44770000D02*
X147740000Y-45024000D01*
X147740000Y-44516000D02*
X147486000Y-44770000D01*
X147740000Y-42484000D02*
X147740000Y-44516000D01*
X147740000Y-46802000D02*
X147740000Y-47310000D01*
X147740000Y-47056000D02*
X147486000Y-47310000D01*
X147740000Y-39944000D02*
X147740000Y-41976000D01*
X147486000Y-39690000D02*
X147740000Y-39944000D01*
X145454000Y-39690000D02*
X147486000Y-39690000D01*
X145200000Y-39944000D02*
X145454000Y-39690000D01*
D20*
G04 #@! TO.C,*
X196249147Y-57673000D02*
G75*
G03X196249147Y-57673000I-337447J0D01*
G01*
D21*
X195899000Y-56898300D02*
X196407000Y-56390300D01*
X197499200Y-56314100D02*
X198134200Y-56923700D01*
X198108800Y-58879500D02*
X197550000Y-59463700D01*
X199734400Y-59476400D02*
X199277200Y-59019200D01*
X200720200Y-59476400D02*
X199734400Y-59476400D01*
D20*
X201599324Y-59451000D02*
G75*
G03X201599324Y-59451000I-366324J0D01*
G01*
D21*
X201233000Y-56758600D02*
X201233000Y-58358800D01*
D20*
X201619218Y-56225200D02*
G75*
G03X201619218Y-56225200I-373518J0D01*
G01*
X202824559Y-59425600D02*
G75*
G03X202824559Y-59425600I-359659J0D01*
G01*
D21*
X202452200Y-58917600D02*
X202452200Y-56326800D01*
X202452200Y-56326800D02*
X203290400Y-56326800D01*
X203290400Y-56326800D02*
X203900000Y-56834800D01*
X204001600Y-57622200D02*
X204001600Y-56911000D01*
X204077800Y-56834800D02*
X204712800Y-56326800D01*
D20*
X204372518Y-58155600D02*
G75*
G03X204372518Y-58155600I-370918J0D01*
G01*
D21*
X204712800Y-56326800D02*
X205601800Y-56326800D01*
D20*
X205977729Y-59438300D02*
G75*
G03X205977729Y-59438300I-363229J0D01*
G01*
X211773266Y-59527200D02*
G75*
G03X211773266Y-59527200I-329466J0D01*
G01*
D21*
X211113600Y-59171600D02*
X210275400Y-58358800D01*
D11*
X209767400Y-58257200D02*
X210300800Y-58257200D01*
D21*
X208624400Y-59476400D02*
X209767400Y-58358800D01*
X207303600Y-59476400D02*
X208624400Y-59476400D01*
X206871800Y-59044600D02*
X207303600Y-59476400D01*
X206871800Y-56809400D02*
X206871800Y-59044600D01*
X206871800Y-56784000D02*
X207354400Y-56276000D01*
X207402500Y-56301400D02*
X208624400Y-56301400D01*
X208624400Y-56301400D02*
X209716600Y-57368200D01*
D11*
X209742000Y-57482500D02*
X210300800Y-57482500D01*
D21*
X211164400Y-56491900D02*
X210300800Y-57385600D01*
D20*
X211892135Y-56136300D02*
G75*
G03X211892135Y-56136300I-359435J0D01*
G01*
D21*
X208091000Y-57876200D02*
X206871800Y-57876200D01*
D20*
X208958659Y-57876200D02*
G75*
G03X208958659Y-57876200I-359659J0D01*
G01*
D21*
X196470500Y-59489100D02*
X197511900Y-59489100D01*
X195911700Y-58930300D02*
X195911700Y-58168300D01*
X195899000Y-58917600D02*
X196483200Y-59489100D01*
X195899000Y-56949100D02*
X195899000Y-57190400D01*
X198121500Y-56911000D02*
X198121500Y-58841400D01*
X197499200Y-56301400D02*
X196495900Y-56301400D01*
X205614500Y-56314100D02*
X205614500Y-58917600D01*
X199277200Y-59031900D02*
X199277200Y-56301400D01*
D17*
X199277200Y-55958500D02*
X198997800Y-55958500D01*
X198972400Y-55958500D02*
X198972400Y-59108100D01*
X198985100Y-55958500D02*
X198972400Y-55958500D01*
X198997800Y-55958500D02*
X198985100Y-55958500D01*
X199112100Y-56047400D02*
X199048600Y-56034700D01*
X199594700Y-55958500D02*
X199594700Y-58993800D01*
X199289900Y-55958500D02*
X199594700Y-55958500D01*
X199416900Y-56034700D02*
X199531200Y-56034700D01*
X200915500Y-56644300D02*
X200915500Y-58663600D01*
X201550500Y-58663600D02*
X201550500Y-56644300D01*
X201525100Y-58663600D02*
X201550500Y-58663600D01*
X200915500Y-58663600D02*
X201525100Y-58663600D01*
X201055200Y-58600100D02*
X200991700Y-58600100D01*
X201398100Y-58600100D02*
X201487000Y-58600100D01*
X202134700Y-59006500D02*
X202134700Y-56022000D01*
X203379300Y-56009300D02*
X203963500Y-56491900D01*
X202134700Y-56009300D02*
X203379300Y-56009300D01*
X202287100Y-56072800D02*
X202210900Y-56072800D01*
X205944700Y-59031900D02*
X205944700Y-56022000D01*
X204623900Y-56009300D02*
X204001600Y-56504600D01*
X204649300Y-56009300D02*
X204623900Y-56009300D01*
X205944700Y-56009300D02*
X204649300Y-56009300D01*
X205944700Y-56022000D02*
X205944700Y-56009300D01*
X205792300Y-56085500D02*
X205893900Y-56085500D01*
X208738700Y-55971200D02*
X209996000Y-57215800D01*
X208687900Y-55971200D02*
X208738700Y-55971200D01*
X207316300Y-55971200D02*
X208687900Y-55971200D01*
D22*
X202773180Y-68161260D02*
X203324360Y-66738860D01*
D23*
X202427740Y-67975840D02*
X202745240Y-68181580D01*
D20*
X201637800Y-68524480D02*
X202417580Y-67993620D01*
D24*
X201061220Y-67986000D02*
X201625100Y-68524480D01*
D23*
X201076460Y-67986000D02*
X201609860Y-67152880D01*
X201251720Y-66225780D02*
X201609860Y-67109700D01*
X200273820Y-65984480D02*
X201223780Y-66202920D01*
D24*
X200283980Y-65207240D02*
X200278900Y-65994640D01*
D23*
X200271280Y-65194540D02*
X201289820Y-65014200D01*
X201320300Y-64978640D02*
X201668280Y-64112500D01*
X201091700Y-63210800D02*
X201647960Y-64061700D01*
D24*
X201081540Y-63187940D02*
X201581920Y-62654540D01*
D23*
X201630180Y-62629140D02*
X202458220Y-63281920D01*
X202519180Y-63271760D02*
X203365000Y-62865360D01*
X203624080Y-61831580D02*
X203418340Y-62845040D01*
X203616460Y-61818880D02*
X204401320Y-61818880D01*
X204383540Y-61839200D02*
X204596900Y-62857740D01*
X204596900Y-62857740D02*
X205498600Y-63307320D01*
X205511300Y-63302240D02*
X206415540Y-62667800D01*
X206415540Y-62669780D02*
X206969260Y-63215880D01*
X206969260Y-63218420D02*
X206352040Y-64008360D01*
X206352040Y-64008360D02*
X206692400Y-64945620D01*
X206692400Y-64945620D02*
X207774440Y-65174220D01*
X207774440Y-65174220D02*
X207774440Y-66009880D01*
X207774440Y-66009880D02*
X206760980Y-66180060D01*
X206760980Y-66180060D02*
X206354580Y-67091920D01*
X206405380Y-68539720D02*
X205569720Y-67973300D01*
X205569720Y-67973300D02*
X205231900Y-68158720D01*
X205231900Y-68158720D02*
X204657860Y-66718540D01*
X204668020Y-66716000D02*
G75*
G03X205038860Y-64851640I-746760J1117600D01*
G01*
X205049020Y-64866880D02*
G75*
G03X203123700Y-64668760I-1061720J-863600D01*
G01*
X203098300Y-64694160D02*
G75*
G03X203174500Y-66548360I965200J-889000D01*
G01*
X206354580Y-67091920D02*
X206974340Y-67978380D01*
X206420620Y-68532100D02*
X206974340Y-67986000D01*
D12*
X202854460Y-68341600D02*
X203504700Y-66672820D01*
X202470920Y-68138400D02*
X202816360Y-68359380D01*
X202458220Y-68128240D02*
X201632720Y-68692120D01*
X201625100Y-68699740D02*
X200903740Y-68006320D01*
X200896120Y-68003780D02*
X201493020Y-67140180D01*
X200134120Y-66096240D02*
X201206000Y-66291820D01*
X200134120Y-65103100D02*
X200134120Y-66088620D01*
X200131580Y-65100560D02*
X201302520Y-64897360D01*
X201200920Y-64902440D02*
X201536200Y-64069320D01*
X200939300Y-63218420D02*
X201533660Y-64071860D01*
X200918980Y-63182860D02*
X201592080Y-62469120D01*
X201604780Y-62466580D02*
X202575060Y-63182860D01*
X202539500Y-63114280D02*
X203443740Y-62735820D01*
X203527560Y-61719820D02*
X203326900Y-62745980D01*
X203537720Y-61712200D02*
X204502920Y-61712200D01*
X204502920Y-61712200D02*
X204728980Y-62883140D01*
X204718820Y-62801860D02*
X205524000Y-63139680D01*
X205404620Y-63187940D02*
X206415540Y-62514840D01*
X206420620Y-62512300D02*
X207114040Y-63203180D01*
X207119120Y-63210800D02*
X206415540Y-64201400D01*
X206504440Y-64092180D02*
X206870200Y-64960860D01*
X207807460Y-65862560D02*
X206700020Y-66086080D01*
X207891280Y-65120880D02*
X207888740Y-66078460D01*
X206753360Y-66309600D02*
X207876040Y-66098780D01*
X206857500Y-66276580D02*
X206476500Y-67257020D01*
X206824480Y-67912340D02*
X206339340Y-68443200D01*
X206428240Y-68687040D02*
X207111500Y-67996160D01*
X205541780Y-68072360D02*
X206418080Y-68692120D01*
X206405380Y-68377160D02*
X205584960Y-67848840D01*
X205722120Y-68044420D02*
X205193800Y-68372080D01*
X205193800Y-68372080D02*
X204807720Y-67391640D01*
X204802640Y-66693140D02*
X205330960Y-68074900D01*
X200426220Y-65291060D02*
X200426220Y-65941300D01*
X200283980Y-65346940D02*
X201399040Y-65100560D01*
X201813060Y-64079480D02*
X201426980Y-65077700D01*
X201818140Y-64084560D02*
X201216160Y-63175240D01*
X201574300Y-62730740D02*
X202458220Y-63452100D01*
X204845820Y-66751560D02*
X205023620Y-66629640D01*
X205023620Y-66629640D02*
X205399540Y-65918440D01*
X205399540Y-65918440D02*
X205399540Y-65400280D01*
X205404620Y-65412980D02*
X205170940Y-64739880D01*
X205170940Y-64739880D02*
X204660400Y-64310620D01*
X204660400Y-64310620D02*
X203845060Y-64150600D01*
X203845060Y-64142980D02*
X202973840Y-64572240D01*
X202973840Y-64572240D02*
X202554740Y-65303760D01*
X202549660Y-65308840D02*
X202681740Y-66131800D01*
X202686820Y-66162280D02*
X202780800Y-66332460D01*
X202686820Y-66162280D02*
X202780800Y-66332460D01*
X202910340Y-66383260D02*
X203169420Y-66721080D01*
X203278640Y-66497560D02*
X203504700Y-66672820D01*
X204779780Y-66500100D02*
X204525780Y-66665200D01*
X204642620Y-66954760D02*
X204520700Y-66670280D01*
X202463300Y-63449560D02*
X203446280Y-62956800D01*
X202793500Y-66362940D02*
X203100840Y-66629640D01*
D25*
X201777500Y-67792960D02*
X202630940Y-66771880D01*
X200741180Y-65588240D02*
X202158500Y-65527280D01*
X201726700Y-63302240D02*
X202788420Y-64409680D01*
X203987300Y-62326880D02*
X203992380Y-63840720D01*
X206252980Y-63383520D02*
X205140460Y-64450320D01*
X207243580Y-65567920D02*
X205775460Y-65654280D01*
X202453140Y-67620240D02*
X202818900Y-66858240D01*
X201787660Y-66721080D02*
X202351540Y-66241020D01*
X201538740Y-66075920D02*
X202244860Y-65948920D01*
X201863860Y-64831320D02*
X202305820Y-64991340D01*
X202039120Y-64351260D02*
X202496320Y-64640820D01*
X203037340Y-63574020D02*
X203212600Y-63932160D01*
X203471680Y-63314940D02*
X203639320Y-63924540D01*
X204736600Y-63330180D02*
X204515620Y-64015980D01*
X205323340Y-63581640D02*
X204904240Y-64168380D01*
X206192020Y-64450320D02*
X205536700Y-64816080D01*
X206433320Y-65143740D02*
X205711960Y-65291060D01*
X205597660Y-66301980D02*
X206207260Y-66408660D01*
X205277620Y-66721080D02*
X205894840Y-67048740D01*
X205163320Y-66858240D02*
X206344420Y-67871700D01*
X205163320Y-66766800D02*
X205496060Y-67498320D01*
G04 #@! TO.C,U9*
D12*
X127738095Y-58452380D02*
X127738095Y-59261904D01*
X127785714Y-59357142D01*
X127833333Y-59404761D01*
X127928571Y-59452380D01*
X128119047Y-59452380D01*
X128214285Y-59404761D01*
X128261904Y-59357142D01*
X128309523Y-59261904D01*
X128309523Y-58452380D01*
X128833333Y-59452380D02*
X129023809Y-59452380D01*
X129119047Y-59404761D01*
X129166666Y-59357142D01*
X129261904Y-59214285D01*
X129309523Y-59023809D01*
X129309523Y-58642857D01*
X129261904Y-58547619D01*
X129214285Y-58500000D01*
X129119047Y-58452380D01*
X128928571Y-58452380D01*
X128833333Y-58500000D01*
X128785714Y-58547619D01*
X128738095Y-58642857D01*
X128738095Y-58880952D01*
X128785714Y-58976190D01*
X128833333Y-59023809D01*
X128928571Y-59071428D01*
X129119047Y-59071428D01*
X129214285Y-59023809D01*
X129261904Y-58976190D01*
X129309523Y-58880952D01*
G04 #@! TO.C,BAT_CON1*
D14*
X102797265Y-26676559D02*
X102168694Y-26676559D01*
X102482980Y-26676559D02*
X102482980Y-25576559D01*
X102378218Y-25733701D01*
X102273456Y-25838463D01*
X102168694Y-25890844D01*
X100164634Y-25732120D02*
X100217015Y-25679740D01*
X100321777Y-25627359D01*
X100583681Y-25627359D01*
X100688443Y-25679740D01*
X100740824Y-25732120D01*
X100793205Y-25836882D01*
X100793205Y-25941644D01*
X100740824Y-26098787D01*
X100112253Y-26727359D01*
X100793205Y-26727359D01*
G04 #@! TO.C,SERVO1*
X105113333Y-78014047D02*
X105294761Y-78074523D01*
X105597142Y-78074523D01*
X105718095Y-78014047D01*
X105778571Y-77953571D01*
X105839047Y-77832619D01*
X105839047Y-77711666D01*
X105778571Y-77590714D01*
X105718095Y-77530238D01*
X105597142Y-77469761D01*
X105355238Y-77409285D01*
X105234285Y-77348809D01*
X105173809Y-77288333D01*
X105113333Y-77167380D01*
X105113333Y-77046428D01*
X105173809Y-76925476D01*
X105234285Y-76865000D01*
X105355238Y-76804523D01*
X105657619Y-76804523D01*
X105839047Y-76865000D01*
X106383333Y-77409285D02*
X106806666Y-77409285D01*
X106988095Y-78074523D02*
X106383333Y-78074523D01*
X106383333Y-76804523D01*
X106988095Y-76804523D01*
X108258095Y-78074523D02*
X107834761Y-77469761D01*
X107532380Y-78074523D02*
X107532380Y-76804523D01*
X108016190Y-76804523D01*
X108137142Y-76865000D01*
X108197619Y-76925476D01*
X108258095Y-77046428D01*
X108258095Y-77227857D01*
X108197619Y-77348809D01*
X108137142Y-77409285D01*
X108016190Y-77469761D01*
X107532380Y-77469761D01*
X108620952Y-76804523D02*
X109044285Y-78074523D01*
X109467619Y-76804523D01*
X110132857Y-76804523D02*
X110374761Y-76804523D01*
X110495714Y-76865000D01*
X110616666Y-76985952D01*
X110677142Y-77227857D01*
X110677142Y-77651190D01*
X110616666Y-77893095D01*
X110495714Y-78014047D01*
X110374761Y-78074523D01*
X110132857Y-78074523D01*
X110011904Y-78014047D01*
X109890952Y-77893095D01*
X109830476Y-77651190D01*
X109830476Y-77227857D01*
X109890952Y-76985952D01*
X110011904Y-76865000D01*
X110132857Y-76804523D01*
X111886666Y-78074523D02*
X111160952Y-78074523D01*
X111523809Y-78074523D02*
X111523809Y-76804523D01*
X111402857Y-76985952D01*
X111281904Y-77106904D01*
X111160952Y-77167380D01*
G04 #@! TO.C,SERVO2*
X147113333Y-78014047D02*
X147294761Y-78074523D01*
X147597142Y-78074523D01*
X147718095Y-78014047D01*
X147778571Y-77953571D01*
X147839047Y-77832619D01*
X147839047Y-77711666D01*
X147778571Y-77590714D01*
X147718095Y-77530238D01*
X147597142Y-77469761D01*
X147355238Y-77409285D01*
X147234285Y-77348809D01*
X147173809Y-77288333D01*
X147113333Y-77167380D01*
X147113333Y-77046428D01*
X147173809Y-76925476D01*
X147234285Y-76865000D01*
X147355238Y-76804523D01*
X147657619Y-76804523D01*
X147839047Y-76865000D01*
X148383333Y-77409285D02*
X148806666Y-77409285D01*
X148988095Y-78074523D02*
X148383333Y-78074523D01*
X148383333Y-76804523D01*
X148988095Y-76804523D01*
X150258095Y-78074523D02*
X149834761Y-77469761D01*
X149532380Y-78074523D02*
X149532380Y-76804523D01*
X150016190Y-76804523D01*
X150137142Y-76865000D01*
X150197619Y-76925476D01*
X150258095Y-77046428D01*
X150258095Y-77227857D01*
X150197619Y-77348809D01*
X150137142Y-77409285D01*
X150016190Y-77469761D01*
X149532380Y-77469761D01*
X150620952Y-76804523D02*
X151044285Y-78074523D01*
X151467619Y-76804523D01*
X152132857Y-76804523D02*
X152374761Y-76804523D01*
X152495714Y-76865000D01*
X152616666Y-76985952D01*
X152677142Y-77227857D01*
X152677142Y-77651190D01*
X152616666Y-77893095D01*
X152495714Y-78014047D01*
X152374761Y-78074523D01*
X152132857Y-78074523D01*
X152011904Y-78014047D01*
X151890952Y-77893095D01*
X151830476Y-77651190D01*
X151830476Y-77227857D01*
X151890952Y-76985952D01*
X152011904Y-76865000D01*
X152132857Y-76804523D01*
X153160952Y-76925476D02*
X153221428Y-76865000D01*
X153342380Y-76804523D01*
X153644761Y-76804523D01*
X153765714Y-76865000D01*
X153826190Y-76925476D01*
X153886666Y-77046428D01*
X153886666Y-77167380D01*
X153826190Y-77348809D01*
X153100476Y-78074523D01*
X153886666Y-78074523D01*
G04 #@! TO.C,MK1*
D12*
X72279047Y-61371428D02*
X73040952Y-61371428D01*
X74819047Y-61371428D02*
X75580952Y-61371428D01*
X75200000Y-61752380D02*
X75200000Y-60990476D01*
G04 #@! TO.C,LED7*
D19*
X64837166Y-30942166D02*
X64837166Y-30053166D01*
X65345166Y-30942166D02*
X64964166Y-30434166D01*
X65345166Y-30053166D02*
X64837166Y-30561166D01*
X67398333Y-30688166D02*
X67821666Y-30688166D01*
X67313666Y-30942166D02*
X67610000Y-30053166D01*
X67906333Y-30942166D01*
G04 #@! TO.C,JS1*
D26*
X177143301Y-65868214D02*
X178062540Y-66212928D01*
X177143301Y-66557642D01*
X178637063Y-66672547D02*
X178637063Y-65466047D01*
X179326492Y-66672547D01*
X179326492Y-65466047D01*
X180418087Y-66672547D02*
X180418087Y-66040571D01*
X180360635Y-65925666D01*
X180245730Y-65868214D01*
X180015920Y-65868214D01*
X179901016Y-65925666D01*
X180418087Y-66615095D02*
X180303182Y-66672547D01*
X180015920Y-66672547D01*
X179901016Y-66615095D01*
X179843563Y-66500190D01*
X179843563Y-66385285D01*
X179901016Y-66270380D01*
X180015920Y-66212928D01*
X180303182Y-66212928D01*
X180418087Y-66155476D01*
X180992611Y-66672547D02*
X180992611Y-65868214D01*
X180992611Y-65983119D02*
X181050063Y-65925666D01*
X181164968Y-65868214D01*
X181337325Y-65868214D01*
X181452230Y-65925666D01*
X181509682Y-66040571D01*
X181509682Y-66672547D01*
X181509682Y-66040571D02*
X181567135Y-65925666D01*
X181682040Y-65868214D01*
X181854397Y-65868214D01*
X181969301Y-65925666D01*
X182026754Y-66040571D01*
X182026754Y-66672547D01*
X183060897Y-66615095D02*
X182945992Y-66672547D01*
X182716182Y-66672547D01*
X182601278Y-66615095D01*
X182543825Y-66500190D01*
X182543825Y-66040571D01*
X182601278Y-65925666D01*
X182716182Y-65868214D01*
X182945992Y-65868214D01*
X183060897Y-65925666D01*
X183118349Y-66040571D01*
X183118349Y-66155476D01*
X182543825Y-66270380D01*
G04 #@! TO.C,ICSP1*
D14*
X149584523Y-45979523D02*
X148314523Y-45979523D01*
X149463571Y-44649047D02*
X149524047Y-44709523D01*
X149584523Y-44890952D01*
X149584523Y-45011904D01*
X149524047Y-45193333D01*
X149403095Y-45314285D01*
X149282142Y-45374761D01*
X149040238Y-45435238D01*
X148858809Y-45435238D01*
X148616904Y-45374761D01*
X148495952Y-45314285D01*
X148375000Y-45193333D01*
X148314523Y-45011904D01*
X148314523Y-44890952D01*
X148375000Y-44709523D01*
X148435476Y-44649047D01*
X149524047Y-44165238D02*
X149584523Y-43983809D01*
X149584523Y-43681428D01*
X149524047Y-43560476D01*
X149463571Y-43500000D01*
X149342619Y-43439523D01*
X149221666Y-43439523D01*
X149100714Y-43500000D01*
X149040238Y-43560476D01*
X148979761Y-43681428D01*
X148919285Y-43923333D01*
X148858809Y-44044285D01*
X148798333Y-44104761D01*
X148677380Y-44165238D01*
X148556428Y-44165238D01*
X148435476Y-44104761D01*
X148375000Y-44044285D01*
X148314523Y-43923333D01*
X148314523Y-43620952D01*
X148375000Y-43439523D01*
X149584523Y-42895238D02*
X148314523Y-42895238D01*
X148314523Y-42411428D01*
X148375000Y-42290476D01*
X148435476Y-42230000D01*
X148556428Y-42169523D01*
X148737857Y-42169523D01*
X148858809Y-42230000D01*
X148919285Y-42290476D01*
X148979761Y-42411428D01*
X148979761Y-42895238D01*
X149584523Y-40960000D02*
X149584523Y-41685714D01*
X149584523Y-41322857D02*
X148314523Y-41322857D01*
X148495952Y-41443809D01*
X148616904Y-41564761D01*
X148677380Y-41685714D01*
G04 #@! TO.C,*
X199053701Y-70373379D02*
X198948940Y-70320998D01*
X198896559Y-70268617D01*
X198844178Y-70163855D01*
X198844178Y-69849569D01*
X198896559Y-69744807D01*
X198948940Y-69692426D01*
X199053701Y-69640045D01*
X199210844Y-69640045D01*
X199315606Y-69692426D01*
X199367987Y-69744807D01*
X199420368Y-69849569D01*
X199420368Y-70163855D01*
X199367987Y-70268617D01*
X199315606Y-70320998D01*
X199210844Y-70373379D01*
X199053701Y-70373379D01*
X199891797Y-69640045D02*
X199891797Y-70740045D01*
X199891797Y-69692426D02*
X199996559Y-69640045D01*
X200206082Y-69640045D01*
X200310844Y-69692426D01*
X200363225Y-69744807D01*
X200415606Y-69849569D01*
X200415606Y-70163855D01*
X200363225Y-70268617D01*
X200310844Y-70320998D01*
X200206082Y-70373379D01*
X199996559Y-70373379D01*
X199891797Y-70320998D01*
X201306082Y-70320998D02*
X201201320Y-70373379D01*
X200991797Y-70373379D01*
X200887035Y-70320998D01*
X200834654Y-70216236D01*
X200834654Y-69797188D01*
X200887035Y-69692426D01*
X200991797Y-69640045D01*
X201201320Y-69640045D01*
X201306082Y-69692426D01*
X201358463Y-69797188D01*
X201358463Y-69901950D01*
X200834654Y-70006712D01*
X201829892Y-69640045D02*
X201829892Y-70373379D01*
X201829892Y-69744807D02*
X201882273Y-69692426D01*
X201987035Y-69640045D01*
X202144178Y-69640045D01*
X202248940Y-69692426D01*
X202301320Y-69797188D01*
X202301320Y-70373379D01*
D27*
X203369202Y-70419580D02*
X203369202Y-69419580D01*
X203797774Y-70419580D02*
X203797774Y-69895771D01*
X203750155Y-69800533D01*
X203654917Y-69752914D01*
X203512060Y-69752914D01*
X203416821Y-69800533D01*
X203369202Y-69848152D01*
X204702536Y-70419580D02*
X204702536Y-69895771D01*
X204654917Y-69800533D01*
X204559679Y-69752914D01*
X204369202Y-69752914D01*
X204273964Y-69800533D01*
X204702536Y-70371961D02*
X204607298Y-70419580D01*
X204369202Y-70419580D01*
X204273964Y-70371961D01*
X204226345Y-70276723D01*
X204226345Y-70181485D01*
X204273964Y-70086247D01*
X204369202Y-70038628D01*
X204607298Y-70038628D01*
X204702536Y-69991009D01*
X205178726Y-70419580D02*
X205178726Y-69752914D01*
X205178726Y-69943390D02*
X205226345Y-69848152D01*
X205273964Y-69800533D01*
X205369202Y-69752914D01*
X205464440Y-69752914D01*
X206226345Y-70419580D02*
X206226345Y-69419580D01*
X206226345Y-70371961D02*
X206131107Y-70419580D01*
X205940631Y-70419580D01*
X205845393Y-70371961D01*
X205797774Y-70324342D01*
X205750155Y-70229104D01*
X205750155Y-69943390D01*
X205797774Y-69848152D01*
X205845393Y-69800533D01*
X205940631Y-69752914D01*
X206131107Y-69752914D01*
X206226345Y-69800533D01*
X206607298Y-69752914D02*
X206797774Y-70419580D01*
X206988250Y-69943390D01*
X207178726Y-70419580D01*
X207369202Y-69752914D01*
X208178726Y-70419580D02*
X208178726Y-69895771D01*
X208131107Y-69800533D01*
X208035869Y-69752914D01*
X207845393Y-69752914D01*
X207750155Y-69800533D01*
X208178726Y-70371961D02*
X208083488Y-70419580D01*
X207845393Y-70419580D01*
X207750155Y-70371961D01*
X207702536Y-70276723D01*
X207702536Y-70181485D01*
X207750155Y-70086247D01*
X207845393Y-70038628D01*
X208083488Y-70038628D01*
X208178726Y-69991009D01*
X208654917Y-70419580D02*
X208654917Y-69752914D01*
X208654917Y-69943390D02*
X208702536Y-69848152D01*
X208750155Y-69800533D01*
X208845393Y-69752914D01*
X208940631Y-69752914D01*
X209654917Y-70371961D02*
X209559679Y-70419580D01*
X209369202Y-70419580D01*
X209273964Y-70371961D01*
X209226345Y-70276723D01*
X209226345Y-69895771D01*
X209273964Y-69800533D01*
X209369202Y-69752914D01*
X209559679Y-69752914D01*
X209654917Y-69800533D01*
X209702536Y-69895771D01*
X209702536Y-69991009D01*
X209226345Y-70086247D01*
G04 #@! TD*
M02*
