M48
;DRILL file {KiCad 6.0.0-rc1-unknown-ee465fb~66~ubuntu18.04.1} date Thu Sep 27 12:58:09 2018
;FORMAT={-:-/ absolute / metric / decimal}
FMAT,2
METRIC
T1C0.400
T2C0.600
T3C0.762
T4C0.800
T5C0.889
T6C0.900
T7C1.000
T8C1.100
T9C1.397
T10C3.300
T11C4.300
%
G90
G05
M71
T1
X52.5Y-61.8
X52.7Y-63.0
X57.6Y-61.8
X57.6Y-63.0
X78.0Y-65.5
X81.2Y-66.8
X82.4Y-73.5
X83.8Y-64.8
X85.3Y-65.9
X85.3Y-67.527
X91.0Y-42.7
X96.9Y-49.0
X98.4Y-32.8
X100.5Y-49.0
X101.1Y-32.8
X102.0Y-36.5
X102.0Y-42.6
X102.673Y-73.2
X104.2Y-32.8
X106.8Y-28.6
X108.0Y-25.3
X111.566Y-26.4
X111.8Y-74.8
X114.0Y-29.4
X115.2Y-39.0
X115.8Y-76.1
X115.9Y-73.4
X116.5Y-40.6
X116.768Y-23.268
X117.3Y-73.5
X117.3Y-76.1
X119.3Y-62.4
X119.9Y-48.6
X121.5Y-28.0
X121.7Y-40.735
X122.2Y-51.9
X122.2Y-53.7
X122.9Y-45.0
X125.184Y-30.016
X125.2Y-47.0
X125.6Y-53.0
X126.525Y-61.325
X126.6Y-65.1
X129.1Y-51.9
X130.3Y-64.2
X131.2Y-53.3
X131.6Y-51.9
X131.6Y-64.2
X131.6Y-68.2
X134.2Y-45.9
X134.6Y-73.5
X134.9Y-39.981
X135.0Y-35.019
X135.7Y-63.7
X135.9Y-47.0
X136.4Y-51.1
X136.937Y-68.063
X137.0Y-48.3
X137.164Y-61.8
X139.5Y-70.0
X139.581Y-66.995
X140.1Y-45.0
X141.0Y-34.489
X141.1Y-68.4
X141.822Y-52.9
X142.808Y-39.981
X145.2Y-52.3
X145.6Y-68.3
X145.7Y-64.0
X146.886Y-67.986
X146.9Y-52.3
X148.8Y-54.8
X149.0Y-40.435
X149.0Y-51.1
X150.8Y-65.1
X151.1Y-58.2
X151.6Y-34.0
X152.6Y-44.508
X154.3Y-36.3
X155.5Y-47.1
X155.589Y-40.955
X155.6Y-62.4
X155.8Y-35.9
X155.9Y-44.1
X156.005Y-42.509
X156.5Y-28.0
X157.2Y-47.8
X157.527Y-61.1
X157.562Y-29.352
X158.1Y-28.1
X158.973Y-47.5
X159.0Y-50.8
X159.0Y-66.9
X159.4Y-36.8
X159.594Y-39.414
X159.795Y-51.532
X159.8Y-53.9
X159.836Y-42.436
X160.617Y-50.853
X160.7Y-39.3
X160.8Y-56.8
X160.927Y-47.5
X161.1Y-31.435
X161.7Y-35.3
X161.722Y-42.8
X161.989Y-29.77
X162.3Y-31.8
X162.336Y-30.708
X162.586Y-36.625
X162.7Y-38.7
X162.8Y-27.9
X162.8Y-35.4
X163.4Y-51.7
X164.0Y-69.3
X164.65Y-28.035
X164.9Y-30.7
X165.1Y-35.4
X165.2Y-26.4
X165.2Y-27.2
X165.3Y-41.2
X165.4Y-36.5
X165.629Y-51.454
X165.7Y-31.6
X165.7Y-42.4
X166.371Y-50.712
X166.5Y-30.6
X166.6Y-74.4
X166.8Y-41.1
X167.1Y-69.3
X167.6Y-49.7
X167.9Y-47.3
X168.6Y-23.8
X168.6Y-30.4
X169.1Y-53.1
X170.044Y-25.613
X170.794Y-40.727
X171.4Y-38.4
X171.6Y-23.8
X171.8Y-40.073
X172.1Y-42.5
X172.2Y-43.7
X172.267Y-39.189
X172.3Y-35.6
X172.7Y-26.5
X172.9Y-21.25
X174.378Y-48.7
X175.624Y-41.727
X175.7Y-39.3
X176.0Y-36.8
X176.0Y-40.8
X176.1Y-29.6
X176.2Y-47.5
X176.9Y-40.073
X177.3Y-22.9
X177.3Y-26.8
X180.682Y-36.6
X191.6Y-31.7
X197.0Y-28.9
T2
X181.587Y-83.5
X182.6Y-81.1
X182.6Y-85.9
X185.0Y-80.087
X185.0Y-86.913
X187.4Y-81.1
X187.4Y-85.9
X188.413Y-83.5
X103.587Y-53.0
X104.349Y-51.349
X104.349Y-54.778
X106.0Y-50.587
X106.0Y-55.413
X107.651Y-51.349
X107.651Y-54.651
X108.413Y-53.0
X156.587Y-77.5
X157.6Y-75.1
X157.6Y-79.9
X160.0Y-74.087
X160.0Y-80.913
X162.4Y-75.1
X162.4Y-79.9
X163.413Y-77.5
X150.587Y-53.0
X151.349Y-51.349
X151.349Y-54.778
X153.0Y-50.587
X153.0Y-55.413
X154.651Y-51.349
X154.651Y-54.651
X155.413Y-53.0
X46.587Y-73.5
X47.6Y-71.1
X47.6Y-75.9
X50.0Y-70.087
X50.0Y-76.913
X52.4Y-71.1
X52.4Y-75.9
X53.413Y-73.5
X95.587Y-77.5
X96.6Y-75.1
X96.6Y-79.9
X99.0Y-74.087
X99.0Y-80.913
X101.4Y-75.1
X101.4Y-79.9
X102.413Y-77.5
X83.087Y-81.5
X84.1Y-79.1
X84.1Y-83.9
X86.5Y-78.087
X86.5Y-84.913
X88.9Y-79.1
X88.9Y-83.9
X89.913Y-81.5
X70.587Y-83.0
X71.6Y-80.6
X71.6Y-85.4
X74.0Y-79.587
X74.0Y-86.413
X76.4Y-80.6
X76.4Y-85.4
X77.413Y-83.0
X169.087Y-82.0
X170.1Y-79.6
X170.1Y-84.4
X172.5Y-78.587
X172.5Y-85.413
X174.9Y-79.6
X174.9Y-84.4
X175.913Y-82.0
T3
X52.86Y-43.23
X60.48Y-43.23
X72.66Y-59.395
X75.2Y-59.395
X120.48Y-42.98
X120.48Y-70.92
X123.02Y-42.98
X123.02Y-70.92
X125.56Y-42.98
X125.56Y-70.92
X128.1Y-42.98
X128.1Y-70.92
X130.64Y-42.98
X130.64Y-70.92
X133.18Y-42.98
X133.18Y-70.92
X135.72Y-42.98
X135.72Y-70.92
X138.26Y-42.98
X138.26Y-70.92
X79.03Y-44.58
X81.57Y-44.58
T4
X65.07Y-29.24
X67.61Y-29.24
X74.85Y-22.11
X77.39Y-22.11
X79.93Y-22.11
T5
X171.71Y-59.11
X171.71Y-61.65
X171.71Y-64.19
X179.33Y-71.81
X181.87Y-71.81
X184.41Y-71.81
T6
X100.497Y-27.655
X102.508Y-27.652
T7
X125.69Y-34.0
X128.23Y-34.0
X130.77Y-34.0
X133.31Y-34.0
X107.0Y-69.46
X107.0Y-72.0
X107.0Y-74.54
X152.0Y-69.46
X152.0Y-72.0
X152.0Y-74.54
X86.71Y-29.7
X89.25Y-29.7
X91.79Y-29.7
X143.93Y-40.96
X143.93Y-43.5
X143.93Y-46.04
X146.47Y-40.96
X146.47Y-43.5
X146.47Y-46.04
T8
X178.695Y-49.149
X178.695Y-53.649
X185.045Y-49.149
X185.045Y-53.649
T9
X174.25Y-54.982
X174.25Y-68.317
X189.49Y-54.982
X189.49Y-68.317
T10
X106.0Y-53.0
X153.0Y-53.0
T11
X160.0Y-77.5
X50.0Y-73.5
X99.0Y-77.5
X86.5Y-81.5
X74.0Y-83.0
X172.5Y-82.0
X185.0Y-83.5
T2
G00X159.8Y-21.55
M15
G01X159.8Y-20.95
M16
G05
G00X159.8Y-25.02
M15
G01X159.8Y-24.42
M16
G05
G00X167.0Y-21.55
M15
G01X167.0Y-20.95
M16
G05
G00X167.0Y-25.02
M15
G01X167.0Y-24.42
M16
G05
T0
M30
