G04 #@! TF.GenerationSoftware,KiCad,Pcbnew,6.0.0-rc1-unknown-ee465fb~66~ubuntu18.04.1*
G04 #@! TF.CreationDate,2018-09-27T12:58:04+03:00*
G04 #@! TF.ProjectId,eduBoard_Rev_A,656475426F6172645F5265765F412E6B,rev?*
G04 #@! TF.SameCoordinates,Original*
G04 #@! TF.FileFunction,Paste,Top*
G04 #@! TF.FilePolarity,Positive*
%FSLAX46Y46*%
G04 Gerber Fmt 4.6, Leading zero omitted, Abs format (unit mm)*
G04 Created by KiCad (PCBNEW 6.0.0-rc1-unknown-ee465fb~66~ubuntu18.04.1) date Thu Sep 27 12:58:04 2018*
%MOMM*%
%LPD*%
G01*
G04 APERTURE LIST*
%ADD10R,1.371600X3.911600*%
%ADD11R,0.500000X1.600000*%
%ADD12R,0.325000X1.800000*%
%ADD13R,1.100000X1.000000*%
%ADD14R,2.200000X0.600000*%
%ADD15R,0.800000X0.800000*%
%ADD16R,1.524000X1.000000*%
%ADD17R,1.524000X1.270000*%
G04 APERTURE END LIST*
D10*
G04 #@! TO.C,UEXT1*
X189080000Y-21825000D03*
X189080000Y-28175000D03*
X186540000Y-21825000D03*
X186540000Y-28175000D03*
X184000000Y-21825000D03*
X184000000Y-28175000D03*
X181460000Y-21825000D03*
X181460000Y-28175000D03*
X178920000Y-21825000D03*
X178920000Y-28175000D03*
G04 #@! TD*
D11*
G04 #@! TO.C,USB1*
X164787000Y-24600000D03*
D12*
X164050000Y-24600000D03*
X163400000Y-24600000D03*
X162750000Y-24600000D03*
D11*
X162013000Y-24600000D03*
D13*
X164900000Y-20100000D03*
X161900000Y-20100000D03*
G04 #@! TD*
D14*
G04 #@! TO.C,U4*
X50705566Y-63041369D03*
X50705566Y-61771369D03*
X50705566Y-60501369D03*
X50705566Y-59231369D03*
X55905566Y-59231369D03*
X55905566Y-60501369D03*
X55905566Y-61771369D03*
X55905566Y-63041369D03*
G04 #@! TD*
D15*
G04 #@! TO.C,LED6*
X103000000Y-32762000D03*
X103000000Y-31238000D03*
G04 #@! TD*
D16*
G04 #@! TO.C,LED5*
X97340000Y-41060000D03*
X97340000Y-42660000D03*
X97340000Y-44260000D03*
X92440000Y-44260000D03*
X92440000Y-42660000D03*
X92440000Y-41060000D03*
G04 #@! TD*
D15*
G04 #@! TO.C,LED4*
X94328000Y-49000000D03*
X95852000Y-49000000D03*
G04 #@! TD*
G04 #@! TO.C,LED3*
X100000000Y-32762000D03*
X100000000Y-31238000D03*
G04 #@! TD*
G04 #@! TO.C,LED2*
X156500000Y-24024000D03*
X156500000Y-22500000D03*
G04 #@! TD*
G04 #@! TO.C,LED1*
X170000000Y-24262000D03*
X170000000Y-22738000D03*
G04 #@! TD*
D17*
G04 #@! TO.C,SW1*
X198616000Y-34760000D03*
X206744000Y-34760000D03*
G04 #@! TD*
M02*
